/* XPM */
static char *image_removebg_preview__1___1_1706303853[] = {
/* columns rows colors chars-per-pixel */
"50 50 196 2 ",
"   c #050100",
".  c #0B0400",
"X  c #0D0904",
"o  c #0D0C0C",
"O  c #070508",
"+  c #110600",
"@  c #180700",
"#  c #140B02",
"$  c #1A0D02",
"%  c #120E0A",
"&  c #180F09",
"*  c #1C1106",
"=  c #15120D",
"-  c #1C130B",
";  c #18140B",
":  c #151413",
">  c #1A1612",
",  c #1D1915",
"<  c #141519",
"1  c #1C1C1B",
"2  c #220D00",
"3  c #280E00",
"4  c #241303",
"5  c #291301",
"6  c #2C1904",
"7  c #23150B",
"8  c #24190D",
"9  c #2B1C0D",
"0  c #251807",
"q  c #311F0E",
"w  c #351D04",
"e  c #261710",
"r  c #251C13",
"t  c #2B1D11",
"y  c #221E1A",
"u  c #311F11",
"i  c #2D200F",
"p  c #3A2207",
"a  c #35230D",
"s  c #3C240D",
"d  c #2D2114",
"f  c #24211D",
"g  c #2C231B",
"h  c #2C281F",
"j  c #342414",
"k  c #3A2612",
"l  c #372814",
"z  c #3C2914",
"x  c #32261A",
"c  c #35291B",
"v  c #3C2C1B",
"b  c #3D301F",
"n  c #1D1E20",
"m  c #252322",
"M  c #2A2622",
"N  c #2D2A25",
"B  c #2C2B2A",
"V  c #2B2728",
"C  c #332C24",
"Z  c #3A2E22",
"A  c #322E2A",
"S  c #3C3225",
"D  c #35312C",
"F  c #3C342C",
"G  c #353126",
"H  c #2C2D31",
"J  c #343333",
"K  c #3A3633",
"L  c #3C3935",
"P  c #3C3C3B",
"I  c #41270D",
"U  c #442A0E",
"Y  c #412711",
"T  c #432B14",
"R  c #492E14",
"E  c #422E1B",
"W  c #492F1A",
"Q  c #4C3116",
"!  c #44311D",
"~  c #4C331B",
"^  c #52361C",
"/  c #543A1E",
"(  c #453323",
")  c #4A3622",
"_  c #4D3924",
"`  c #41362B",
"'  c #43392D",
"]  c #4B3B2A",
"[  c #503723",
"{  c #533B23",
"}  c #593E24",
"|  c #533E2B",
" . c #443C32",
".. c #483E34",
"X. c #423E3A",
"o. c #3F413E",
"O. c #55412E",
"+. c #5D442B",
"@. c #5F4127",
"#. c #464036",
"$. c #4C4236",
"%. c #45413D",
"&. c #4C443B",
"*. c #4F493E",
"=. c #534332",
"-. c #5A4633",
";. c #5C4934",
":. c #51463C",
">. c #53493E",
",. c #5A4B3D",
"<. c #61462E",
"1. c #644B2F",
"2. c #634A32",
"3. c #684E31",
"4. c #624C38",
"5. c #675031",
"6. c #6E5235",
"7. c #635238",
"8. c #71573E",
"9. c #3C3D40",
"0. c #413F42",
"q. c #454443",
"w. c #4A4642",
"e. c #474947",
"r. c #4C4944",
"t. c #474749",
"y. c #494748",
"u. c #4C4B4B",
"i. c #514740",
"p. c #544C43",
"a. c #584E44",
"s. c #524E4B",
"d. c #584F48",
"f. c #5A5046",
"g. c #54514C",
"h. c #5B534C",
"j. c #4E4F51",
"k. c #514F50",
"l. c #4F5150",
"z. c #545453",
"x. c #5A5552",
"c. c #5D5956",
"v. c #565658",
"b. c #575959",
"n. c #5C5B5B",
"m. c #565857",
"M. c #61564D",
"N. c #605245",
"B. c #615B54",
"V. c #625D5B",
"C. c #64625E",
"Z. c #6B655E",
"A. c #676056",
"S. c #71685F",
"D. c #5D5E61",
"F. c #615F60",
"G. c #5F6062",
"H. c #646463",
"J. c #6A6662",
"K. c #6B6A66",
"L. c #666669",
"P. c #676968",
"I. c #6C6C6B",
"U. c #706A64",
"Y. c #716E6A",
"T. c #73716E",
"R. c #7B7368",
"E. c #6C6D70",
"W. c #716F70",
"Q. c #737372",
"!. c #797673",
"~. c #7C7975",
"^. c #7A7778",
"/. c #7D7C7D",
"(. c #81776D",
"). c #817E7B",
"_. c #807C73",
"`. c #83817D",
"'. c #8E847B",
"]. c #7D7E82",
"[. c #7C8081",
"{. c #838382",
"}. c #8B8984",
"|. c #8C8C8A",
" X c #878786",
".X c #948C83",
"XX c #988E84",
"oX c #93928E",
"OX c #999289",
"+X c #959491",
"@X c #9C9993",
"#X c #A39F9C",
"$X c #AFA59B",
"%X c #B2AA9F",
"&X c #B6ADA3",
"*X c #BDB4AB",
/* pixels */
" .a.*.a.p.:.:.:.>.' Z f.h.a.h.p.h.f.r.B.r.X.s.w.X.q.%.P K K %.w.*.*.p.$.,.$.=.=.>.b $.,.:.:.:.:.&...",
"&.f.p.p.&.:.>.a.:...:. .p.h.&.B.p.c.G z.K.J.s.Y.C.oX+XoX`.c.D L h.$.#.o.c o.#.F o._ *.,.a.>.:.p.>.&.",
"a.f.p.a.p.:.>.:.i...i.` #.&.g.f.p.x.X.J.~.J.%.Q.b. X|.+X`.I.`.`.s.L G #.*.=.b b S #.=.*.p.p.:.:.p.:.",
"h.a.:.p.a.f.a.p...` X.i.B.p.p.n.Q.!.Y.r.x.H.u.e.r.Q.!.^.C.q.+XQ.Z.~.c.G o.#.*.#.=.' #.>.:.:.p.:.>.:.",
"a.p.a.f.a.:.&... . ...M.d.m A n.Y.V.I.k.J.D.l.P t.{./.Q.P.P {.n.v.@X|.C.r.X.g...>.#. .:.>.=.,.p.a.a.",
"..$.p.&.$. .'  .i.0.U.B.w.r., q.I.F.I.n.H.I.n.q.v.{.Q.K.n.z.!.z.x.H.g.I.~.C.w. .&.&.#.$.>.>.$.$.:.:.",
"( ' ..Z ` ..&.a...s.d.s.J.).K m v.b.H.I.L./.W.q.t.Q.K.Q.b.H.T.u.v.z.t.I.`.!.w.X.%.*.#.#.>.,.$.$. . .",
"$.=.&.` &.&.&.w.d.X.0.x.x.L.H.B K v.F.Y.v.z.P f B V.V.Y.r.g.C.w.n.q.V.Y.I.H.P B #.#.%.$.$.$.,.,.p.:.",
"$.$.$.$.&.&.w.x.g.A X.P q.g.n.P m P e.q.D : X . % > , y y g F X.w.g.^.E.z.z.J B P F D X.&.=.f.,.>.:.",
"..=.$.$. .F ' V.X.x.` J z.m.n.u.1 f y , % . .     - # # - & 7 > B Y.Y.n.k.q.H q.s.C X.h.a.$.,.f.>.:.",
"$.>.$.'  . .d.K f 0.0.k.m.n.P.%.y > # % % & r # $ ` u t Z t 9 - - p.c.x.u.K B n.{.g.B a.h.p.' ,.:.:.",
"S F S F M.V.c.1 f , V y.T.C.q.1 % X . r x d Z 0 0 ,.) ( =.v ) u - - D %.w.B t.Q.{.I.B X.f.a.:.` :.:.",
"` b F S #.%.g q.F.0.B m s.r.1 X . . # ` ' c ( 6 4 ;.~ / -.~ 2.z 0 - # r D D Y.[.I.P.L B x.p.f.a.&...",
"#.S F S %.%.A y.J.Y.n.w.D f .   * 0 0 =.=.l ( 5 5 +.[ @.@.~ N.~ l x # X , w.T.H.b.l.C.g.X.c.>.$.a.&.",
"' ` ' F p.r.J.n.F.Y.n.u.B o   ; * 9 0 =.O.s ! 5 5 @./ / / U 6.} b b 8 * ; %.H.F.n.Q.^.u.r a. .F i...",
"#.#.' #.p.L s.n.^.^.I.K o . ; * 0 v a ;.;.T ~ 5 5 +.^ / @.U 6./ ! _ i * , g Z.}.[.T.b.u.D D F b ` S ",
" .$.#.%.%.X.u.l.j.D.v.m X X ; i s ~ I +.2.T ) 4 2 -._ ~ / s 6./ ~ O.k q t * a./.I.L.n.v.K d  .' ....",
"&.$.&.p.G o.s.v.n.n.9.= X # h l z ~ T 2.2.Y ) 3 2 | ) ! _ p 3./ ~ } T E v @ D C.I.H.F.z.f , &.#... .",
":.&.*.f.f D q.z.D.n.K X X * c l T ^ R 2.2.z ( 5 4 =.( ! ~ p 1./ ~ { T _ ] * r G q.9.H m = f F F .. .",
"p.:.' &.f m B J J P f X # * O.! T ~ Q 2.2.Y W 3 2 =.! ! Q w <.^ Q [ T | O.0 & ; o < n m J D G #.' ..",
":.:.Z K , , n n < 1 : + 0 0 O.~ T Q R 1.1.I W 2 4 O.! E T w @.Q R ^ R _ =.9 * ; V t.L.D.D.B N *...&.",
"x Z g F N q.b.b.t.V % + * i +.^ U ^ R <.<.I T 2 5 O.v v v 6 @.Q R Q I } 4.j - > 9.Q.].L.L.B N d...&.",
"..' F K r.P.P.E.L.A % # i p 5.} Q ^ Q <.} Y R 2 5 O.v v s 6 { Q U R I { 4.z 8 - t.].E.D.L.B V %.` ' ",
"i...w.F s.t.9.D.n.1 # $ a p 5./ R ^ Q <.} Y R 2 2 O.! ! s 4 { ~ I ^ R { -.l 9 - K n.t.t.q.o f  .....",
"..i.d.s.P o.v.v.b.f . $ z z 1./ R R ^ [ ^ I W 2 5 | ( T k 5 ^ ~ U ^ I <.} l 9 * w.n.q.k.q.N F #. .' ",
"i.i.h.C.C.I.E.I.L.B . - ! T 7.Q I I R { [ T W 2 2 =.( v k 2 } ~ W ^ s ^ } v t 7 U.).^.Q.n.*.L *. ...",
".. .w.r.q.q.e.l.n.1 . & S ! 7.~ T | R W [ T z 2 0 a.! l v 4 | ! ! _ T O.;._ j r d.V.n.s.#.P f #. .&.",
"w.:.h.r.q.u.v.I.F.m . & ` ] -.a k E v | ( E v @ $ | Z c l 4 ( v ! _ l ] ] S 8 r s.x.z.q.%.q.C *.` ..",
"#.L *.G L e.u.m.P o   % h j S 8 0 t 7 j t t t @ - c * 8 8 + j 0 0 d * j c r * > X.q.q.u.r.o.f F ..#.",
"*.%.%.y , f 1 f n O o X.!.OX&X&X&X*X*X$XXX(.S.G g }.}.@XOXR.'..X'..X.XXX.XS.X.r B J J 0.o.A C #. .` ",
"*.p.r., X % : , < O o V X.r.x.B.C.d.V.J.`.R.!.K m @XY.K.J.#.p.p.C.h.*.&.*.h.N o < < < n < o f #.#.#.",
"&.w.*., % : m 1 1 : O g D L ..&.Z.X.m K #Xg.N : , r.n [. XG M h c.%.N h C J.V o 1 < < < : o B p.:.p.",
"i.X.X.M 1 B J P H :   % # # # @ & - y z.n.n.J   X ; t.l.V.s.* X * *   . + & . : V H t.v.t.m A w.:.>.",
"h.&...G N o.l.b.q.> .   # - 0 @ @   x.Q.1 q.A.  . : |.J H A.S X # X   # $ @ . ; P G./.Q.E.q.A h.p.p.",
"`  .i.A N o.m.I.z.o   # Z u ( j 0 - #.`.%.g.~.X X M Q.v.o._.$.i 8 8 * r u t & y q.H.P.V.v.J C p.M.M.",
"` p.i.G N G u.n.r.= X & S ` -.v c d f x. X`.>.X * N D /.|.A.b b v b * d Z ( t , J j.K X.t.V u :.' ` ",
"i.` &.C f N o.o.M . + 7 Z x | E i 9 8 # N G * , # C % > F d c l l v $ 0 E ( t & A K V K J , G N.>.:.",
"a. .C C Z.T.K.K.q.;   & c v | k 0 i - # X   i # * g * .   . v l a c 4 9 E ( t > x.I.V.B.W.s.F h.p.>.",
"i.S p.f ; m V 1 : . + - x j ] u 0 i d c i 8 x # # x g - * # ] a j j * a E ! e r X.s.B.s.0.M M N.&.:.",
"` &.B.r : G L H B = . $ c q ( u 9 i - x c c d $ # g 8 8 8 0 b l j j 4 0 T ! e y J K 0.X.9.y C ..>.i.",
"0.M.d.M #.H.W.H.n.>   & j u ( u 9 t 7 9 l c x . $ x 7 3 8 $ c j l x $ 9 k j r y m m B B n o M F ....",
"a.h.g.A o.c.b.m.s.;   $ t e E t 7 t 7 q j u d # + y e 7 7 @ j d j l $ 7 j u e , H v.u.9.J < B f.....",
"..M.s.M B B H o.B     & e - E t 7 r 0 9 t j t # . y e 7 7 @ d t t u $ e u t e : H v.P P P B A d.d.d.",
"..M.d.X.n.J.Q.{.H.m   . - e E e 7 8 4 9 9 t r . % u e 7 7 $ d r t d 7 t u t & & y. XE.I.[.n.D h.a.p.",
"..M.i.K g.m.b.D.u.,   % > 7 u e * 8 * 9 8 i 8 . + y e 7 4 # t - e d 7 t u 9 7 > P D.G.l.l.P A p.i.:.",
"..d.M.K r.n.m.m.z.<   . - - u & , 8 $ 9 0 i ,   X y e 7 $ + r 7 7 t - t u 0 & , L b.H.u.b.P G x.:.:.",
"i...d.V #.n.l.u.P :   o & $ t e ; - * i i i r X O r e 2 @ @ r 7 - t & 9 j 9 7 > J o.n.g.r.m G f.>.p.",
"a.i.p.t f H J A m O   # & - t # * - * i 0 8 - . X , e $ # # r & $ 8 @ 7 j t 7 ; B L #.L o., C f.>.p.",
"i.a...g # % % % : &   & r 7 t 0 - r 7 c e - 7 . . y & & # $ Z e 0 t $ 7 Z 7 7 & > : y y = e G a.a.p.",
"d.>...:.w.i.X.X.X.r.i.:.&. .$.:.:.&.&.M.:. .#. .A X.A A C G ..x ` $.( ` >.` ` ..F F L K K %.p.p.i.:."
};
