/* XPM */
static char *bbc667ffa0344072d427b82fed48babd0CVB56hNOWFGLzke[] = {
/* columns rows colors chars-per-pixel */
"50 50 253 2 ",
"   c #2D251B",
".  c #352B1B",
"X  c #393212",
"o  c #3A2D24",
"O  c #362C25",
"+  c #3C3226",
"@  c #3D342B",
"#  c #3F392C",
"$  c #3F3C32",
"%  c #3E3531",
"&  c #2D2920",
"*  c #4A3808",
"=  c #483A19",
"-  c #583C1A",
";  c #4F300C",
":  c #652C00",
">  c #6B3804",
",  c #7B3501",
"<  c #743B01",
"1  c #7C3C01",
"2  c #733806",
"3  c #673A16",
"4  c #71370F",
"5  c #42352C",
"6  c #433A2D",
"7  c #48392A",
"8  c #563D26",
"9  c #433633",
"0  c #463C33",
"q  c #4A3D33",
"w  c #453C39",
"e  c #4A3E3A",
"r  c #573E34",
"t  c #452C23",
"y  c #653E27",
"u  c #594518",
"i  c #514110",
"p  c #6C4308",
"a  c #7B4405",
"s  c #6A4219",
"d  c #784512",
"f  c #715710",
"g  c #4C4124",
"h  c #4C422D",
"j  c #46422E",
"k  c #54432C",
"l  c #59472A",
"z  c #464234",
"x  c #4C4234",
"c  c #4D4936",
"v  c #464339",
"b  c #4D443B",
"n  c #4D493B",
"m  c #464837",
"M  c #524435",
"N  c #534A36",
"B  c #52453B",
"V  c #59453B",
"C  c #534A3D",
"Z  c #5A4C3D",
"A  c #5A4833",
"S  c #59513C",
"D  c #5F5029",
"F  c #63432B",
"G  c #664726",
"H  c #634934",
"J  c #665239",
"K  c #685128",
"L  c #75662E",
"P  c #7C6515",
"I  c #4A3E40",
"U  c #4D4441",
"Y  c #4E4942",
"T  c #534543",
"R  c #554B42",
"E  c #5A4D44",
"W  c #564C49",
"Q  c #5A4D4A",
"!  c #594742",
"~  c #565043",
"^  c #5B5245",
"/  c #5D534A",
"(  c #5B5749",
")  c #5D5651",
"_  c #624E49",
"`  c #615446",
"'  c #62544B",
"]  c #665948",
"[  c #645756",
"{  c #7F7C45",
"}  c #8C4C00",
"|  c #884902",
" . c #934E05",
".. c #875402",
"X. c #935300",
"o. c #9A5302",
"O. c #945901",
"+. c #9C5B01",
"@. c #995309",
"#. c #945512",
"$. c #A35D00",
"%. c #A55908",
"&. c #B45F00",
"*. c #A55609",
"=. c #896200",
"-. c #996702",
";. c #9E7800",
":. c #896717",
">. c #90771A",
",. c #AC6301",
"<. c #AC6B00",
"1. c #A46705",
"2. c #B76805",
"3. c #AA7C01",
"4. c #A87401",
"5. c #B87C01",
"6. c #B97704",
"7. c #A46812",
"8. c #B56814",
"9. c #B97A17",
"0. c #AD7C19",
"q. c #8F6D2C",
"w. c #B1782A",
"e. c #C97A05",
"r. c #D57F00",
"t. c #C97C15",
"y. c #8A744C",
"u. c #B88601",
"i. c #BE9604",
"p. c #BD8518",
"a. c #B68E19",
"s. c #968637",
"d. c #BB8A22",
"f. c #B89633",
"g. c #B39530",
"h. c #C38B02",
"j. c #C78707",
"k. c #D48502",
"l. c #DB8902",
"z. c #DA8707",
"x. c #C99605",
"c. c #D79809",
"v. c #C78918",
"b. c #D48719",
"n. c #CA9914",
"m. c #D7961A",
"M. c #E28A09",
"N. c #E79806",
"B. c #E78E11",
"V. c #E99716",
"C. c #F39D1A",
"Z. c #D9A708",
"A. c #DAA91A",
"S. c #D3AD0D",
"D. c #E8A70A",
"F. c #E6A819",
"G. c #EAB91B",
"H. c #F3B816",
"J. c #F1AB14",
"K. c #C78728",
"L. c #D39625",
"P. c #CE932E",
"I. c #EA9A26",
"U. c #EC9C2B",
"Y. c #CEA62F",
"T. c #DBA72B",
"R. c #CBA935",
"E. c #DAB537",
"W. c #DAAD2F",
"Q. c #E6A827",
"!. c #F4A529",
"~. c #EAB62A",
"^. c #F7B927",
"/. c #EBA834",
"(. c #F5A936",
"). c #EEBB33",
"_. c #FAB937",
"`. c #DFC111",
"'. c #EAC70C",
"]. c #ECD30C",
"[. c #F4D60B",
"{. c #F7DC0A",
"}. c #EAC819",
"|. c #F6C818",
" X c #EDD717",
".X c #FADC12",
"XX c #FCDB1B",
"oX c #F7D617",
"OX c #EEE609",
"+X c #F3E70B",
"@X c #EEE312",
"#X c #FEE21D",
"$X c #FAE717",
"%X c #FFF116",
"&X c #E9C326",
"*X c #F8C729",
"=X c #F9D827",
"-X c #F9C838",
";X c #FEDB34",
":X c #FED83D",
">X c #ECCE35",
",X c #FFE52C",
"<X c #FAE426",
"1X c #FCE536",
"2X c #FFF035",
"3X c #92844D",
"4X c #AB9044",
"5X c #9D9268",
"6X c #AF9B6A",
"7X c #B7A460",
"8X c #BEA747",
"9X c #D7B050",
"0X c #F8BD42",
"qX c #EEB74D",
"wX c #CABD74",
"eX c #D49B41",
"rX c #EAC646",
"tX c #FAC447",
"yX c #FEDC44",
"uX c #FCD846",
"iX c #FAC958",
"pX c #E7D159",
"aX c #F9D75A",
"sX c #EBCE4E",
"dX c #FEE343",
"fX c #FFE34B",
"gX c #FFED4A",
"hX c #FEE355",
"jX c #FFED53",
"kX c #FFE75B",
"lX c #FFF155",
"zX c #F8CD76",
"xX c #FAD56E",
"cX c #FBE866",
"vX c #FEEB73",
"bX c #FBE579",
"nX c #FFF17B",
"mX c #F6E963",
"MX c #D8C361",
"NX c #E7D293",
"BX c #FFF48C",
"VX c #FDF687",
"CX c #FFEC9A",
"ZX c #FEF290",
"AX c #EED6A8",
"SX c #FFFCAB",
"DX c #FDF7A5",
"FX c #FFFCB3",
"GX c #FFF3B7",
"HX c #FCE3B3",
"JX c #FFFAC9",
"KX c #FFFAD5",
"LX c #FFFEE5",
/* pixels */
"h Z C E B T R R Y # 6 n ( ~ ^ ^ ' B T Q U $ b b N j b b o B C N C n v 0 0 x 6 z v @ v ~ C C Z N B b ",
"Z E B R E Q R b Y v C @ z B / / E E E R T w % R x x b b 9 x x b x @ # 0 6 6 @ . + x v R R b N N C C ",
"Q / R E E E E R C + b x C M T _ _ Z V N R Q @ w C R M e w # @ 6 6 N x w T T e 0 6 6 x b R R B M C B ",
"Q Q C R E E B x 0 @ b C Z ^ T ! ! V Z S E Q 0 @ x C M M C 0 e B 0 b x q w e R b N # b T b T C C R T ",
"T R R R Q B q 0 q b E C k S E E w R / E r q M b 6 j x c B j B b B x q B B 0 e 0 B j 6 C T b R B Q R ",
"@ # x 6 5 5 5 b b b Q E Z h Z Q v Y e r A k 8 = = X X X g k N x x C b M T q 5 q b b 0 q R R b w q 0 ",
"v 0 0 @ q B V Z x q Q Q ^ E T b w v M 8 ; K y.y.3X3X{ D = X 7 E M b T B x C ^ C q x B 0 b T w R b b ",
"v b T 0 b x x M N x Q Q R / e M ] k D y.3XAXJXJXFXSXSXDXNX6XH = q 7 6 6 b ^ C ^ b q 6 x x b W W T B ",
"x z b b B B M c c x R R / ^ 7 = G ; wXFXKXLXLXKXJXSXVXVXSXGXGX6Xu = x B R T R ^ ' Q o x N b / W T b ",
"x x b w 5 o 6 N j . x C b c = L p :.bXDXJXKXHXAXNXzXaXvXDXFXCXDXNXL = Z C / ~ ~ ' e e E ] h M ^ B b ",
"g c B @ b R B @ 6 R C 0 x g 5XwX8XbXVXxX9Xw.#.@.*.*.,.1.P.bXZXVXBXSXq.g ` C ~ / [ e w E ^ Z 0 q B C ",
"+ . o @ / [ R 9 # U U R 7 5XJXFXBXnXW.1.o.8.8.2.&.2.&.2.+.-.f.vXnXbXDXL g ] ^ R b e e E V ^ N x b b ",
"6 + + @ w 0 w C W U W E K HXKXJXCXv.o.2.7.%.O.K.h.u.5.<.2.2.+.4.aXvXBXCXf = h 5 q 9 R E ^ Z ^ C B q ",
"5 0 6 o O b ~ C T Q ! = 7XFXGXHXw.$.2.2.L.iX-.E.gX;X;X^.j.2.e.,.1.aXcXVXMX* g Z / 0 R R Q ' x x / B ",
"e 9 @ # % W S h R E k L vXcXnXf.7.9.5.uXdX;X}.f }.,X=X<X<XH.<.b.<.4.hXhXvXs.u S C b / ` Q / @ @ b 6 ",
"w 0 6 q O b S N C Z u 9XjXdXW.-.9.p.kX=X].[.<Xi.=.=X#X{.+X#XG.<.m.<.h.fXhXpXf A Z R / / / e @ @ 6 @ ",
"w w M x & W ^ Z E D P cXdX:X<.K.0.aX=X{.{.$XXX;X-...=X#X+X$XoXZ.4.m.,.~.fXaXf F S C Q R 0 5 x 0 x q ",
"U e x 6   b / E _ - g.kXdXx.e.e.qXyX[.{.oXZ.Z.:X0X< ..}.,X.X].oXx.j.b.j.:XsX:.u J M w b q q x 6 0 6 ",
"b b b + q + b T 5 * MXuXuXu.b.j.yXoX[.oXu.O.O.W.hXi.> p W.gX X'.G.<.V.6.&XfXpXf l R R W e q 6 6 x 0 ",
"b R o 5 M 0 9 0 o * f.lXA.x.v./.;XoXoXD.O.9.7.d.jXn.> < > a.jX&X*Xh.c.c.S.dXhX>.l [ W T 0 x j 6 q q ",
"U b + 7 o 5 0 @ . i f &XF.j.v.0X=X|.=X5.h._.P.d.jXn.: , a > a.rX*XZ.h.F.x.dXyXg.u Q b q 6 B b x x x ",
"&   . . t . 6 x = s.sXx.c.Q.p.tX=X|.*X<.D.~.p.Y.gXx.< , , 1 > =.~.*X5.Q.Z.*XyXR.- M 0 q M N B b x b ",
"b w + q V V O x D 4XhX;XF.m.v.tX}.#XG.u.D.G.3.rX1XS.< , , , a > ..T.j.m.Z.*XdXR.u x 5 q N Z B 0 6 6 ",
"b b B x M Z 6 6 G 4XyX=XG.j.L.).oX[.|.u.*Xx.u.yX,XG.< 1 1 1 < < > a -.Q.G.|.;XE.* h N C N x q # b 0 ",
"T b T B M E z h u g.fXXX*Xc.m.).oX[.XXi.4.u.:X;X;XyX..: , > ..n.v.a , Q.H.|.;XY.* N M B 0 9 e e 5 0 ",
"Y e b C E R 0 N G w.&X=X*Xx.n.).|..X[.oXS.uX;XS.A.rXqX3.4.T.1X=X-X~.-.A.|.=X^.a.i N x 6 9 U b b 9 b ",
"e b x M R R $ N G q.T.H.|.c.5._.G.|.{.{.[.=X}.u.9X-.jX1X,X<X#X'.|.&X1.Q.^.H.F.d.u x h 7 x C x B 6 b ",
"U b V x b v @ h - :.~.Z.H.H.1.6.A.|..X[.{.$X}.;.rX;.1X@X+X%X].'.'.3.4._.H.D.~.0.= w b 0 x C c N 6 x ",
"z @ e M b w z ^ F f T.D.D.*Xj.X.).G.}.XX{.{.oX}.;X}.$XOXOXOX].}.}.4.x.-XD.D.Q.-.- T R b w T ^ M x x ",
"n x B M x z v C H s L.D.N._./.p.).~.yX=X X[..XXXXX#XOX+X+X@X X*X*XZ.c.*XJ.V.Q...g R C B I e Q q 6 # ",
"x C V q U R R C M 3 9.C.N.J.T.d.iXE.uXuX=X=X[..XXXXX$X+X@X X`.&X-XA.u.^.V.I.P.> l n x B R 9 q 6 q x ",
"v C M q Q W T R b - X.!.C.V.I.O.P.Y.cXaXuXgX,X=X1X1X<X<X2X=X&XA.T.+.h.^.6.b.w.3 J ) C B ^ w x b b C ",
"b b 6 C E x v w b H > 2.z.C.I.t.} 1.iXvXrXcXcXcXmXmXcXlX>XhX-X3.} <.I.,.e.T.a G E [ b R Z x T T C R ",
") % e E 7 B T W R V s ..<.z.B.!.U.o.-.R.f.BXBXZX9XbXVXvXE.L.5.X.v.(.2.b.qX7.p K E ) b Q E B R R C R ",
"e w b x x x T U Y M F d 7./.B.l.^.tX1.| +.eXqXzXP.eXiXqX9.} X./.0Xk.z./.K.a G J ^ C 0 0 7 q T / / ' ",
"o / b R R ^ B b Q R A 3 d K.I.l.k.!.0XU.,.} +.X.X.o.X.X.o.b._._.l.M.F.L...3 H Z ^ c C E V b 0 6 b x ",
"e 5 B R R b R b R C C H 3 #.L.!.M.l.B._.tXQ.h.u.n.h.v.m.(.0XV.k.M.N.I.O.p H E T R 0 V E E ^ ^ ~ b 0 ",
"' 9 + ^ b ^ ^ B c x v x - > @.b.!.B.z.k.N.^.^.-XuXuX_._.C.z.M.B.C.V.$.a G _ B R b 0 E ^ Z Z C C / Q ",
"T w 5 x b b B q x C ( ( V - 2 @.t.!.V.l.l.r.k.k.k.z.r.r.z.k.b.U.b.+.a G J C T b 0 w Q Q E C C E b b ",
"w e ' B 6 b @ E Z S ( ^ B 8 y 4 | $.b.(.C.C.B.z.B.M.B.C.e.o.,.8. .2 3 H V C C T U e R T ^ Q B x b C ",
"e R ^ / T T R ( Z V ` ^ R C 7 F 4 a  .%.8.t.U.I.I.I.V.b.2.| @.a 3 3 r V b N C b T 0 U / ) b 6 5 b B ",
"R ( E E R R R / B V ] ` ^ / M V F s 3 2 , , o.$.$.$.%.o.| 1 4 s F r Z C c N C B B B w U U R x x 6 6 ",
"n ( Q Q Q / / ( B E ' ` R ~ n z S A F F y 3 4 d d d 4 3 G y l A V B C N c n B B M C b $ U R E E E R ",
"j ( ^ / E Q ^ ( W _ ' _ R ~ Y $ z C N M A F F y G ; t t r V B q b b N c n B x V V B b v R R Q Q / Q ",
"x ( ^ Q Q ^ ^ / R Q / ' ^ ^ ( n % b b b V A A k r 7 M q + + . q c c c c C T M M E C b T x N C E R T ",
"0 R / / E ` ^ ( b Y R / ` ^ ^ R U U z x c N N M 5 q b x b x @ N C N C b b T B B C B T R b B E E b b ",
"q b / ^ C ` ^ ( m m m N ^ ` E E ` ' T 6 # C Q 0 5 B x B b 0 0 q N B T U b b C C B B E R Q B E E B C ",
"Q b R B x ' ^ ^ n m z c Z ' E ` M e b b w % 0 9 T B C n z R q o N B T U 0 b R R C R C E C b x ^ C R ",
"R R B C R x b C b C R C B x B b M e B R T q   O R R B C T C B 5 B C C b w 5 B B R R R ^ b 0 x C R R ",
"R R b C R b b R R R ^ ^ R 0 b T R B R R R B O + b R C C C R C @ 0 E q + 0 O O 0 5 q b b 0 b R R R R "
};
