/* XPM */
static char *image_removebg_preview__2_1706303854[] = {
/* columns rows colors chars-per-pixel */
"50 50 119 2 ",
"   c #010101",
".  c #080705",
"X  c #060807",
"o  c #0C0A07",
"O  c #070908",
"+  c #0C0C0B",
"@  c #110E0B",
"#  c #14110D",
"$  c #1A150F",
"%  c #0F0F11",
"&  c #0F1111",
"*  c #141413",
"=  c #1A1612",
"-  c #171813",
";  c #1C1A16",
":  c #161618",
">  c #17181A",
",  c #1C1C1B",
"<  c #211E1A",
"1  c #1E201F",
"2  c #24211D",
"3  c #2C241C",
"4  c #352A1F",
"5  c #1E1F21",
"6  c #1F2120",
"7  c #242424",
"8  c #292723",
"9  c #262827",
"0  c #2D2A25",
"q  c #262628",
"w  c #2C2B2B",
"e  c #332C25",
"r  c #392E25",
"t  c #332E2A",
"y  c #2E302F",
"u  c #3A3126",
"i  c #35322D",
"p  c #3C332B",
"a  c #3F382E",
"s  c #2F3131",
"d  c #343433",
"f  c #3A3633",
"g  c #363836",
"h  c #3D3935",
"j  c #373939",
"k  c #3B3B3B",
"l  c #41362C",
"z  c #43392E",
"x  c #483C2E",
"c  c #403730",
"v  c #453C33",
"b  c #493E34",
"n  c #443E3A",
"m  c #483F38",
"M  c #474036",
"N  c #4B4136",
"B  c #45413D",
"V  c #4C443B",
"C  c #4E483F",
"Z  c #51463C",
"A  c #52493E",
"S  c #3E3F41",
"D  c #444443",
"F  c #4C4641",
"G  c #464845",
"H  c #4D4944",
"J  c #474749",
"K  c #474948",
"L  c #4C4C4B",
"P  c #514740",
"I  c #554C43",
"U  c #594E44",
"Y  c #524E4B",
"T  c #584F48",
"R  c #565047",
"E  c #5A5046",
"W  c #54514D",
"Q  c #5C534B",
"!  c #4E4F51",
"~  c #514F50",
"^  c #4F5052",
"/  c #545353",
"(  c #5A5652",
")  c #565857",
"_  c #5B5956",
"`  c #555658",
"'  c #5D5C5B",
"]  c #60564C",
"[  c #61584F",
"{  c #635C54",
"}  c #615E5A",
"|  c #63615D",
" . c #5D5E60",
".. c #5F6160",
"X. c #646463",
"o. c #686664",
"O. c #6B6965",
"+. c #67686A",
"@. c #6C6C6B",
"#. c #706E6B",
"$. c #72716E",
"%. c #6D6E70",
"&. c #737272",
"*. c #797673",
"=. c #7A7A77",
"-. c #767779",
";. c #7B7B7A",
":. c #837F7C",
">. c #82817D",
",. c #858482",
"<. c #888783",
"1. c #898986",
"2. c gray55",
"3. c #908E8F",
"4. c #959596",
"5. c #989590",
"6. c #999997",
"7. c #9E9E9C",
"8. c #A1A09E",
/* pixels */
"U U I I U U I A I l b Z U Z P Q W Q L Y _ W W W K ) ..) G B g g B V V v N F N v x l A N Z A A A A A ",
"Q R I P I I A Z b r b U I I F V L W n f &.#.W #.o.8.7.6.2...G W / v G N f b E v A l M A Z Z A A E A ",
"I I U R E A b l x Z P P I T ( Y | _ $.W _ #.W W ) ;.=.;.%...4.$.W n v { P b V N Z x z A Z Z A A E A ",
"u v N b l l l Z Z N Q I F U v G o.#.=.' L | / D B =.;.$...G 2.K :.5.Y F P V i z Z A x M A A Z N Z N ",
"m b l x x m U U N m I E | C - 0 _ #.| | | O.) h L 1.;.@.' G *.J #.<.O.O.F V { V x C Z b Z Z Z N N N ",
"b b b b b b b b Z B R | E W ( # H o.' o.| #.#.G W >.@.@.) +.@.D X./ } *.$.G Q T v a V m b V U A A A ",
"Z Z x b Z A A U P V _ H H O.*.f 0 W ' o.#.*.#.G D ;.@.&.^ +.' L ` J @.;.*.V v Y | N p v b V E A A A ",
"b Z Z b b b b m C M M B _ W _ ' 9 k | X./ k d 1 7 G L X.j L ! / Y / &.} o.D , P Q U v U U Z A ] A A ",
"x Z Z x l l l n F ] d t h B ) ..g 9 D D d * . . . + * * : 7 g J D %.&./ / f t t F n m E E Z b E A A ",
"x N x x P T Q r P n ~ n k L ) ) S 2 2 - #                 X * , L %.+.` D w D / 0 V n E U ] b l A A ",
"r 4 4 l T [ F F n = t D ! ) ' X.g * +                       . X w ! ~ J j w ' :.Y e B U U Z E A N N ",
"x l x 4 l c l ( t 3 < 8 B O.' g - .                               7 k G f L *.:.O.< F E U E ] N A N ",
"x x l r 4 P ] f t ( J 8 7 Y G *                                     , d d +.,.@.| e h Q I Q N Z A A ",
"x l l b r T ~ t n _ @.' D d ,                                   X   X * g $.+._ T | N G Q ( u p Z x ",
"x l b b e I F } @.| @.| L 7 o                                         X g o.' _ =.$.v i Q M u u l r ",
"x b b b e ( ~ c ( &.:.O.h %                                             < X.1.<.#./ B t v p V x M M ",
"V N V v 3 Q G B Y ! ' +.7 %                                     X     . + Y 3.@.X._ Y 7 0 V b v M x ",
"N A N p f i t Y / / ' G *                                           X     d +.@.o...L < i V x x x x ",
"A A p p R i 2 B / '  .d +                                                 < k ~ J d 7 = e b b x b b ",
"A A u z F h 2 0 g k D w                                                 . + @ * : % < e 0 N V x b M ",
"v x e a v i ; < , < , ,                                                     + , t L Y D < Z V Z N N ",
"u 4 3 u h e < d k d 7 :                                                     < S -.;.@./ $ m Z V N M ",
"N N v M B i Y O.X.X.g +                                                     % k ;.X.X./ = N Z v x z ",
"N Z M C B V | _ +.=.k                                               .       + J %. ._ n $ v b a N b ",
"V Z I A V i i d S / q     .                                               .   g D g g 1 @ h N N p b ",
"Z I N C ( | _ @.&.X.D                                               O       + ' -.+.O.( v v A V z V ",
"b v v H Y W Q _  . .S                                                       # X.%.+...K g e I V z C ",
"Z N U E U G Y D / %.s   X                                                   + L ` ..B k f i I C z N ",
"v v v v P n J L X.%.q   X                                                   O J ^ ^ D K h e I V v v ",
"N V n N n t h B J s :                                                       % S S S L G y e Q C N N ",
"V N P P u @ * = 5 + % X                                                     X 7 7 7 j 9 , i C z a a ",
"Z I P m n o o : * 5 %     X                                                   : & & & + # v a v N C ",
"Z m V V D o = < 7 5 *                                                       . , , 5 , * # h A A A A ",
"Z Z p E V < < h h g ,                                                     . % w k ` X.G - N A A A A ",
"Q l V V n e t G  .' q         .                                       X     + j +.;.@.' 2 b I A A U ",
"x m V H n t t D +.X.5     X                                     X     X     + J  .X.^ W ; a E I ] Q ",
"r U P P G 8 w n ' / ,                                                       X d J g D d # B v x N m ",
"b l V U b < e e k g %                                                   .   . w s 7 d f ; U U U v x ",
"Q b r { m h O.o.X.D ,                                   . .   . O   X X .   + Y +.X.' ' 7 V P E ] E ",
"I l f m D @ < 7 , * *                         .   X X .   X X X O O + X . . + D / ^ K B - R I U A V ",
"v v [ m t @ , i d d :                   X   .   . X . O + + + + O + + + @   , g j D D i # H E V V Z ",
"v Z T Q m < T o.X.' w       X   .     X X O . O O + + + + % % % & * + * : . + q 6 s w ; # N N z A A ",
"Z ] T T m w ( _ ' ` q       X     X . X O O % @ + % * % * * : = * > , : = # * j ` ^ k 9 $ a v z v m ",
"U U T ( m < 8 w d s %   .     X   . X + % + % % * : : , , , , 5 1 1 , , 7 , X 0 L j s g - H Q N N N ",
"Z Q ] U m T @.#.1.&.w .     . O + + + @ * * : : , , 5 7 7 7 q q 9 w y w 9 < : / 4.&.*.1.h b I Q E U ",
"Z T U ( F k ( _ +...q     O O O + + * : : , < 5 7 7 q w w w t s d y y d g 2 + k +.X.) _ 2 C E A E U ",
"m ] I T F n ' / / ' w   . O + + * * = , 5 7 q w w s d g g j j k k S S S S 9 > D ` ../ L 2 F U I A A ",
"v U T ( m t Y _ J L ,   . + % : : , 5 7 q w s d j k n S S D D D K G K G L i , s ^ ) L G ; b U U Z V ",
"b b ] T P < f L n s : . . + * , 5 7 q w s d j k D D D J J L L ! ! ^ W / W g , w J D J d ; b I E A A ",
"U Z P Z n @ = < : : +   O % : , 7 7 w s f k S D J J L ~ Y ~ / / / ) ) ) ) h 6 w 9 9 w 9 ; V I Q A A "
};
