/* XPM */
static char *_0d984067ea6450ab40ba4cc33e1b4ce6bByHitJOZRJoQJl[] = {
/* columns rows colors chars-per-pixel */
"50 50 247 2 ",
"   c #0E0700",
".  c #170500",
"X  c #1C1403",
"o  c #1C1A07",
"O  c #1E1717",
"+  c #240800",
"@  c #211C02",
"#  c #271A06",
"$  c #351D06",
"%  c #241D17",
"&  c #3B0D00",
"*  c #1E260A",
"=  c #252302",
"-  c #2B2400",
";  c #2C250C",
":  c #282A09",
">  c #32230A",
",  c #362C0B",
"<  c #373308",
"1  c #2C2414",
"2  c #2D2815",
"3  c #2C261C",
"4  c #28271A",
"5  c #342B1C",
"6  c #3B2C1C",
"7  c #342914",
"8  c #2E3515",
"9  c #3A3415",
"0  c #3B3B16",
"q  c #34321D",
"w  c #39331C",
"e  c #373817",
"r  c #2B3907",
"t  c #2D2923",
"y  c #2C2827",
"u  c #342D23",
"i  c #3A2E24",
"p  c #362C2C",
"a  c #343324",
"s  c #3B3324",
"d  c #3D342B",
"f  c #3A3928",
"g  c #3C3632",
"h  c #4B1D12",
"j  c #452A1A",
"k  c #463A1A",
"l  c #532E14",
"z  c #642B0F",
"x  c #412F2C",
"c  c #423B25",
"v  c #41352C",
"b  c #433A2D",
"n  c #4B3B2C",
"m  c #473826",
"M  c #563A29",
"N  c #453C33",
"B  c #493E34",
"V  c #443B3B",
"C  c #4A3D3A",
"Z  c #443537",
"A  c #58342A",
"S  c #623E2B",
"D  c #613C34",
"F  c #3E4319",
"G  c #3E4035",
"H  c #3F4328",
"J  c #484A19",
"K  c #4C4E11",
"L  c #46412E",
"P  c #4A432A",
"I  c #494624",
"U  c #56482A",
"Y  c #58532B",
"T  c #464233",
"R  c #4B4235",
"E  c #4D443A",
"W  c #4D4A3C",
"Q  c #4A4937",
"!  c #534535",
"~  c #544A36",
"^  c #52463C",
"/  c #534A3D",
"(  c #5A4D3B",
")  c #5C4A35",
"_  c #5A533D",
"`  c #585634",
"'  c #4E5126",
"]  c #664A36",
"[  c #655B37",
"{  c #765639",
"}  c #63472F",
"|  c #5D6437",
" . c #646734",
".. c #79723D",
"X. c #786D3F",
"o. c #6E4215",
"O. c #483A42",
"+. c #4D4541",
"@. c #4F4A42",
"#. c #534641",
"$. c #554B42",
"%. c #5A4D44",
"&. c #554D49",
"*. c #594E49",
"=. c #584740",
"-. c #555242",
";. c #5B5245",
":. c #5E5942",
">. c #5D534A",
",. c #5A574A",
"<. c #5C5556",
"1. c #594F50",
"2. c #644E47",
"3. c #63554A",
"4. c #61594C",
"5. c #655943",
"6. c #795A47",
"7. c #645A51",
"8. c #645957",
"9. c #795A55",
"0. c #6E6A45",
"q. c #696449",
"w. c #776947",
"e. c #6E7549",
"r. c #7B7649",
"t. c #6A6453",
"y. c #756953",
"u. c #7A7658",
"i. c #6F7553",
"p. c #736E63",
"a. c #893E29",
"s. c #934F3B",
"d. c #816B3C",
"f. c #8B5649",
"g. c #B0564D",
"h. c #87654A",
"j. c #896955",
"k. c #946951",
"l. c #887757",
"z. c #96755D",
"x. c #8A764E",
"c. c #A66155",
"v. c #8A6E61",
"b. c #8B7966",
"n. c #967863",
"m. c #7D845A",
"M. c #858138",
"N. c #898645",
"B. c #8A8757",
"V. c #98895A",
"C. c #99955B",
"Z. c #8E9153",
"A. c #A1915F",
"S. c #8D8A64",
"D. c #8A8668",
"F. c #968866",
"G. c #999666",
"H. c #8F8A79",
"J. c #988772",
"K. c #9A9477",
"L. c #8D9365",
"P. c #A59769",
"I. c #A39C7A",
"U. c #A99977",
"Y. c #B79C7C",
"T. c #A58466",
"R. c #ACAA75",
"E. c #B3A576",
"W. c #B2B17E",
"Q. c #B3AD67",
"!. c #C2A265",
"~. c #DAD476",
"^. c #D6CC74",
"/. c #E2D47C",
"(. c #E6E37C",
"). c #979288",
"_. c #A79983",
"`. c #B19582",
"'. c #AAA389",
"]. c #BBA683",
"[. c #B4AD8D",
"{. c #B6A787",
"}. c #BBB68A",
"|. c #B7AB94",
" X c #BAB694",
".X c #BBB4A1",
"XX c #C8A886",
"oX c #C8B58A",
"OX c #C7AE92",
"+X c #C5BB9A",
"@X c #D4B897",
"#X c #DBB989",
"$X c #CFB9AC",
"%X c #DCD485",
"&X c #CAC296",
"*X c #D8C99C",
"=X c #D6CB8F",
"-X c #E2D684",
";X c #EDCD9D",
":X c #E3C79C",
">X c #E7D89B",
",X c #F3D79D",
"<X c #E9E797",
"1X c #ECE495",
"2X c #CBC5A4",
"3X c #D6C9A8",
"4X c #DBD5B4",
"5X c #D6D1B3",
"6X c #D8D4B5",
"7X c #EBCEA7",
"8X c #EBD4A9",
"9X c #F5D5A5",
"0X c #F3D4AB",
"qX c #F7D9A6",
"wX c #E8D8B4",
"eX c #F4DDB3",
"rX c #FCDDB3",
"tX c #F7DAB8",
"yX c #E9CCB0",
"uX c #F7E5AA",
"iX c #EEECBB",
"pX c #E9E6B7",
"aX c #FEE4BB",
"sX c #F1EEBC",
"dX c #F5E4B8",
"fX c #F2F1B6",
"gX c #F7F4BE",
"hX c #F6F4BC",
"jX c #F9F5BD",
"kX c #FAF9BF",
"lX c #FBF8B6",
"zX c #EAE8AA",
"xX c #EAE6C6",
"cX c #F2EDC5",
"vX c #FEEDC4",
"bX c #F6E7C9",
"nX c #F5F3C2",
"mX c #F8F5C2",
"MX c #FBFAC3",
"NX c #F9F6CA",
"BX c #FDFACB",
"VX c #F6F5C9",
"CX c #F9F6D2",
"ZX c #FEFCD4",
"AX c #FFFCDA",
"SX c #F7F2D9",
"DX c #FCFAE1",
/* pixels */
"b R $.^ ^ / R v N E *.$.d N *.#.1.+.V +.$.N u 5 q s b f s b $.-./ Q $.%.E +.#.E N ^ / R R B N N E B ",
"B ^ *./ E / / ^ B v u N $.7.^ >.$.8.d 3 2 b b.D.u.y.q.:.~ L s 2 Q / / $.E E E $.^ v v R E ^ $.E N b ",
"N ^ $.$.^ ^ / / $.E s >.>.;.$.-._ 7 P D.3XCXAXZXBXZXZXZXZXZX3XS.k 7 E -.$./ #.E %.N N / ^ E ^ ^ E E ",
"^ *.$.*./ E / ^ E N R B / / 4.( , I.cXBXBXmXiXhXmXiXfXmXmXnXBXZXcXI.w @ s T b b N R E / %.^ E $.^ E ",
"*.*.^ $.$./ %./ $.b E c W E ( ;  XNXBXhXmXfXkXfXhXhXhXhXgXjXgXsXNXZXCXK.7 q T 5 d N R / / / ^ / $./ ",
"*.*.$.%.*.$./ E R s R -./ _ w y.ZXsXmXgXsXjXjXhXhXjXjXhXhXgXgXgXhXsXVXZX2Xw E E E b R / ^ ^ / ^ / / ",
"*.*.>.*.$.^ B N N N $./ / ~ w xXVXmXmXgXmXjXfXkXfXjXkXjXmXgXhXmXfXmXnXcXAXy.w Q / N N / E ^ $./ $.$.",
"v b E B b N N R E E %.$.,.2 K.AXnXmXmXhXhXgXhXgXjXjXhXfXgXgXhXhXkXfXmXnXZX5X; L / E N B $.$.E R E R ",
"R B b v R R ^ $.E N *.;./ f SXCXnXfXjXhXgXgXgXhXhXhXhXhXhXgXgXhXhXjXkXnXcXAX_ L b $.E E E $.B ^ E R ",
"R R ^ R E E $.E #.E $.,.5 ).DXxXmXjXhXhXhXjXhXhXhXhXhXhXhXhXgXhXfXjXgXnXNXZXD.c ;.N N Z B E *.%.$.^ ",
"B B ^ R B B ^ #.E N %./ s SX|.S.BXjXfXhXjXjXgXhXhXhXhXhXgXhXgXhXjXkXfXBXiXAX[.2 t.%.d $.*.B 3.*./ ^ ",
"R E R b d d N B N d / 5 :.I.`  XBXjXfXgXjXgXhXgXgXgXgXgXgXgXgXgXjXjXgXMXmXBX2Xw 4.N N >.>.$.N *.^ E ",
"b N d b $.7.$.b d / c w 2XpX}.sXmXhXhXmXmXhXhXmXgXgXgXgXgXgXgXgXgXfXgXsX}.4X4X9 t.T E E #.7.^ N $./ ",
"d s u d E $.R b -.5 P xXZXBXmXmXhXhXgXmXmXhXnXmXmXgXgXgXgXgXgXgXgXkXBXR.r.{.xX= c s E >.>.^ %.^ E B ",
"N v v d u b $.,.1 q.SXCXVXmXhXhXfXhXgXgXgXhXgXgXgXgXgXgXgXgXgXgXfXgXgXhXhXsXCX X7 2 >.;.$.>.^ ^ %.E ",
"E N d d d ;./ # u.AXCXVXcXhXhXfXhXgXgXhXhXgXgXjXjXjXjXjXgXgXhXhXmXfXgXkXhXmXVXZX4XP w ,.>.>.b v / N ",
"V N Z B d E q K.ZXnXiXVXNXBXZXZXZXBXjXfXfXfXkXjXkXkXjXfXgXmXfXkXgXfXkXfXgXkXfXfXMXBX0.; >.E s s d d ",
"Z E E B 5 L W DXCXZXZXNXpX}.l.[ F.wXBXZXBXBXsXiXsXgXmXBXBXmXmXhXhXnXfXmXfXpXMXhXfXfXZXK.o d E b E R ",
"#.E E n 5 R b / |.2XD. .J < F.oXr.U y. XK.0.` Y ` Y [ [ B.NXZXNXBXZXCXZXNXZXVXiXmXnXnXAX5Xu b N N b ",
"^ R L v E 3 E d X # =  XW.r.vX*XvXwXI.[ l.U.&X3X&X2X+X+Xl.U {.bX3X'.l.Y I  XZXZXcXAXZXxX.Xd N B R B ",
"^ ( 6 c R +.V O.C 6 Y MXR...vXl.5.&XeXeXeXaX8X8XeXeXyX@XoX].{ ) ) > P.G.@ 7 q.4XAX2Xu.c # s E b B B ",
"s v 1 c s % Z O.x n I VXG.B.dXOX  @ 8X8X0XXX7X9XrXXX$ # T.eXtX3X{.r.lXA.- '. X` P X o c / / E / R R ",
"n 5 s s b W p C 3.! ; t.= B.mXh.  n F.{ { h.0X0X9X7X+ . E.dX:XdXU.w.kXN.@ +X2X0.1 >.3 N / / E L R B ",
"! ^ E Q L f N N 3.6 a   i.J 8X7X`.J.w.tXtXtX0X0XrXaXk.] :X0X9XuXU.r.lXM.- }.&X` g 8.% +.$.W Q f B N ",
"^ E #.Q e 0 5 E >.d y % m. .x.aXtX8Xx.x.d.oXrX7XT.Y.aXrX9X9X;XuX].X.lXM.- [.&X9 #.p p #.g N b R v N ",
"^ ^ +.q | m.o E 7.&.% 4 *  .[ 8X7XrX@Xx.P.XXY.6.z.h.#X,X,X;X9XqX3X[ lXZ.- +XK.@ 8.y p Z N T / R b E ",
"B R / f ` | 1 T $.>.y f r | [ eXqX;X6.v.6.6.9.j.n.f.;X9X9X;X,XuX{.; iXW.X d 5 ,.>.&.O C E R R / b E ",
"R T E s ` e : Q W @.G o r Z.9 w.0XvX`.2.2.9.9.6.j.@XrX7X0XaXeXV.1 5 I P u V >.*.a o E E B ^ %.E b R ",
"L R C N '  .= 8 <.g a 8 K C., 7 m J.4X3X$X`.`.yXtXaXeXtXwX_.n 5 >.4.N @.8.<.>.>.t E $.E v ^ *.E N N ",
"/ B #.E = r.B.o a t q e Z.J o 3.b . # U b.U + Y.].U.F.[ m X B 8.,.#.<.<.O.V &.d 3 / E R $.B R b b b ",
"E $.E R ~ : e.e.` e.L.e.F H 5 X 2._.> $ $ M n.l.) k 6 ! J.) ! 6 &.<.&.1.O % y t / -./ +.*.b n L / / ",
"E ^ b ! -.Q : 0 ' F < : q 1 t.|.bX|.M b.n.w.l.b.6.y.b.n 7 OXbXJ.s g 3 3 % +.>.,.;.,.-.#.&.E ! ~ ^ $.",
">.b ! / R E -.Q b w U 9 _ [.xXpXcXl.v.j h.`.$ 2.T.k.S A ] 3XdXdX3X5 a -.*.%.%.%.-.,.T -.*.^ %.^ / $.",
"B B B E E / E $.;.R b ( 4XxX3X}.r.5.9.D S } t.! { d.l f.6.z.F.dXbX3X2 Q / %.%.2.,.-.T b b N %.%.>.>.",
"i >.E *./ / / E $./ i 1 ~ ) m 9 X ) j.{ XX].'.K.F.0Xz.k.h.bXj ! .X'.a / %.=.C ^ $.T W -.%.^ B B N N ",
"E N N >./ ;.E $.$.E s ,.# n ~ P t.q.j l ].wXS.K.U.OXf.l l j.1 ).).4 T $.%.2.%.%.>.N / -.;.$./ *./ E ",
"7.N p $./ $.$.E N $.d p.d *.3.6 _.ZX&XB.r.w.w.Y U.y.) {.*X2X,.).p.a %.>.%.*.#.^ B b ;./ / ;.-.>.$./ ",
"C N #.N b R b R $.>.E 8.$.d *.n 9 }.sXBXZXBXBXAX+X[.|._.pX Xf a 5 %.B *.>.$.#.#.B B $.$.$.-./ ^ E E ",
"Z $.>.>.$.N E 4.$.%.%.N N N R s K.0.[ q.S.K.U.P._.;.:._.D.= o ~ n %.B E $.$.#.^ ^ R E ;.>./ N b / $.",
"*.>.$.$./ $.;.;.%.E 7.E N 4.s 5.}.Y l.I.e.0., , y.H.J.y.u.P OXXXA j 2./ E $.^ ^ ^ ^ N / / E B N v N ",
"/ 3.-.>.$.-.>.%.E %.>.,.,.,.w I.P.K V.*XB. XE.E.3XD.3Xw.M h c.s.c.A M -.Q W ^ ^ ! / B b / *.$.*.$.$.",
"R 3.( ( $.,.*.>.E >.>.-._ _ 9 }.>XQ./.%XR.r.C.G.F.R.>XC.w.z g.g.g.f.6 W Q W E ^ ^ / ^ R ^ *.;.*.;.;.",
"n 2.;.-.$.>.$.4.*.;.-./ _ _ 0 &X%X(.~./.%XN.< U P.>X%X-X,Xo.s.g.g.f.j Q -.T ! %./ / / / E ^ %.$.^ ^ ",
"n ( ,.-.%.>.%.4.B b ,._ _ [ 9 G.<X~.~.~.uXV.9 c k >X~.^.%X!.z a.s.h n Q Q W ^ ! / E ^ / ^ $.*.%.^ ^ ",
"^ R $./ %.>.>.>.^ $.b / ,._ ` 0 Z.=X%X,XU.> -.T ; l.<X1X1X1X=X{ & ] ! R b E >.%./ / / %.%.^ ^ >.$.$.",
"$.E $./ ^ ^ %.%.B E $.^ ^ / 4.c 9 r...U 6 v u a 3.6 ' N.Z.N.B.k U ) ! / N B E $.$.;.;.%.^ B B $.$./ ",
"*.$.E $.^ R R ^ ^ $.>.>.$.N E b 7 y.y.; _ -.4 u C %.~ @ 0.I.K.5 Q ;.R v Z i N N R Q / ^ B ! / $.$.$.",
"*.$.v *.%.;.R R / %.$.%.>.E B ! n t.% Q -.T T E x v d b 2 4./ % a g s C %.v N E N N R R B / >.E ^ ^ ",
"*.E / *.;.;./ ^ >.>.*.$./ B N E v s N / N b E E ! b R $.i b t.s v N E ^ $.E N $.$./ $.^ ^ $./ $.$.$.",
"$.B / $.$.$.E E ^ / ^ E R R E ^ E R E $.N v E R E / E R / v 1 ! ^ $./ ^ $.E N $.$./ $.^ ^ $./ $.$.$."
};
