/* XPM */
static char *_e869459146349bfa2b6d5414b23bed8WjRZU8ZMK6s9aZ6F[] = {
/* columns rows colors chars-per-pixel */
"50 50 43 1 ",
"  c #302723",
". c #342B26",
"X c #372E29",
"o c #382F2A",
"O c #373029",
"+ c #3C342D",
"@ c #3F382E",
"# c #3F3630",
"$ c #3F3931",
"% c #40372F",
"& c #40382E",
"* c #403730",
"= c #443C34",
"- c #473F38",
"; c #483F38",
": c #474036",
"> c #494237",
", c #474038",
"< c #4A413A",
"1 c #4C433A",
"2 c #4B443A",
"3 c #4C4438",
"4 c #4C443B",
"5 c #4B433C",
"6 c #4C433D",
"7 c #4D443C",
"8 c #4F483E",
"9 c #50473E",
"0 c #50483C",
"q c #51493F",
"w c #524A40",
"e c #544B43",
"r c #534C40",
"t c #544C42",
"y c #554D44",
"u c #584F46",
"i c #575045",
"p c #595147",
"a c #5A5248",
"s c #5B5349",
"d c #5C5448",
"f c #5C544A",
"g c #5F574C",
/* pixels */
"#=tq7q==4qtt<=wye<=14qqqqqwq=<4744qq441<=<7<====qw",
"=4wqqq7<====<wywty==4447747==777qqqt4474<=>=<77<=@",
"=qwwqqqqq=Owppytyy9;;<>>>:===qq4qqqwq4qqq==477774=",
"<twwwqwq7==7yypppywt7=>4<>>>@4qqq7<==>=>>=2wqqqq7<",
"ttwwwwwq7=7=<7taawwtw;=44<>>$::<======@O@><wtqqqqq",
"yywwytww7#;7wq9yuettyy==4444:@===>>>><4=:=<4qqqqqq",
"yttytt7===7wwwtq7wyyt7===4>44=<4>><<;=7<4=:q77qqtw",
"=<77<===<<ytwqtt<7w4<<7><===4<44<4444>==42=<qq7474",
"===@==<74=yytw77:<<2779<=77===<44444<<w7=44=4q<<>=",
"><4=<4477<yyty<4y7wwqwt7>77q7<=4<===4yuy7=;=>4wtq7",
">><>>><4q>wiyt==tq9q<4w<47qq4479q7;7wtypfw@<97ytq7",
">>4=&@=>:=442<qq<<4>=<7<744=477qwqwttytpf<<tp97tq7",
"===&qtw@*<74<7wi<@=<4944qq>=q7qwqtytyutpa<=tuu<<7q",
"@OO@qt4=<47777qt7<><44==<q@<qwq7qq7qqww7<=7ttuy9<>",
"=@@+O=7qwqqwwqwt7<7<=777<=X<qq=<==-<===<6=9ttpw4w<",
"=@@@+wt7wwqqwwtt<>=<wpfggy=:=O@=5ttwtwwtt7yytp==q=",
"====+qtqrtqqtqrt<=<typaafa<7=+<qttrwwwwttwppt4@O%+",
"==>=owitttt7477<=wtyypauaaw=77<tqtrewwwttttw=@====",
"4<>=.;ppt7=<7797ttwtypppfaw<wtqt7rtyytqttw1<=>===&",
"74=@=+<<@=7yayputttrwppat7<7wytw-wtpttqtttqw======",
"q4+@====O=<7<=777<==<7wt<=tyttpw747tppttppw4=<>==>",
"@@ @O #=$<wyywtw-<49ww7-<1qqyyyq7w<4tptt77<=<q4<>>",
"@OX@==@=ypaaapfgr7ypappw9eww7<7747q4<<<472=;qq4>==",
"4<<<4q==aaaapuftqyw7ttey7tyyt47<q7qqq=7q>><4q4>===",
"444qqq=<yppaapttaai7yyyt4wttt<=7qwqrq>><=744======",
"44<4qq<wapwpt7taafywptyywwtttw:qtqq4<=41<7>==><4=<",
"<<4qqq=7yy<<<waytyqqyyye<ewq47<><>=>4<4>>=>=<447=4",
"<=<<=:=7w7:<qtt4qpqyywtq=tqwqqw7q4477<4=>>7<:8q7=>",
">=><<=<yt<2rwtq4tp7wweyt=;<77<47ww4q4>7<<qq<=4t<==",
"474><qwqq=,w4wtqqq=====;X=74<waayq774>4=7427q=<===",
"777<twwt<4ww=4tw7=7wqt7=O<6qqtfypy1qw<<7ypqqt==>48",
"7<=ww47<1wwt7=t<;7ttwtyw<77=<tptttttptyapatwt<77qq",
"t=<4<2qqqqwtt==@7tttwty7=4w74q7twpttpyyppa1qw7wwwt",
"=<777qqqwqqtw=77<=9tq<9>7q<=,2<=<7<7qqwppy====7wyp",
"#77twwq7wwqr7=qq7<<<<==472==wwt7w7<qrtwwt<weww<6<=",
"q==ywwwww447=<wq497<=<27<:<<2w<7y7wttteww=wyyyttw9",
"t=#<qwq<<4ty47wwqq44=277:>77==:<74qypyw7=;ytyyttt7",
"==y6=;=7wafaw<77qqq7<<747=7q=4747w4tytq7<=ttttt74q",
"-yyyw7wattfay7=7qqq7<47q7=47<q78q7<79q877<4yy7==<q",
"ypyytyyatwfppy1qtqq4447q7*=q77qq44qw777777>7q77>==",
"qappypap7pfppyq=wqq747qqq>.=qqq4<4ww777747<=qtttyt",
"<apyyappwappyyt==q4444q47=O+====<7qq7747qq417tttyy",
"<pyyyapfqwpppppt;>=444q4=#<>=*+<q7q4qq79wwqq<wytw7",
">qpppppf8,7ypppyyt4=>qq>@<44<<=<qqq>>qqqqqwqw7ttq9",
"w4wqwpfp87<4ppppwq4<==>=<qq747=%7q41=4wwqwtew79tww",
"tqww7<7w4wtq77q7<<4w7= owwqqqq4@4q44==4qwwtt7=<www",
"tw<wtq47qtyit=:wwqwqt7+@=77<1q4O=q===+@===7<=4twww",
"tw<yyy74ytpyy<=7qqw7w==4=+#=@OO+X+=4q=<97<744qwqwq",
"w77ytyw4tpyq7=<477<<==<<<<474@@9><77q4=qqqq879qwtt",
"t@qt777747<<2<47748r==4>444797*<7qq7q4>wwww77qqwwy"
};
