/* XPM */
static char *ac74d294940a4309b37ae9eb9c0c20d78kK59KqFdud89qeM[] = {
/* columns rows colors chars-per-pixel */
"50 50 202 2 ",
"   c #4E4E4E",
".  c #524F4E",
"X  c #54514E",
"o  c #5C544E",
"O  c #5E584F",
"+  c #4F4F50",
"@  c #555352",
"#  c #5B5651",
"$  c #5D5954",
"%  c #5F5C5A",
"&  c #62554E",
"*  c #6A564D",
"=  c #655A4E",
"-  c #6B5C4F",
";  c #625751",
":  c #635B54",
">  c #6B5B52",
",  c #625E5B",
"<  c #695F5B",
"1  c #725D54",
"2  c #795E53",
"3  c #6E604F",
"4  c #73624D",
"5  c #7D6A4F",
"6  c #656157",
"7  c #6C6153",
"8  c #65615B",
"9  c #6A645B",
"0  c #6E695C",
"q  c #756354",
"w  c #7C6356",
"e  c #7D6A52",
"r  c #746459",
"t  c #7C6559",
"y  c #736C5D",
"u  c #796D5B",
"i  c #7C725E",
"p  c #656361",
"a  c #6B6561",
"s  c #6D6A66",
"d  c #736C62",
"f  c #756B65",
"g  c #7A6F63",
"h  c #736E69",
"j  c #767062",
"k  c #7C7362",
"l  c #77726C",
"z  c #7A736D",
"x  c #7D7772",
"c  c #825F50",
"v  c #816B4E",
"b  c #826455",
"n  c #816D53",
"m  c #826659",
"M  c #896759",
"N  c #85695A",
"B  c #8C6B5B",
"V  c #926C5B",
"C  c #996D5A",
"Z  c #8B7354",
"A  c #80725B",
"S  c #8C7558",
"D  c #9B7D56",
"F  c #94715E",
"G  c #9B715E",
"H  c #957A58",
"J  c #A06F5A",
"K  c #A3735F",
"L  c #AF785F",
"P  c #926F60",
"I  c #807664",
"U  c #847A66",
"Y  c #897D66",
"T  c #82746B",
"R  c #847C69",
"E  c #897E6A",
"W  c #967360",
"Q  c #9A7562",
"!  c #9E7965",
"~  c #807A74",
"^  c #847E79",
"/  c #A47561",
"(  c #A87763",
")  c #A37A66",
"_  c #AD7A63",
"`  c #A57E6A",
"'  c #B47D65",
"]  c #B77F67",
"[  c #9F835F",
"{  c #A3845A",
"}  c #A9865A",
"|  c #AE8A5D",
" . c #B38D5E",
".. c #8D836C",
"X. c #988464",
"o. c #91866D",
"O. c #958A6E",
"+. c #898277",
"@. c #8A837D",
"#. c #948A72",
"$. c #9A8E72",
"%. c #9D9175",
"&. c #9D9378",
"*. c #A58864",
"=. c #AA8961",
"-. c #A7806C",
";. c #A9816D",
":. c #BC8269",
">. c #AF916D",
",. c #B69263",
"<. c #BD9562",
"1. c #BF9967",
"2. c #B4946C",
"3. c #B99669",
"4. c #BD9A6E",
"5. c #A19576",
"6. c #A79876",
"7. c #A2967A",
"8. c #A5997B",
"9. c #AA9D7C",
"0. c #B09D70",
"q. c #B2A47F",
"w. c #C3856A",
"e. c #C7886B",
"r. c #CD8C6E",
"t. c #D08C6F",
"y. c #C49A65",
"u. c #CA9E66",
"i. c #C49D6A",
"p. c #CB9F69",
"a. c #CE8C70",
"s. c #D18E71",
"d. c #C29F71",
"f. c #D49173",
"g. c #DA9476",
"h. c #DE9778",
"j. c #DF9879",
"k. c #E29A7B",
"l. c #C7A16F",
"z. c #CDA26C",
"x. c #D0A46C",
"c. c #C5A273",
"v. c #CCA674",
"b. c #CFA977",
"n. c #CFA979",
"m. c #D0A671",
"M. c #D1AA76",
"N. c #D1AB7A",
"B. c #8D8780",
"V. c #938C85",
"C. c #978F88",
"Z. c #97918A",
"A. c #9C948C",
"S. c #A79B88",
"D. c #A49B93",
"F. c #A99F97",
"G. c #ADA180",
"H. c #B1A584",
"J. c #B6A884",
"K. c #BBAC83",
"L. c #B6AB89",
"P. c #BBAE8A",
"I. c #BEB18A",
"U. c #ABA39A",
"Y. c #ADA39B",
"T. c #B1A69E",
"R. c #B3A89F",
"E. c #B5AAA2",
"W. c #B9AEA5",
"Q. c #BCB1A7",
"!. c #BDB2A9",
"~. c #C2B285",
"^. c #C3B48B",
"/. c #CDBC8C",
"(. c #D1BF8D",
"). c #C7B991",
"_. c #CBBD92",
"`. c #D0BF92",
"'. c #C1B6AE",
"]. c #C2B8AF",
"[. c #D4C18D",
"{. c #D8C58E",
"}. c #CEC097",
"|. c #D5C392",
" X c #D8C693",
".X c #DDCB95",
"XX c #D4C59A",
"oX c #D7C99D",
"OX c #DCCC9C",
"+X c #DFD09D",
"@X c #E0CE97",
"#X c #E1CF9A",
"$X c #E5D39B",
"%X c #E9D69E",
"&X c #DDCFA1",
"*X c #E5D5A4",
"=X c #E8D7A2",
"-X c #E8D9A6",
";X c #E7D7A8",
":X c #E7D9A8",
">X c #E9DBAA",
",X c #EDE0B0",
/* pixels */
"| z.x.x.x.x.x.z.y.z.x.x.x.} k *X>X>X>X,X>X>X>X>X>X>X-XOX*XoXy u OX$X$X$X$X$X$X$X$X#X$X$X%X$X.X$X$XO.",
"Z y.x.x.x.z.x.u.y.u.p.z.u.Z y &X>X>X>X*XOX*X>X>X>X>X>X#X*XOXg 7 [.$X$X$X$X%X$X$X$X$X$X$X%X%X%X%X Xi ",
"4 } ,.,. .} { H Z 5 e n 5 o 9 &X>X-X*X|.[..X>X>X>X>X>X>X*X|.I $ 0.@X@X{.[.[.[..X.X X[././.~.K.~.O.@ ",
"X o o o o X X > w B G G M & : _.-X$X$X X.X#X*X-X>X-X-X-X-XoXU . r X.X.A u u y y y 9 6 : : ; O # X . ",
"B B N q X   1 ] a.h.k.h.g.] > K.%X%X$X$X$X$X$X$X$X$X$X$X$X.XU   u 2.2.2.2.>.S o . ; q t m m M b M B ",
"-.-.;.) b . 2 s.k.k.k.k.h.s.> %.$X$X$X$X$X$X$X.X$X$X$X$X$X.XU - 4.N.M.N.N.N.v.Z o Q -.-.;.;.-.` ` -.",
"` ` -.;.Q X w f.f.k.k.k.g.e.; ...X$X$X$X$X$X|. X$X%X$X$X$X.XU n v.b.v.M.M.v.M.H & Q ` ` ` ` ` ` ` ` ",
") ` ` ;.! o M g.g.k.k.k.k.:.o $..X.X.X$X$X$X$X$X%X%X$X.X$X.XE n v.M.N.n.v.M.M.S > ) -.! Q ` ` ` ;.` ",
"! ` ` ;.! o V s.s.f.g.g.g.] # 9.$X[.|.$X%X%X%X%X%X$X$X$X$X(.Y e z.z.m.l.z.x.z.Z w ` ` ) ` ;.;.;.;.) ",
") ) ) ) W o V s.r.f.f.f.f.] o O.$X$X$X%X$X$X$X$X$X$X$X$X$X(.U q u.u.z.z.z.u.x.S N ! Q ! ! ) ` ` ` ) ",
"Q Q Q Q F & M r.f.g.f.f.f._ X : 6.^..X$X$X$X$X$X$X.X.X$X(.6.9 3 y.x.x.z.z.y.,.e N Q F W Q Q Q Q Q Q ",
"Q Q Q Q F & & J ] ] _ ] ] b     # 0 I R E ..........Y U 9 @   o H { D S n q o X N Q F Q Q Q Q Q Q Q ",
"F B W Q B o 8 g T z f a 9 , p l ^ @.@.^ h @   ; t t t 1 q r ; . : #.O.I d k 9 X m Q Q Q Q Q Q Q Q Q ",
"F F Q Q B ; V.E.W.W.T.U.U.F.Y.Y.Q.!.!.Q.T.z X B ` ;.-.` ) ) F o #.*X*X*XOXOX^.: > W Q Q W V F Q Q Q ",
"Q Q Q Q b 8 U.E.Y.Q.!.Q.Q.Q.Q.R.Q.!.W.W.'.V.# Q ` ` ;.;.) ) ) > &.>X>X>X$XOX*Xk X b F Q Q Q Q Q Q Q ",
"b m M M * s Y.T.Y.E.E.E.W.E.W.W.W.W.E.T.E.C.$ W ! ) ` ;.;.;.` > 8.*XOX>X-X>X*XO.  X - b M B B B M b ",
". X ; ; . 8 @.Z.A.D.F.U.Y.R.U.D.A.D.D.F.F.@.# W ` ` ;.;.` -.` 1 9.*XOX>X>X>X>X9.@ , , # ; ; ; # X X ",
"@ #.I.P.8.#.R j d d h z z l p , , 8 p p p % X N ! ) ! ! Q Q ! 1 G.>X>X>X>X*X>XJ.8 D.U.D.A.A.A.Z.@.8 ",
"y oX>X>X>X>X*X&XXXXXXX}._.J.0 8 %.9.7.%.%...# B Q Q Q Q W W Q 1 9.>X>X>X>X$X>XP.l E.!.!.!.E.W.'.W.@.",
"R *X*XOX-X>X*X>X>X>X>X>X>X*X..#.OX>X>X*X;X).6 B Q F Q Q Q Q F q &.>X>X>X>X>X>XI.x R.E.E.E.W.W.E.E.A.",
"R +X$X$X$X$X|.$X=X=X*X$X$X$XU G.>X:X*X*X>XoX9 q F W Q Q Q W B > #.*X=X=X=X*X-XH.l U.T.Y.Y.R.E.Y.Y.A.",
"y |.$X=X%X$X$X$X$X$X.X|..X~.9 P.*XOX:X*X>XoX8 . o > > > - > o   ..$X$X$X#X X$X5.% B.+.d h z z h z s ",
"; Y $.%.5.7.%...Y I k k j : # P.>X>X>X*X$X}.: k %.&.8.$...o.R $ ..OX$X$X#X.X$X%.X # P ( / K ( / V 2 ",
"] / G B @   X > 1 2 2 2 & . @ $.*X-X>X*X*X}.8 P.>X>X>X>X*X*XOXU E #X$X%X$X$X$XK.# M g.k.k.j.k.g.g.g.",
"k.k.k.h.t # N W ) ` ` ) Q 2   k .X$X*X=X=X_.6 H.*X*X>X>X>XOXOX#.U .X.X%X$X$X$X|.y Q k.g.g.k.k.h.k.k.",
"g.h.k.h.m > ) ) -.;.` ` ` t   y .X@X$X$X@X/.6 H.-X*X>X>X>X>X>X8.k .X$X%X%X$X$X.XY G g.f.g.k.k.k.k.g.",
"f.g.g.f.t 1 ` ) ! ;.;.! ! q   k .X#X%X$X X|.0 G.=X$X*X*X$X$X=Xq.k .X$X#X$X$X$X@XY G f.f.f.g.g.g.g.g.",
"f.s.f.r.w 1 ` ) ! ;.;.) ) 2   ..$X%X%X$X%X|.0 5.$X$X$X$X@X$X$Xq.y /.$X X$X%X$X Xy V f.f.f.f.f.f.f.f.",
"f.s.s.r.1 q ` ` ` ;.` ` ` w . O.$X$X$X$X%X^.$ ..$X$X$X%X%X$X$X5.: /.%X$X%X%X%X|.6 b r.f.f.r.s.f.f.f.",
":.:.] Q @ > ` ;.` ) ! ` ` b X 9 %.6.6.6.%.k   9 K.|. X.X.X.XK.y @ O.J.K.q.q.9.$.@ & ] r.r.w.] _ ] ] ",
"g g f , @ o W ! Q B B ! ) N X o e n r > = = = = : 0 0 y i i :     X $ 9 d h s , # @ > m t r < 9 a f ",
"U.T.Y.F.^ ; B Q Q W W Q Q N o *.n.n.v.c.d.3.4.4.2.*.X.X.*.=.v X @ l Z.U.E.W.E.U.A.V.V.V.Z.D.U.T.E.E.",
"U.W.!.'.D.: M Q Q Q Q Q Q N - c.N.v.v.N.N.N.N.N.N.N.M.M.N.M.3.4 , F.!.Q.Y.E.!.'.'.'.].!.E.T.Q.'.!.R.",
"!.!.!.!.D.; N Q Q Q Q Q Q M = 4.M.l.v.N.M.M.M.M.M.c.i.v.M.M.M.D 9 T.Q.W.Y.Q.'.'.!.!.!.!.Q.W.Q.!.'.!.",
"E.E.R.E.A.$ N Q Q F V Q Q N & | x.x.x.z.x.m.z.x.x.z.z.z.x.x.z.D 8 F.E.E.R.E.E.E.E.T.U.E.E.E.W.E.E.E.",
"U.T.T.R.V.; B Q Q W V Q Q b o D z.x.z.u.z.m.x.x.x.x.x.x.x.x.x.D $ C.Y.R.T.T.T.T.T.U.U.T.E.W.W.W.W.W.",
"Y.Y.U.U.~ o b F W F V B b * . = { <.i.i.i.y.<.,.{ { |  .<.y.<.v @ ^ A.F.U.F.F.D.F.U.Y.T.E.E.T.T.E.R.",
"+.x h p @ . ; > > & o X . . .   o 7 q q 7 7 : = & o o & = - = X @ : < 9 a 9 8 8 p s h z ^ @.@.+.+.+.",
"d k R 0 @ $ 8.L.&.....O.O.#.$.$.7.7.7.&.y   w :.:.:.] ( G G Q ( _ ] :.:.] _ G c * . $ d k R R U k j ",
"OX*X*X^.g 9 oX>X>X*X*X*X*X*X*XOX*X>X>X>XP.: / k.k.k.k.k.h.g.h.k.h.k.k.k.g.g.g.] C # H.&XoX*X*X*XoXoX",
"*X*X*X>XS.9 oX*X-X-X>X>X>X>X>X*X>X*X:X>X&Xu ] g.r.g.h.h.h.f.g.k.k.k.k.k.g.g.k.g.K y OX*XoX*X>X>X*X:X",
".X@X%X-X_.d |.$X$X$X$X$X$X*X-X-X*X.X$X=X$XU ( s.w.s.f.f.f.g.g.g.g.f.g.h.g.g.g.f.K R $X#X.X$X*X*X*X*X",
"$X$X$X$X^.y ~.#X$X$X$X@X.X$X$X$X$X$X$X$X.Xi M a.f.f.s.f.f.f.f.f.s.e.r.f.g.f.f.f.( O.$X%X%X$X#X$X$X$X",
"|./.~.6.y @ 0 U R R Y ..#.$.$.%.8.6.%.5.o.# X B _ ] L ] :.w.e.r.s.s.s.r.r.t.e.] b y I.|..X#X.X|..X X",
"9 8 : o o 7 q q e e e 4 o + + % k R E U k y 9 $ ; = & ; > ; > b V B M M M b 1 o .   # 6 0 d k y y y ",
": H *.=.2.d.v.c.c.v.v.i.D o @ 8.oX*X*X*XXX|.XX^.J.9.8.G.9.k X   $ k O.8.9.8.$...Y ..$.%...u : X     ",
"[ v.n.M.M.M.v.i.l.M.M.M.v.n 8 |.>X>X>X>X>X>X>X>X>X>X:X>X:X).8 # q.*X*X>X>X>X>X*X#XOX>X>X>X#X`.9.y X ",
"3.N.n.M.M.M.b.v.n.M.M.n.M.{ y &X>X>X>X>X>X>X>X>X*X:X>X>X>X&XI 9 oX>X>X>X:X:X>X>X>X-X>X*X*X>X>X-X^.: ",
"3.M.i.v.N.M.M.M.M.M.v.1.l.=.u oX:XoX$X>X>X>X>X$X XOX>X>X>X*XU y *X>X>X*XOX*X>X>X>X>X>X*X*X-X>X>XOXi ",
",.m.z.z.m.m.x.x.x.x.v.p.z. .i oX*XoX*X>X>X>X>X:X*X*X>X>X>X&Xk k *X-X-X*X*X-X*X*X>X>X>X>X-X>X>X-X$Xo."
};
