/* XPM */
static char *_8660fbcc31f451bca880f4bd36e6742cBSGH9p3XxdeVAIt[] = {
/* columns rows colors chars-per-pixel */
"50 50 239 2 ",
"   c #030300",
".  c #0A0100",
"X  c #010B00",
"o  c #0A0C00",
"O  c #150902",
"+  c #001300",
"@  c #091703",
"#  c #131A0B",
"$  c #191607",
"%  c #1A1C15",
"&  c #290704",
"*  c #340908",
"=  c #29160B",
"-  c #261C12",
";  c #3F1E19",
":  c #012B03",
">  c #032304",
",  c #14290B",
"<  c #07370A",
"1  c #1A2516",
"2  c #1B3713",
"3  c #1A3819",
"4  c #0B2718",
"5  c #26280C",
"6  c #232313",
"7  c #272718",
"8  c #382B1B",
"9  c #263718",
"0  c #36371D",
"q  c #1B3423",
"w  c #1F2F24",
"e  c #392D24",
"r  c #263826",
"t  c #3B3B2C",
"y  c #383627",
"u  c #273C31",
"i  c #393C33",
"p  c #2A2D29",
"a  c #4C1C14",
"s  c #522A1D",
"d  c #433929",
"f  c #453A32",
"g  c #412D26",
"h  c #612E33",
"j  c #09471A",
"k  c #114116",
"l  c #32471E",
"z  c #105526",
"x  c #2C4528",
"c  c #3D4C25",
"v  c #354A2A",
"b  c #3E4D2B",
"n  c #384327",
"m  c #23542B",
"M  c #3E5125",
"N  c #3D532B",
"B  c #3E5A2D",
"V  c #305029",
"C  c #2D4934",
"Z  c #3A4736",
"A  c #3B5837",
"S  c #2A5935",
"D  c #17672B",
"F  c #256337",
"G  c #2E703E",
"H  c #444D25",
"J  c #434E2B",
"K  c #4A4E2D",
"L  c #45442C",
"P  c #425226",
"I  c #45542C",
"U  c #4A542D",
"Y  c #45592D",
"T  c #49592E",
"R  c #50542E",
"E  c #444433",
"W  c #4B4434",
"Q  c #454D33",
"!  c #4B4D33",
"~  c #444C39",
"^  c #4A4C3A",
"/  c #464639",
"(  c #564A39",
")  c #455432",
"_  c #4A5532",
"`  c #465931",
"'  c #435B34",
"]  c #495931",
"[  c #4B5933",
"{  c #455539",
"}  c #4C543B",
"|  c #4C5B3B",
" . c #475B39",
".. c #515534",
"X. c #515B34",
"o. c #52533A",
"O. c #545B3D",
"+. c #58583A",
"@. c #4D6239",
"#. c #6B5339",
"$. c #395548",
"%. c #3A754B",
"&. c #2D7746",
"*. c #474842",
"=. c #4C5244",
"-. c #455649",
";. c #545641",
":. c #535A42",
">. c #585949",
",. c #555247",
"<. c #6A5D53",
"1. c #6A5745",
"2. c #456246",
"3. c #596448",
"4. c #4D6758",
"5. c #407950",
"6. c #646A4C",
"7. c #62654E",
"8. c #676A58",
"9. c #756956",
"0. c #68745D",
"q. c #71745B",
"w. c #5B7264",
"e. c #756E63",
"r. c #777A66",
"t. c #71786E",
"y. c #837054",
"u. c #887668",
"i. c #8E7D6C",
"p. c #38854C",
"a. c #3C8851",
"s. c #34A95C",
"d. c #478B58",
"f. c #41A05E",
"g. c #4A9565",
"h. c #5A966A",
"j. c #589D72",
"k. c #50926A",
"l. c #4CA46E",
"z. c #45A969",
"x. c #42B86B",
"c. c #57A674",
"v. c #58B277",
"b. c #4AB172",
"n. c #64A57A",
"m. c #7D876F",
"M. c #36C363",
"N. c #4ACB75",
"B. c #53C87B",
"V. c #48D976",
"C. c #57D67C",
"Z. c #44CB6C",
"A. c #4DE57A",
"S. c #95826B",
"D. c #8F847C",
"F. c #9C8878",
"G. c #808B6D",
"H. c #A68A74",
"J. c #5DB781",
"K. c #66AF82",
"L. c #73B682",
"P. c #53CE83",
"I. c #67C98A",
"U. c #6AD793",
"Y. c #7BD196",
"T. c #55E581",
"R. c #5DEC8C",
"E. c #5AE885",
"W. c #5EF58A",
"Q. c #5DF789",
"!. c #5CED90",
"~. c #66E88D",
"^. c #62F48D",
"/. c #62FA8E",
"(. c #6CEC96",
"). c #69E995",
"_. c #65F494",
"`. c #6CF494",
"'. c #65FB93",
"]. c #6CF49B",
"[. c #6AFA98",
"{. c #72F89D",
"}. c #75E799",
"|. c #7ED9A0",
" X c #7BEEA2",
".X c #76EEA6",
"XX c #78F5A6",
"oX c #6EFAA1",
"OX c #998B82",
"+X c #9C9886",
"@X c #A89487",
"#X c #B79886",
"$X c #9CA286",
"%X c #B1AA96",
"&X c #B5B7A7",
"*X c #B9BCB7",
"=X c #C5A999",
"-X c #D4B69A",
";X c #CAB4A5",
":X c #D6BCA9",
">X c #C5BEB7",
",X c #D4B7AD",
"<X c #89D6A4",
"1X c #90D1A6",
"2X c #B6C1B8",
"3X c #ABC9AD",
"4X c #88E6A7",
"5X c #8AFFB4",
"6X c #9AF9B6",
"7X c #90EEAE",
"8X c #A4F5BA",
"9X c #8FCA9A",
"0X c #DAC7B8",
"qX c #D9C7AF",
"wX c #E8C9BE",
"eX c #E9D3BB",
"rX c #F6D2BA",
"tX c #F3C6B2",
"yX c #BDC8C4",
"uX c #A8FCC9",
"iX c #B5F9C6",
"pX c #B9FFD1",
"aX c #C7CAC6",
"sX c #DCD0C5",
"dX c #EDD4C4",
"fX c #ECD6CA",
"gX c #F2D6CA",
"hX c #F3DBCC",
"jX c #F8D9C8",
"kX c #FCDED2",
"lX c #F0DED4",
"zX c #CDFFD7",
"xX c #F7E2CC",
"cX c #FBE4D4",
"vX c #FAE4D8",
"bX c #EFE7DC",
"nX c #C3FFE0",
"mX c #FDEEE4",
"MX c #FFF0E4",
/* pixels */
"N Y U U U I Y Y U _ U J I I `  .} ) _ I P Y I I I M T Y I T [ _ U U U U Y Y I I I I ` [ [ U I I ` _ ",
"Y I U U I I Y Y U _ U U I I Y U ) ) J I ] T c I I [ Y P [ I U U U U U U I I I I ` I ` [ _ U I Y I U ",
"Y I U U I I Y I U U U U I Y I U _ _ ` I ] I T I U I [ M ] I U I I Y I I U U _ I _ ` U U U U Y Y I I ",
"I I U U I I I I _ U I I I Y U U I [ I I ` I P P H X.c I I ` I Y Y Y ` ] ] _ _ _ U _ _ U U U I I Y I ",
"I I U I I Y Y I I I b I Y I U U U I ` ) | J U X.X.H ` ) ) ` I Y Y I ] _ ` ` U ..U U I I U U Y N I I ",
"I I I I I I I I I I Y Y ` I U U I I | { b { | ) N b  .{ | ) I I U _ _ I B N U U U U ` Y U _ Y N I I ",
"U U I I I I I I I ] ` `  ._ _ U H U 3.v X A C + X A 3 v ) ` H H R _ U ` B B I U U U Y Y I I ) ` I I ",
"U U U I T ] U U U ] ` U ) _ _ _ O.0 , < %.j j j.j.c.d.: + l [ _ _ _ U _ ` ' ` I U U Y N N N ` _ I I ",
"U I I I I U U U _ U ] _ U _ _ O.~ x j z  Xs.s. X XB.B.U.l.j r x 9 @.U c  .` Y Y U P Y N N N _ _ U I ",
"U I I I U U U U [ U U U [ J ` 2 X k.|.).oXV.M.[._.R.V._.XXI.F : k < ' [ _  .` I U U I Y N Y _ K U I ",
"` I I I U U U I U I _ _ J  .V < p.z.(.].'.T.Z.~.R.{.^.^.R.(.b.z.}.D : 9 _ U [ U U U T I I U _ K U I ",
"] I I U U U U I _ _ _ ..b ' : z 7XZ.R.^./.^.E.^.T.^.W.W.'.'.R.R.]. Xp.> c O.) U U U T U P U _ U U U ",
"I I U U U U ] ] I _ U ..n : < U.{.R.^.'.W.W.W.^.V././.T.Q./.W.R.R.(.4Xd.2 } ) _ ` U R U P I _ U I I ",
"I I I U U U Y ] I ] U _ B m v.P.].[.V.A.'././.W.A.Q./.E.A./.'.A.T.].XXf.> | { c ] T R U P Y I U U I ",
"_ _ I U I I I Y I c .._ 2 j U.P.~.^.E.V.[.^./.Q.W.W._.R.V.^.'.T.V.E.].P.j < | Q ` I U U Y B Y I I I ",
"_ U U U U U I Y Y I _ n 3 d..X].5X(.5X~.~._.W.'.^._.[.E.V._.^._.C. XoXU.g.2  .) Y M I U Y Y Y Y I I ",
"U U I I U U Y Y Y P _ v m 4X]._.uX6X6X6X(.R.!.R.C.C.`.`.E.E.[._.I.uX5XI.h.2  .[ B B U U U Y I I I Y ",
"U U I I U U Y Y P I J ' : z.`.(.uXiXiX7X).~.N.P.x.B.~.~.N.Z.V.].7XnX6X4Xm 9 | Y B B U U U U I I I I ",
"_ _ B B U U P Y U J Q 3 L.L.Y.6XpX1XiX8XB.).x.B.z.b.B.B.x.x.P.XXuXuXpXiX2.@ v  .Y I U U U U I ` I I ",
"_ ` B B I P P Y _ ^ Q 3 9XpX8XpX<XK.h.h.a.a.p.&.z %.a.p.a.G v.I.J.7XpXzX3Xv { U I U U U U I I ` I I ",
"U U B B Y P H U Q } / @ a.7X8XuXY.F , , @ 5 n Q 7.$ 5 0 L | + m c.v.<X9Xq Z ^ ! I U U T T I I ` I I ",
"I I Y Y Y U U U } ~ =.3 D v.J.K.n.k $XqX;X0XhXcXkX:XwXgXjXjX%X5 F l.l.j.3 # o.! U U T T Y Y I ) I U ",
"P I ) Q ! ! _ U ` { =.> z c.l.j.x n xXeXxXxXfXhXhXvXhXgXrXtXjX0Xm g.l.c.3 ~ o.J Y Y _ [ T Y I U ] T ",
"I U _ ! W ( _ I I _ | , S n.j.%.3.qXjXjXcXkXjXhXkXfXfXhXjXrXtXeXA g.J.a.+ v } ) Y ` [ ..T T I I I U ",
"Y [ _ ( g f } ) ) I [ 9 , r z C %X=X#X=X#X:XkXjXkXgXxXcXqX-XrXeXV h.5.G + { | ) Y ` J _ X.T c I ` _ ",
"I I ..( ( - y } ) ` T I o =.r x 9.;X;XwX;XH.wXkXjXkX:Xi.i.1.H.y.9 C 2.3 v v ` ` ` } q.! U T Y M ] ] ",
"Y I _ ! ! W % i _ P X._ 0 &XZ Z ,.<.u.OX>XvXgXhXgXvX0XqX:X#XrXS.. # &Xn Q  .` | Q 7.8.E U T M I I _ ",
") ) I J U O.i 7 O.H H U 5 +X4.Z f . . . . OXvXhXvXgXvXMX=X=XjXjX$ W u.0 _ )  .) O.q.Z } [ P T T U U ",
") Y Y M _ ) } E t d _ K L # r 4 +X7 p y % sXvXgXhXvX%X+XF.S.#.:X( O y _ Q Q ..6.6.^ Q { Y I T U U U ",
") ` Y Y H _ I :.e - q.o.^ i X Z bXD.t / e.mXdXkXdXvX@X8 8 g y.jXd 8 ! _ } Q 6.+X[ ) Q { Y I [ I U U ",
"I [ H U T P U J } t D.r.E >.# p fXcXsX0XvXkXjXeXxXeXhXcXF.eXxX#X5 Q _ _ E 3.G.| b | { _ U X.U ] _ _ ",
"` I _ U P T U U } ^ 8.e.7 ;.7 . ,.0XlXvXgXgXkXcXcXS.i.vXdXjX;X5 , 9 { Q Q m.| ) |  .J _ U T U U [ [ ",
"T [ U I P U ] U _ O.! W $ 6 >.y O t OX0XvXMX&X@XF.9.u.@X;XOXO X t =.~ y } :.~ } Q `  .` U I I I ] T ",
"I T Y I I I I I [ U K o.n $ 6 / E ^ e f <.i.W d W ( 1.e f e 6 y >.e.^ r 0.3.0 Q 3.0 c ` I ] I I I I ",
"I U U I I I I I U J _ _ o.E - $ K ..;.^ $   @ 9 ! d / t =.>.W 0 E >.>.Z r.:.} 6.3.c ` ] I T I I I I ",
"I I U U I Y I I I I U _ ! ;.^ 6 +.L 7 # =.7 2.{ 0.6 1 7 # E 1.9.t y n } J Q Q ) b ` ` I I I I Y I I ",
"I I I _ ` I I I I U J _ _ ! } ^ E :.y y C q 4.4 $.C C $.i y = ,.7.) _ _ _ _ [ c J I I I [ I I I I I ",
"I I I I I ` Y Y I I U U [ } Q n Q >.e.- @ u =.% w w 4.@ 7 y O - _ _ U _ J [ U [ [ I ] T I T I I I I ",
"I I I I U I I Y I c I _ ) [ _ Q ! o.W e = & * & . $ $ $ . O 7 } _ I X._ [ U _ U I P T I c I I I I I ",
"I U I I I I I I I I I I U J ) ) _ +.W - . a a s a = 6 . O & W ;.[ I U U H I I I I [ P I ] P I I I I ",
"U U U I J I I ] I I I I H J I U I | E 6 $ . * * = O o . & * = y _ P c I I I I I ] I I I I I U I I I ",
"U U I U I I I I P Y I I I I U Y ` N :./ 1 =.>.W >.8.t.7 * h ; 8 [ I P I I I _ _ I I I I U I U ) I I ",
"I I I I ` ` I I I I I I I Y I N N ` ) Z 1 Z w.-.4.w.-.% O = 6 ! [ I I I I _ ] ] I U ` ` U I U ` I I ",
"I I I I ` _ _ ] ] U I I I I I I ` N } r.i X u $.$.C X # 8.>.o.o.[ ] _ _ I I ] ] U U ` U I U ` _ I I ",
"I I I I U U U I I I P I I U I U c 6.&XaXt.p *XaXaXaX*.% aX&X+X+.[ ] ` I Y I ] I U I I I U U _ ] U U ",
"I I I _ ` U U U I I I I I T I I H q.&X*X2XyXaX*X>X>XaX%X2X*X%XO._ I I I I I _ I U I I I I I _ U U U ",
"I I I _ ` ` _ _ I I I I I U I I T c O.6.0.0.t.r.r.r.q.0.8.3.` N I I I I Y Y T I I I I I I I U I I U ",
"_ I U U U U _ [ I I I I I U _ I I [ c b I b b n n J I N ` Y Y N I I _ I I ] T I T I I I I I I U U U ",
"` I I U I U I I I I U I I U I I U I I I ` ` ` _ [ _ ` I I ] I I I I U I U I I I I I I H I T U I I I ",
"` I I ` I I I I I I I I I U I I I I I I I I ` ] ] _ U I I I I I _ _ U J U _ I I I I I I I T U I I I "
};
