/* XPM */
static char *_ac3069207b34815f0aa9e96ca20f37furuLH93Yesd2sX6U[] = {
/* columns rows colors chars-per-pixel */
"50 50 250 2 ",
"   c #0C0205",
".  c #070305",
"X  c #160707",
"o  c #1F1315",
"O  c #1E1510",
"+  c #22090B",
"@  c #21160E",
"#  c #260E17",
"$  c #251313",
"%  c #231B1C",
"&  c #2A1918",
"*  c #331D1B",
"=  c #331517",
"-  c #32170E",
";  c #2C2C1B",
":  c #282518",
">  c #322A1E",
",  c #36271B",
"<  c #37351C",
"1  c #2C2D0F",
"2  c #2D0E23",
"3  c #2D1C22",
"4  c #351C24",
"5  c #3A1C23",
"6  c #391A28",
"7  c #3C1530",
"8  c #2E2423",
"9  c #2D2827",
"0  c #342324",
"q  c #3A2523",
"w  c #352B24",
"e  c #3B2B24",
"r  c #332329",
"t  c #3C242B",
"y  c #342C2A",
"u  c #3C2B2C",
"i  c #353323",
"p  c #3C3424",
"a  c #3B3A23",
"s  c #3B3729",
"d  c #3C2B33",
"f  c #3C2431",
"g  c #3D3330",
"h  c #373131",
"j  c #2B3123",
"k  c #471C37",
"l  c #431431",
"z  c #41242D",
"x  c #432C2C",
"c  c #472927",
"v  c #532D2D",
"b  c #413124",
"n  c #433B26",
"m  c #43322B",
"M  c #49352B",
"N  c #47382A",
"B  c #52322C",
"V  c #533C2E",
"C  c #432C34",
"Z  c #4B2D32",
"A  c #412D39",
"S  c #452335",
"D  c #512739",
"F  c #463332",
"G  c #4A3432",
"H  c #4B3D33",
"J  c #45353C",
"K  c #473836",
"L  c #523D35",
"P  c #553B3C",
"I  c #5A3E3C",
"U  c #543737",
"Y  c #603B35",
"T  c #4C2514",
"R  c #3D4D25",
"E  c #3E4F2B",
"W  c #3A4228",
"Q  c #3E5525",
"!  c #3E532B",
"~  c #3E5828",
"^  c #3F5631",
"/  c #424D26",
"(  c #45452C",
")  c #434D2B",
"_  c #4A4C2D",
"`  c #494526",
"'  c #52482E",
"]  c #435326",
"[  c #485227",
"{  c #45542C",
"}  c #4A542D",
"|  c #46592C",
" . c #49592E",
".. c #485827",
"X. c #51552D",
"o. c #454332",
"O. c #4B4533",
"+. c #434C33",
"@. c #4C4D33",
"#. c #4E443C",
"$. c #4C4C39",
"%. c #444A3A",
"&. c #524B35",
"*. c #52433B",
"=. c #534C3B",
"-. c #584837",
";. c #455631",
":. c #455432",
">. c #495231",
",. c #495631",
"<. c #4B5432",
"1. c #455931",
"2. c #495931",
"3. c #4B5932",
"4. c #465438",
"5. c #4C543A",
"6. c #4D5B3A",
"7. c #525435",
"8. c #505930",
"9. c #53533B",
"0. c #5B543C",
"q. c #535B3C",
"w. c #5D5B32",
"e. c #64583C",
"r. c #6C493A",
"t. c #626334",
"y. c #726B37",
"u. c #484A19",
"i. c #5B2747",
"p. c #493242",
"a. c #553944",
"s. c #472540",
"d. c #693C59",
"f. c #6A3E48",
"g. c #544B40",
"h. c #5B4B44",
"j. c #594748",
"k. c #4F5540",
"l. c #525442",
"z. c #5B5442",
"x. c #5B5944",
"c. c #5A5B47",
"v. c #5E4A51",
"b. c #624B44",
"n. c #674947",
"m. c #724A4A",
"M. c #744547",
"N. c #635543",
"B. c #64534B",
"V. c #675949",
"C. c #78564F",
"Z. c #734753",
"A. c #675954",
"S. c #755852",
"D. c #684A54",
"F. c #5F6952",
"G. c #57644A",
"H. c #686549",
"J. c #75654A",
"K. c #746555",
"L. c #7F7659",
"P. c #6B6E50",
"I. c #775969",
"U. c #704E69",
"Y. c #7C7462",
"T. c #716A62",
"R. c #845C5C",
"E. c #885957",
"W. c #8B4E56",
"Q. c #896959",
"!. c #896E50",
"~. c #A36F5E",
"^. c #855A6E",
"/. c #846A62",
"(. c #896966",
"). c #996869",
"_. c #827767",
"`. c #997267",
"'. c #9C6871",
"]. c #887A77",
"[. c #9A7573",
"{. c #87607B",
"}. c #A76A6B",
"|. c #A3756A",
" X c #A86C75",
".X c #A67675",
"XX c #B67B7D",
"oX c #8E8856",
"OX c #8C824F",
"+X c #96816E",
"@X c #998877",
"#X c #838F77",
"$X c #A9857A",
"%X c #B88778",
"&X c #B8937D",
"*X c #AF876C",
"=X c #C9977E",
"-X c #876B82",
";X c #957A8E",
":X c #AE7A85",
">X c #A17B99",
",X c #9B8889",
"<X c #989896",
"1X c #AB8987",
"2X c #A99583",
"3X c #B6948C",
"4X c #AA9796",
"5X c #A5A59A",
"6X c #BDA08E",
"7X c #AB8AA8",
"8X c #AD97A6",
"9X c #BA9CB4",
"0X c #BCB5BC",
"qX c #B0A6A4",
"wX c #CB8C8F",
"eX c #C89985",
"rX c #C89695",
"tX c #D19D9A",
"yX c #C28E90",
"uX c #C9A58E",
"iX c #C8A79C",
"pX c #D8A793",
"aX c #DEB49E",
"sX c #E3BA9E",
"dX c #D8ADA6",
"fX c #DDB5A8",
"gX c #C5A8BC",
"hX c #D1B7B3",
"jX c #EEBAA4",
"kX c #E8B8A7",
"lX c #E7BBB2",
"zX c #F0B7A3",
"xX c #DCC5B5",
"cX c #CBC4BE",
"vX c #EEC1A9",
"bX c #F2C4AC",
"nX c #F5C7AA",
"mX c #FBCCB4",
"MX c #FECBBB",
"NX c #F9C4B5",
"BX c #FDD1BB",
"VX c #FFD1B5",
"CX c #EBC8BA",
"ZX c #BFA7C1",
"AX c #D5B4CF",
"SX c #FBD6C8",
"DX c #EBCFC4",
"FX c #E3EED9",
"GX c #E4C7E3",
"HX c #D4D1C8",
/* pixels */
" .{ | | ;.;.;.;.| { { } ,.,.2.3.| { ) ) ) { { | ~ Q {  . .{ ^ ^ { { { { >.;.;.| ) {  . .} >.<.5.,.2.",
"{ { | | | ;.;.{ | |  . .2.,.;.;.| | } >.} { { ! { { .. . .;.;.1.;.| { { { { { { { {  .,.} >.>.,.,.2.",
"{ { | ;.;.;.;.{ | { }  .,.| { { { } <.<.<.>.{ { | |  .} }  .| ,.,.,.{ { { { { { { >.>.>.{ { { { | | ",
"{ | 2.2.;.{ { | | { { { { { { ;.{  .3.3.<.>.>.;.,. .} } } }  .| >.{ { { { { | ,.>.>.>.;.| | { { { | ",
"| | ;.| { { { { } { { ] | | ;.1.{ | | ,.>.>.>.| ;.| } } } } | | { { { { {  .,.,.,. .2.2.2. . .| | { ",
"{ { | { { ) { { { { { { | | ;.| | { | { { { { { { { { { { | | ;.{ { { >.,.,.,. .|  ... . . .| | | | ",
"{ { | | { { } } { { { { { { { ;. . .{ { { | | { { { { { { | ;.;.{ { { >.;.,. . .] ] ..|  .| ;.;.;.,.",
"| | ,.2.3.,.} }  . .{ { { { ;.<.,. .} >.3.7.3. .|  .| { { | ;.{ { { { { | |  ...{ .... . .| ;.;.2.,.",
"| | ;.,.,.3. .}  .{ {  .2.{ 3.>.<.@.9.O.O.( O.O.@.} 3.2.{ 2.) 2.! ;.{  .] { {  .,.3.,.,.,.{ { { | { ",
" . .,. .} }  . .] { 3.{ ,.q.@.0.x.O.m w , e e w < a W ,.2.3.3./ { 2.E  . .{ ,.) <.5.6.<.{ { { ] { { ",
"{ | |  .} } }  .{ R 3.3.} @.V.H.*.q F u 4 C r d u O ; 4.) 3.8.1 <  . .{ ,.5.W G.F.5.4.<.>.} ] ..| | ",
"{ {  . .} } { {  .| { ) @.c.x.m x P Z r C p.a.P u w ; +.5.<._ _ } >.<.9.+.; T.FXF.4.:.,.} ..]  .,.,.",
" .} } ,.3.3.} { {  .E ) q.Y.O.H G I t Z P Z 5 = q e : ; $.O.=.=.=.&.p n l.5XFX#X4.E 2.{ /  ... . . .",
"3. .{ } } ,. .|  .| | { 0.z.b L U = c I v C.(.$XQ.b.K.#.#.j.a.a.F #.4XcXHX5XF.+.{ R { { /  .,.,. . .",
"3. .} } } } | { ! { 2.>.c.A.B.U B C..X$X`.eXBXmX*XQ.+Xb.C v.a.>X9Xp.8X].g.W ) {  .{ ] { | { >.3.,. .",
" . . .} } } { { { | { >.&.Y.B.S.$XlXCXuXuXeXkXMXpXQ.V _.,XgX{.I.-Xp.d #.O.7.} ..]  . .| { ) { ;.| | ",
" . .{ { } } { { | { 3.{ @.n H.xX+X6XxXDXDX&X.XR.Z.,X4X,X_.B.L *.#.l.l.3.{ } 8.} }  .} ,.3.>.:.E { { ",
";.{ { R / } { { / { { 3.@.0.< 2XSXxXhX3X2Xr.m.v f.v.#.o.o.&.h.*.=.l.) | 3.{ } { { { } } 3.3.4.;.>.} ",
":.>.{ { { Q ] Q  .{ 2.>.) z.O.S.[.(.S.U /.$X.XE.).I =.x.c.A.d.U.A.g.5.>.{  .| { ! ! { { }  .;.;.| | ",
":.4.>.{ R ! 2.3.,./ / <.<.x.V.N.n.(.4XhXDXfX|.|.3XQ.J.N.B.D.k d.D.T.c.3.3.{ { { ! ! { ] ] { { | { { ",
"^ E >.>.) 5.( ( 7._._.&.0.x.z.V.T.;X1X1Xr.T !.vX&X|.|.%X`.E.Z.i.Z H x.>.) 2.2.1.! ! { ] ] ] { | |  .",
"! ;._ 7.@.O.K.@X2X2X[.V.z.x.L.K.b.I n.$XfXaXnXvXjXeXpXBXNXlXrXR.I h.@.>.2.| | { | 1. .{ ] ] { | 2. .",
"2.q.0.-.N.' S./.S.1XR.U N N M c Q.eXmXmXbXjXnXnX=XsXbXbXmXNXXX'.S.O.>.| { | | { ,.3.3. .} { >.;.,. .",
"R H.2X-.e.-.M B f.).).v I b.C.[.bXmXnXVXpXjXjXeXnXBXkXkXmXMXwX XV.O.>.2.{ {  .,.} ,.3.} } } :.4.;.| ",
") 7.e.&.' 0.=.2XXX X XM.E.'.:X).dXSXNXjX%X~.=XzXbXkX%XE.eX%X}.).C.O.<.|  .| / 3.>.} }  .<.{ +.+.>.{ ",
" .{ 3.<.} <._ +XdX X XW. X X'.'.m.1X&X*Xr.~.eX*X!.`.E.M.lXkXrX|.`.S.@.| |  .{ } { {  .3.3.,.<.>.{ { ",
" .{ ] | | ;.) K.SXXX X}.). X:XC.< L.J.OXy.!.oXoXe.Q.n.c rXSXMX%X X).O.<.1.2.2.{ { {  . .3.3.2.;.) { ",
" . .] | { 1.) 9.CXrX'..X[.[.S.G e.L.t.P.t.u.t.w.` b M c B fXmXeX}.'.-.@.;.{ ;.;.| { | | | | { { { { ",
"} 8. .{ { ;.>._ +XiX(./.K.&.9.$.N , < < , M M c e , > w * B fXeXXX XV.@.{ ! { ;.| { Q Q ] ] ] ] { { ",
"} }  .} { ) } _ _ N.0.&.( <.5.a b m e g u 0 z P G G g y 0 q dXMXwX XK._ | | { ,.| { { Q ] { | | | | ",
";.;.;. .} { [ ] { { ) ) <.9.x.H G t & 8 8 r t r u 8 h h d u iXSXrX`.J._ |  . .} }  . .{ | ,.<.<. .| ",
";.3.3.}  . .} { { | 2.3.@.x.z.e = 4 t d u y d r & % o % r + K.SXtX`.S._ /  .} 8.} 3.2. .| >.>.>.{ { ",
",. . ...} } _ <.2. .3.5.O.=.y $ q 0 K u m x t z C d y % % $ - iXtX|.r.' 7.{  .{  .{ { { { >.>.{ { { ",
"} ..{ ..} _ @.5.@.q.>.@.z.n & g u q G h.x x I x t C J K x * c dXyX).B -._ { R R | { { { { { { { { { ",
"{ | { | { ) { 4.z.=.@.<._ x.a ; e q e g.b L q Z P Z Z x n.B $XdX[.R.M 9.W { 1.! | { { { ) { { { { { ",
"{ ;.{ | { { ;.>.h.*.=.@.9.&.O.p G z q e *.m M c c P P * P /.Y 3Xm.+ , l.:.4.R ! | | | { { { { } | | ",
"{ 1.;.;.:.5.9.=.a.q =.@.+.z.M L x z u , h.*.L P * $ C u F /.n.v = 4 y i %.4.1.6.| ,.2. .| { }  .| | ",
" .2.1.{ :.$.O.*.L H &.O.z.].Z a.D a.J 0 : m @ q B.].v.3 0 F $ # z 4 8 : ; +.3.{ { }  .,.| { { { | { ",
"X.} } / } ( b *.&.7.=.-.j.D.d.i.D l 6 r y T.5XqX,Xv.3 f d 3 3 t 4 5 * w ; a 3.>._ } } { { { { { | { ",
"X.[ } ) ,.( c n.N O.j.4 # 7 l i.d.{.8X0X0X<XA.8 o 3 C A d A J f 6 5 e > < _ @._ _ } } { | { | | | | ",
"} } { { 4.l.l ^.AXI.s.I.>X7XAX>X7XAX-XJ   .   y y u d C A C S 6 5 * w s ( ) _ _ <.} }  .,.| { | { { ",
"3. . .1.! 5.a.D >X-XgXGXAXZX>XD.2   .   % y : 8 w 0 0 t d z 6 6 * w o.9.9.>.} 8.} }  .2.,.| { { { | ",
"| 2. .| { ) 9.p g j.B.F o X 2 2 4 + y j j %.k.$.> w : & & * & $ @ s l.q.3.;.{ { ..} | 2.2.;.{ { | | ",
"{ { { R  .{ { 6.x.9.@.@.z.m 6 z e H o.+.W 4.5.5.( < ; i i @ X & : +.c.4.;.1. .] { | | | ;.;.{ { } | ",
"| ]  .] {  .] | >.3.{ ] ) H a.t p q.@.q.5.>.) <.3.{ :.6.k.W ; ; > o.5.4.;.{ | { |  .1.| ;.;.>.>.{ | ",
" .| {  .} { { ] 3.3.| 3.<.n G q ( 3.{ ) >.3.{ ) R 1.1.! 4.q.( : > s +.:.:.{ | { |  .1.| { ;.>.,.{ | ",
">.3.{ ] ../ { 3.| { ,.< a p : i >.) 2.| >.{ ) }  .{ | { >.9.&.p > p O.5.>.,.3.{ { | 1.{ { { } ,.{ | ",
"3.{  .] ] { ;.| | { ) a n a o.+.,.| | { {  .3.3.3.} ,.,.) @.&.n e ; a 5.<.) ) ) / { | { { { { } { { ",
"2.2. . . .| >.;.{ { ,.3.3.,.3.,.,.{ { ) ) { ;.,.,.| { { { ) _ ( a W ) +.>.>.) ) { { { { { { | | { { ",
" .| ,.2.,.>.{ ,.{ { | 2.| | |  . .{ ) ) ) { ;.2.,.| { E ) { +.) ) { >.>.>.{ ) ) { { { { { { { {  . ."
};
