/* XPM */
static char *ad1705540301[] = {
/* columns rows colors chars-per-pixel */
"50 50 236 2 ",
"   c #3D342D",
".  c #533D1E",
"X  c #5D381C",
"o  c #4D2C0E",
"O  c #64371B",
"+  c #753A1F",
"@  c #5B3D24",
"#  c #553C26",
"$  c #4D3A30",
"%  c #633C22",
"&  c #6C3D24",
"*  c #763E25",
"=  c #3D4A2A",
"-  c #3D532B",
";  c #3E5425",
":  c #3D4936",
">  c #3E5332",
",  c #53401F",
"<  c #434D25",
"1  c #444E2C",
"2  c #4C4D2D",
"3  c #474628",
"4  c #554224",
"5  c #5D4225",
"6  c #5E432C",
"7  c #524E2D",
"8  c #554229",
"9  c #445326",
"0  c #45542C",
"q  c #49552D",
"w  c #45592C",
"e  c #49592E",
"r  c #465626",
"t  c #52512E",
"y  c #444C33",
"u  c #494E35",
"i  c #454C3C",
"p  c #4B4E3B",
"a  c #484536",
"s  c #584735",
"d  c #455431",
"f  c #4A5532",
"g  c #445933",
"h  c #4A5932",
"j  c #465239",
"k  c #4B543B",
"l  c #4B5A3A",
"z  c #525C3C",
"x  c #545437",
"c  c #624226",
"v  c #63442B",
"b  c #6A432C",
"n  c #69482B",
"m  c #744025",
"M  c #7C4227",
"N  c #73432A",
"B  c #7C432B",
"V  c #78492F",
"C  c #654B33",
"Z  c #6A4C34",
"A  c #664C3A",
"S  c #734B34",
"D  c #6B523B",
"F  c #685136",
"G  c #755235",
"H  c #7C533B",
"J  c #7B553A",
"K  c #474C41",
"L  c #554B42",
"P  c #4D5342",
"I  c #4E5748",
"U  c #4A5841",
"Y  c #525344",
"T  c #535A45",
"R  c #555C4B",
"E  c #5C5D4B",
"W  c #5C5448",
"Q  c #5B5D54",
"!  c #545C55",
"~  c #4F5950",
"^  c #675845",
"/  c #785B46",
"(  c #625D54",
")  c #795F50",
"_  c #5C634D",
"`  c #55624A",
"'  c #5C6253",
"]  c #5B6458",
"[  c #6B6454",
"{  c #656B5B",
"}  c #6C6D5C",
"|  c #656559",
" . c #736C5B",
".. c #7A6A5B",
"X. c #6B725D",
"o. c #67735B",
"O. c #727B5F",
"+. c #7E634E",
"@. c #646B64",
"#. c #6C6C63",
"$. c #686A66",
"%. c #726B62",
"&. c #7D6960",
"*. c #6C7364",
"=. c #6C736B",
"-. c #677464",
";. c #747364",
":. c #7D7565",
">. c #73756C",
",. c #747A6C",
"<. c #7B7B6D",
"1. c #787869",
"2. c #727472",
"3. c #757B73",
"4. c #7B7D74",
"5. c #7A7D7A",
"6. c #777B79",
"7. c #6F7571",
"8. c #844226",
"9. c #85452A",
"0. c #84492C",
"q. c #8B492C",
"w. c #884729",
"e. c #934C2B",
"r. c #984E29",
"t. c #99542B",
"y. c #844B32",
"u. c #934D31",
"i. c #875536",
"p. c #935334",
"a. c #9B5434",
"s. c #9F5D3C",
"d. c #975B39",
"f. c #AA5C35",
"g. c #A35A39",
"h. c #AA5C3A",
"j. c #A25833",
"k. c #A4592F",
"l. c #99633C",
"z. c #A9632E",
"x. c #AC6235",
"c. c #AA6838",
"v. c #B06535",
"b. c #B3653D",
"n. c #B46C3C",
"m. c #B56B37",
"M. c #BC743B",
"N. c #BE763A",
"B. c #C1753C",
"V. c #C27A3E",
"C. c #8B5C43",
"Z. c #A15F45",
"A. c #8B6347",
"S. c #936442",
"D. c #9B6B44",
"F. c #9B6747",
"G. c #9B7247",
"H. c #836B59",
"J. c #A76945",
"K. c #B76B43",
"L. c #AD744B",
"P. c #A97147",
"I. c #BC7144",
"U. c #BD7944",
"Y. c #BC744A",
"T. c #BA7C4C",
"R. c #B37448",
"E. c #A57453",
"W. c #AA7658",
"Q. c #B87955",
"!. c #8A6D62",
"~. c #837B6D",
"^. c #867766",
"/. c #827D73",
"(. c #907E70",
"). c #C06E46",
"_. c #C37545",
"`. c #C47B43",
"'. c #CC7D45",
"]. c #C47C4B",
"[. c #CC7E4B",
"{. c #C67548",
"}. c #D17F49",
"|. c #D17E47",
" X c #C87D54",
".X c #75836D",
"XX c #7C8375",
"oX c #7D847B",
"OX c #7A8678",
"+X c #BB845D",
"@X c #BA8253",
"#X c #8A826E",
"$X c #9D816C",
"%X c #818474",
"&X c #898375",
"*X c #83847B",
"=X c #83897B",
"-X c #8A8C7C",
";X c #898678",
":X c #95877A",
">X c #84917F",
",X c #A68167",
"<X c #B98967",
"1X c #C78042",
"2X c #CB8145",
"3X c #CC834B",
"4X c #CE894A",
"5X c #C5814C",
"6X c #D3844C",
"7X c #D48A4D",
"8X c #D98A4F",
"9X c #D38347",
"0X c #C58451",
"qX c #CC8553",
"wX c #CC8A55",
"eX c #C98759",
"rX c #D38552",
"tX c #D58952",
"yX c #DB8C54",
"uX c #D58D5B",
"iX c #D78857",
"pX c #DD9355",
"aX c #DE9559",
"sX c #E1935A",
"dX c #E49A5B",
"fX c #E19757",
"gX c #D29061",
"hX c #E49661",
"jX c #7B7C80",
"kX c #818682",
"lX c #848A82",
"zX c #8D8D83",
"xX c #879285",
"cX c #929791",
"vX c #AF968F",
"bX c #C79E80",
/* pixels */
"e w 0 d y d 0 0 r 0 q 0 d d h q h h 0 < 9 0 0 0 - w d h 0 f f q - d > g h < < f f f f h h h w 0 q h ",
"e w f 0 d 0 9 9 r 0 0 k d h h h l 9 0 d < 0 d 0 0 d 0 h h d f f d 0 w d f 0 2 q f f d d h l e q 0 f ",
"r 0 0 y d d 0 e w 9 0 0 0 0 e 0 - d d d l k u k k k k z l 0 k 0 0 9 9 q q r 0 q 0 0 q 0 0 h x h 0 f ",
"w 0 0 d h h r e 9 9 w 0 0 0 0 w 9 h d d O.-X%X;X4.%X%X%X.X_ g 0 0 2 r r q q q q w h 0 0 0 e e f q f ",
"q q 0 d 0 0 0 9 9 9 9 0 0 0 0 0 g - 0 d _ %X%X/.*X-X,.X.*.l - w 0 2 r 2 e e w e e e q w 0 0 q q f h ",
"w 0 0 0 d 0 9 9 9 ; 1 d 0 0 0 9 w 9 f j _ <.4.%X>.4.*.{ o.l - d 2 q q q e e w e e w w q 0 q 1 q 0 < ",
"0 < 0 d d 0 r q 9 9 d d y d 0 9 h 1 u y T ;.,.6.5.*X;.#.T : u y y f f f e q d g e q w r h d d d q q ",
"q r 0 d q h r w h h j j j j d 0 y u } _ p @.4.5.3.6.6.4.Q R { _ y u j d d d d g 0 e q 0 0 h h 0 f 1 ",
"q q q f q q e h h j j T *.*._ j I =.oXoXQ ~ 2.=.2.4.5.>.! lXjXoX-.j ` R .XI j l f d 0 2 f 0 - d d q ",
"r r q q q 0 w q h j ` 3.lX,.{ | oX3.XX=.$.I -X%X/./.5.>.@.6.3.=.XX-.-.xXOX>X` d k f 2 < 0 0 - - 1 0 ",
"r r q h w 0 0 0 0 T *X3.=.3.,.' .XoX3.<. .L ..^.^.^.:. .%.4.6.>.=.I 2.zXxXOXOX' p u 2 q q d d - 0 0 ",
"q q q q 0 0 0 f d T 3.6.5.>.<.;.( %X ./ 6 Z J H G A.C.F A ^  .:. .%.=X*XoXkXoX_ u u u q h h d - 0 d ",
"q q q f q 0 0 h u P i >.5.2.<.#XD @ n G y.d.J.d.d.Q.J.F.S.A.G % L :X:X/.*XXX' y k k q q q q d - h h ",
"0 0 q h q 0 q f k T *.Q %.<.4.^ c * E.J.J.J.R.x.x.rXK.Y.R.R.J.i.S ^ !.~.>.] { o.k 1 0 x e q q 9 0 d ",
"q 0 f h q q r q k o.=X<.Y #.x s i.q.L.J.Y. X{.{.B.hXrX X]. XK.l.W.& # ^ ( %XxXo.U d q h q q q 9 0 d ",
"f 2 1 0 q q q f _ %X<.%X&.$ # A.F.s.0X{.qX[.tXB.{.hXyXtXrXiX`.c.Q.E.H @ ^.;X%XOX{ U 2 q 0 0 h 0 q w ",
"0 - g g w e x f ! 7.jX/.) % S.L.R.z.wX3XrX7XiX`.2XhXyX8XrXyX{.M.wXU.W.G D %X4.,.@.! j u q 2 0 e w q ",
"0 0 g - 0 w < X.,.$.%.&.% i.L.K.U.m.pX2XyXtXyX3X2XdX8X8XrXyX'.B.7X2XT.F.G ^  .=.] ] Y f q e e w w 0 ",
"0 q d g 0 0 z ;.5.oX;.^ / J.R.[.5XM.pX9XyXtXtX3X1XdX9X9X6X6X'.N.yX|.].Q.S.c ..<.oX{ k < e e ; w w 0 ",
"t f - d y d O.%X*.>.^.D S.P.].7X5XN.aX9XpXtX7X`.1XdX4X9X6X6X'.N.yX|.{.I.L.G H.<.=.XXO.t r ; w w 9 0 ",
"e < h y y y T } { | ^ H P.T.3X3X4XN.fX4XyX8X3X`.V.dX|.}.rXyX6XB.yX6X|.[.Y.F.D #.@.@.` = 1 q w r w q ",
"q 0 y y u [ ;.,.>.~.s i.@X3X2XyX4XV.dX4X8X6X7X2X1XdX6X8XiXyX6XB.fX6X6X|.].G.# %.#.-.o.o.o.f w w 0 q ",
"9 0 1 k E <.%X*.XX#XD l.wX'.7XyXwXN.dX7X6X6X8X5X1XdXyXyXyXyX2X`.aX4XtX3XeXE.C <.OXxXlX6.#.p k w f 0 ",
"; 0 f y } %X,.OX-.1.F l.wX2X8X7X4XN.dX8X9X9X7X1X1XfXyXyXyXyX2X2XaX4X2XtXqXQ.D XX.XOX6.6.>.i l e h f ",
"9 w d y ( %X5.oXkX<.v J.wX6X7XrX3XV.fX9X6X6X7X`.B.fX8XfX9X8X{.V.pX4X2X9XpX+XD ;X,.3.jXjX2.i j h 1 0 ",
"w - d u T ,.=.=.3.<.Z l.5X2X7XtX5XN.dX9X9X3X3X`.V.fX9XfX8X8XV.2XdX1X9X1XyXeXF :X,.3.6.2.$.i f h 0 1 ",
"; ; w d j ] ~ ] ~ [ c F.wX3X6X3X3XN.sX9X9X}.3X`.V.pX2X8XrXtXV.'.yX'.9X2X8XwXc ( | E Q Q Y a 1 d k 0 ",
"; ; w h k : : @.7.%.6 F.wX[.qXqX].M.pX'.|.[.3XV.V.fX2X9X7XtXN.B.sX'.`.3X9XqXC ( ;.| K a 1 y 0 k q h ",
"9 0 0 0 h f K kXcX;XC F.wX3X3X7X`.M.yXV.'.'.3XV.N.pX'.}.}.rXM.M.7X{.5XqX3X+XF -X&X<.k y 1 0 h d 0 0 ",
"- h 0 9 h k K .XkX(.Z F.wX3X3X3X5XM.sX'.6X}.rX_.B.yX'.}.}.[.M.`.uX5XL.L.T.eXx %X;.;.K k e 9 h < h w ",
"0 0 r 0 q d : @.4./.F l.0X5X3X3X].M.sX'.6X}.qX1XV.8X'.'.qX[.`.`.0XL.<XbX<X<X^ ,.;.X.Y j g w w h h e ",
"k < w k 0 f I -.<.O.n G.0X1X2X3X].M.yX'.|.3X3XN.N.yX|.[.[.rX`.U.gXO H.,Xi.(.W ,.| ] I K j k 9 e 9 w ",
"< q f k j y a ! E s 4 G.0X].3X2X].v.aX'.}.}.7XB.B.sX'.6X6XrXU.R.<XG ..:X!.!.L ( ( ! j : K K g w w 0 ",
"q < 1 y P *.7.=.#. .5 D.wXqX[.3X3Xm.hX6X6X}.8X_.B.hX[.9X[.rX`.T.E.$XW L vX!.$ $.=.$.{ ] @.K w r 0 h ",
"h 9 0 = I oXlXjX-X#XZ D.eX[.{.[.[.v.hX[.}.[.7XB.m.sX[.9X3X7XM.@XG.F L $ ..) a *X-..XOXOX>.u 9 w q 0 ",
"h 0 d y ' oX7.kX>.:.n l.eXrX{.{.U.k.sX7X}.[.rXM.z.yX{.[.3X0Xn.@XG.Z (.(.) o W 2.| =.OX=X*.u e e q r ",
"w 0 d d ] oX6.kX>...Z A. X X).).n.k.uX].[.].3XM.z.aX_.{.{.5Xc.c.@Xo O b c J ^ zX4.4.XX<.;.P j 9 0 0 ",
"d 9 0 y ` -XkX6.6.%.D F.Q.K.).K.x.t.uXI._.].{.b.v.uXM._.Y.].z.c.R.c.W.F.<X,X$ ;X%XoX%X4.#.j d - 0 w ",
"q 0 2 < k ;.=.$.] ^ v A.Q.K.K.K.h.r.iXb.I.{.K.v.x.qXv.b.K.I.j.x.M.c.c.g.g.W.$ | #.#.#.| I : j j 1 0 ",
"3 2 0 u k K K Q >.| $ C.J.g.g.g.j.r. Xh.K.K.K.f.k. Xf.f.b.b.t.a.z.t.s.e.a.F.$ Q %.( P a = : l = 0 0 ",
"2 q 0 f u K i ,././.^ V Z.p.a.a.r.e.Y.h.Z.h.J.g.j.Y.j.j.g.g.u.u.g.8.q.9.q.A.s =X5.3.Y p f d - 0 0 0 ",
"2 0 q h x k i >.2./.A b y.q.u.p.w.8.J.a.j.j.a.u.u.K.e.a.a.a.w.8.p.* B 9.y.A.L zX1.<.p 1 9 0 9 h d 0 ",
"d 0 0 d y k P ,.<.<.A b y.B 9.y.* * Z.q.u.Z.q.q.9.Z.9.9.w.w.* + y.& * * * Z $ 4.%.<.k y 0 w 0 9 h 0 ",
"> g d 9 9 f l ,.;.} s @ N M m * O + C.B 8.9.9.* 0.i.* M M B & & B & * * & b a 1.%X;XT 1 0 - 0 0 0 h ",
"g 0 w w r f y ` _ E 7 # b b c O O % H N & V N m V H & & & & @ X m X O X O C a _  .X.k d g - j h q q ",
"g - 9 w e e 0 y = = 3 3 4 4 , 4 . # c @ @ 5 # . 5 C @ c 5 6 # . 5 . 4 . . 4 3 y 1 j y j h 9 0 h 0 w ",
"j 9 9 0 t e d d > > f x t t t t f f 7 7 7 7 t r 2 t 2 7 2 x f q 7 q h x 7 u f j d y j g 9 < < r r q ",
"f 2 q 0 0 r 0 j g > d q t q r e 0 j 0 f q < h 0 e r 0 0 0 d d d f d d 9 1 1 d d d ; d 9 9 r r 2 e e ",
"0 f q q h q d h d 0 d 0 0 h h q 0 0 d 0 0 1 0 d h 0 0 < d 0 d d 0 q 0 1 1 1 f 0 0 0 0 0 0 w 0 q q 0 ",
"0 0 0 0 0 h 0 q d 0 0 0 0 0 h 0 q e 0 0 - 1 d d h 0 < < 0 1 1 y d 0 d 1 1 f f 1 < 0 9 0 0 w < q 0 0 "
};
