/* XPM */
static char *__removebg_preview__1_1705541535[] = {
/* columns rows colors chars-per-pixel */
"50 50 171 2 ",
"   c #77190F",
".  c #7D1C16",
"X  c #7E1C19",
"o  c #4A3D1B",
"O  c #6F2518",
"+  c #72241A",
"@  c #7D3026",
"#  c #7C3B29",
"$  c #3D451E",
"%  c #3E4D26",
"&  c #3F4F28",
"*  c #3E4422",
"=  c #3E532A",
"-  c #434919",
";  c #54491C",
":  c #414725",
">  c #494221",
",  c #434C26",
"<  c #4C4B25",
"1  c #444E2A",
"2  c #4C4D2B",
"3  c #504E27",
"4  c #524D2B",
"5  c #594A2D",
"6  c #425127",
"7  c #4D5627",
"8  c #45542D",
"9  c #49552E",
"0  c #45592D",
"q  c #49582F",
"w  c #505125",
"e  c #52512D",
"r  c #5C4D31",
"t  c #475530",
"y  c #495630",
"u  c #465830",
"i  c #4A5932",
"p  c #545332",
"a  c #525A34",
"s  c #585E38",
"d  c #5A5434",
"f  c #604E28",
"g  c #654725",
"h  c #6B542B",
"j  c #644C33",
"k  c #6C4D37",
"l  c #7C4D3B",
"z  c #6A5334",
"x  c #695338",
"c  c #705A31",
"v  c #74563B",
"b  c #7E5239",
"n  c #705939",
"m  c #5D653E",
"M  c #7D683D",
"N  c #665F43",
"B  c #7D5F47",
"V  c #737553",
"C  c #7E7856",
"Z  c #767856",
"A  c #6A6A48",
"S  c #821A15",
"D  c #841E18",
"F  c #8A191B",
"G  c #882017",
"H  c #83211B",
"J  c #8D271D",
"K  c #92251C",
"L  c #95291D",
"P  c #9A2A1F",
"I  c #842322",
"U  c #822F21",
"Y  c #8D2C25",
"T  c #962E25",
"R  c #9E2E21",
"E  c #82322C",
"W  c #893626",
"Q  c #94342C",
"!  c #9E382A",
"~  c #923432",
"^  c #A23326",
"/  c #A3352A",
"(  c #A7392A",
")  c #AA382A",
"_  c #B03F2F",
"`  c #9D432E",
"'  c #874137",
"]  c #804D3A",
"[  c #8C413B",
"{  c #81583A",
"}  c #83573A",
"|  c #9C513C",
" . c #AA412E",
".. c #A74834",
"X. c #A94D38",
"o. c #A94736",
"O. c #854D40",
"+. c #825542",
"@. c #935943",
"#. c #9B5347",
"$. c #A35E44",
"%. c #B4534D",
"&. c #BB5C58",
"*. c #986747",
"=. c #9E6A49",
"-. c #8F6B53",
";. c #837858",
":. c #A4664F",
">. c #A86548",
",. c #A5735F",
"<. c #A86957",
"1. c #9B7D65",
"2. c #CA6155",
"3. c #CC6C61",
"4. c #E3786E",
"5. c #E37B70",
"6. c #7E895F",
"7. c #858968",
"8. c #848162",
"9. c #9E8E75",
"0. c #9E9878",
"q. c #9C9376",
"w. c #AF806C",
"e. c #A5856E",
"r. c #AF8D74",
"t. c #BF8474",
"y. c #A89378",
"u. c #B5967A",
"i. c #C68C7E",
"p. c #DF887F",
"a. c #E9887F",
"s. c #B4B18E",
"d. c #C79887",
"f. c #DC9788",
"g. c #DA9A8D",
"h. c #EF8E87",
"j. c #E68D89",
"k. c #F08783",
"l. c #F18C84",
"z. c #F38E8A",
"x. c #FC8B85",
"c. c #E4958B",
"v. c #EB958A",
"b. c #E7998F",
"n. c #F4918D",
"m. c #EC9D94",
"M. c #FE9E92",
"N. c #FF9D98",
"B. c #C0AD8D",
"V. c #C0AF95",
"C. c #C5BF9F",
"Z. c #CDBC9F",
"A. c #DAB098",
"S. c #E6A096",
"D. c #E9A097",
"F. c #DEB2A1",
"G. c #EEBFAF",
"H. c #C4C1A0",
"J. c #C8C5A2",
"K. c #DAC9AD",
"L. c #DDCEB1",
"P. c #D0D1B1",
"I. c #DAD5B5",
"U. c #E4CEB6",
"Y. c #EFCCB8",
"T. c #E5DCBF",
"R. c #E9DCBD",
"E. c #EBD4B9",
"W. c #FCD9C3",
"Q. c #EBEBC9",
"!. c #FFEFD3",
/* pixels */
"8 i i i u 8 8 8 8 i t u 8 8 8 8 i i 8 8 8 & 8 8 8 8 i i 8 8 8 8 8 8 8 8 1 8 u 8 t i i i 8 0 0 q 1 1 ",
"8 u i u t 8 8 8 8 8 8 8 i t i i i t 8 8 8 8 8 8 8 8 8 t t i t 8 8 8 8 8 8 8 t 8 t t i i i 9 8 8 9 t ",
"t 8 u u t 8 8 8 8 t 8 8 8 8 t i u 8 8 8 8 8 8 8 8 8 i i 8 u 8 8 8 8 9 8 8 8 8 8 8 8 u i i t t t 9 t ",
"t 8 8 t 8 8 t 8 u 8 8 1 8 8 8 8 8 8 t t t t 8 8 t t 8 8 8 i 8 8 8 8 8 q 8 8 8 8 t 8 8 i t t t t 8 1 ",
"i t t 8 8 8 u 8 q 8 8 8 8 8 8 8 9 8 t q t 9 8 8 t 8 8 8 8 i 8 8 q 8 q q q q i i i 8 8 8 8 t t t 8 8 ",
"8 q 8 8 t 8 8 8 8 8 8 8 8 8 8 8 8 t 8 8 8 8 8 8 8 8 8 8 8 t t 8 6 9 q 9 9 i i 9 8 i t 8 t t t & 8 9 ",
"8 8 t 8 8 t 8 t 8 t 8 8 8 8 8 8 8 8 8 t 8 8 8 u 8 8 8 8 8 q 8 8 8 6 q 9 8 q 9 0 8 t t t t t 1 1 9 8 ",
"8 8 8 u 8 8 u 8 t i t i i t 8 t 8 8 u i t 8 i i u t 8 t 8 8 8 , 6 0 9 0 0 q q 0 t 8 t t t t t 8 8 8 ",
"8 8 8 t t t i t i i i q t 8 i 8 i i 8 8 t i i 8 8 8 u t 8 8 8 8 q q 6 q q q 9 8 t & & 8 1 t t t 8 8 ",
"8 8 8 u y y t t 9 9 t 8 8 u u i t t 8 8 8 i i 8 8 t 8 t i i 8 8 9 6 6 8 q 9 q 8 t 8 t t t 1 t t 8 9 ",
"8 9 9 8 y 9 9 y u 8 8 8 8 t 8 8 8 8 8 8 8 i i u 8 8 8 8 t 8 8 8 8 6 6 0 q 9 9 8 8 8 t t 1 t t 8 8 8 ",
"y y 8 9 8 y 9 9 9 t 8 8 8 8 8 8 8 8 8 8 8 i i t 8 8 8 8 8 8 8 8 8 0 8 9 q q q 8 8 t t t & t t t 8 8 ",
"y 9 8 2 t t 9 8 t 9 9 8 8 8 8 1 8 8 8 8 8 t t 9 i t 8 1 8 & 8 8 t q i t 8 8 8 8 8 t i t 1 8 9 q 8 8 ",
"y 9 1 8 y i p y 9 t t i t u 8 8 8 8 8 8 8 8 i 8 8 i 8 8 8 8 8 8 i t 8 8 8 8 8 8 t t i t 8 0 t 8 8 9 ",
"y 2 9 8 9 y t y 9 9 t t 8 8 8 i t 8 8 8 8 8 8 8 8 t 8 8 8 8 8 8 t 9 8 8 8 t 8 8 i t i i 6 9 0 8 9 y ",
"y y y 2 9 9 9 y 8 9 8 8 8 8 8 i 9 y 1 , , 8 8 8 8 q 8 8 t 8 1 8 t 9 8 8 t u 8 8 8 8 8 8 q 6 9 6 9 y ",
"8 8 8 8 8 8 8 u 8 8 6 0 6 8 9 9 1 1 N 9.;.y & = q q 7 q 0 8 t t 2 9 9 8 = q t 9 8 8 8 8 9 9 q q q q ",
"8 8 8 8 8 u t t 8 8 6 6 9 6 8 9 2 2 9.U.T.V * 9 3 3 e 7 6 0 y y 2 7 9 , = 8 i t 8 8 9 9 q q 8 8 0 8 ",
"t 8 8 8 i 8 8 t 8 , 6 8 0 6 6 6 a 0.s.L.R.;.- n } } h w 7 0 i 1 0 0 8 6 = 8 8 8 8 y 8 y q 0 6 0 6 6 ",
"t 8 8 t 8 8 1 8 8 8 , 8 9 q 9 6 s J.C.F.E.u.b | | | *.h 6 7 9 i 0 8 0 q 8 8 8 1 1 9 y 9 0 0 8 0 q q ",
"9 8 8 t 8 & = 8 8 8 8 8 0 8 0 8 8 6.s.B.A.<.W Q !  .X.>.c - 7 0 0 0 0 q 2 1 8 8 8 y t 9 q 8 6 0 q q ",
"8 8 8 8 8 1 8 8 8 8 8 8 8 8 8 q 8 , 7 z @.U T / ! ) ) ..=.M ; w 6 8 0 9 2 9 t 8 8 y i t q 0 8 0 6 q ",
"1 8 8 8 8 8 8 8 8 t i t 8 8 8 9 8 a < z # . K P P (  . .` *.=.g e 9 9 p t i t 8 1 t i u q 0 0 6 9 q ",
"8 8 8 8 8 8 8 8 8 i i i 8 1 8 i p 6 e n O D J K P R ^ (  ...X.:.z 4 2 7 y y y 2 8 t i i i i 8 = q q ",
"8 u 9 8 8 t 8 8 8 8 u i 8 8 8 8 y 1 5 B . . F Y P L ^ ^ R  .2.3.,.f e 9 8 9 2 y = 8 = 8 9 0 , 0 q 8 ",
"8 8 8 8 8 8 8 8 8 8 i t t 8 8 q t 2 r k @ I D F G L K / 2.4.x.h.f.-.4 8 = 8 a y t u = = 9 q = 6 t 9 ",
"8 8 6 8 8 8 t q 1 8 8 8 8 u 9 t 2 2 p j O.I X X H L T 4.M.a.l.h.D.w.2 8 = 0 i a u 8 = 8 9 e 0 6 9 y ",
"8 0 8 6 8 8 i i 8 8 8 8 8 t t 8 y 1 2 5 O.E I X +   3.l.v.c.a.m.m.,.4 q u 8 9 a t = = 8 7 q 9 9 8 8 ",
"6 8 6 8 8 0 8 9 t 8 8 8 8 i 8 8 t t t 2 x B Y F X Y N.z.c.f.g.d.t.l - , 8 1 9 1 8 = = = 9 7 y 9 y 1 ",
"6 8 0 6 8 8 8 8 i t 8 8 8 8 8 8 t u t t 2 k ~ ~ . %.z.z.c.g.G.A.d.r.C 1 t , y 2 8 8 u u q e 9 9 y y ",
"9 9 q 8 0 8 8 t t 8 8 = 8 8 8 8 8 u = u 1 4 j +.@ &.z.n.j.m.F.Y.W.!.I.m 8 8 y p u u u 8 y i 2 y y y ",
"q q 9 8 0 8 i 9 i 8 8 8 8 t t q 8 u t 8 y y y r l #.c.m.D.d.d.U.R.R.Q.V , a t 8 t i 8 = i p 9 y y y ",
"q q q 6 & 8 y y i i & & t t y t & 8 8 8 8 t 9 p 5 x +.e.1.j y.L.L.H.7.a 2 i t 1 8 8 6 0 q 9 6 9 t t ",
"q q 0 7 = 8 t t t t t & t t y t 8 8 8 t y t 2 2 2 e 2 2 4 > C C.P.Z * 1 y 1 8 t 8 8 8 8 9 0 7 6 8 8 ",
"6 0 0 q 8 8 8 8 t 1 t t 8 8 t 8 8 8 8 t y y 2 1 : 2 p 2 2 2 2 A V 2 * t 8 1 8 % 8 = 8 q 9 t 9 9 8 8 ",
"0 0 q 0 8 8 8 8 t t t t 8 y t 8 8 8 1 8 y 9 8 9 9 9 2 y 2 2 y 8 * 2 p t t t 8 & 8 8 0 0 q 9 9 7 8 8 ",
"6 6 6 8 9 q i i 8 8 8 8 y t 8 8 1 1 1 9 8 9 8 8 1 9 8 t 8 1 a i t i 8 9 a t = i 8 t 8 8 8 t 9 9 8 8 ",
"0 0 8 8 8 8 8 i 8 8 8 8 8 8 8 8 8 9 y y t 9 8 8 8 9 8 8 8 8 = a t i i i 8 8 t 8 t 8 t 8 8 8 8 9 8 8 ",
"0 q 8 8 = 8 8 t 8 8 1 8 1 8 1 8 9 a y y t y 9 8 8 8 & = 8 u = u i 1 t 8 1 = t 8 8 8 8 8 8 8 8 t t t ",
"6 9 0 , , 8 u i 8 8 8 8 = & & 8 9 y y 9 8 i i 9 8 8 8 i & t i 8 t 1 8 8 8 8 8 8 = t 8 8 1 8 9 y 8 8 ",
"8 t i 8 8 8 8 8 8 8 8 8 8 1 8 8 0 8 8 9 t 8 9 8 8 8 9 9 i i 8 9 0 6 = 8 t t u u u 8 8 8 8 8 8 8 8 8 ",
"8 8 u 8 8 9 8 9 i t 9 8 8 8 8 & 8 8 8 8 i 8 8 8 8 8 8 i i i i t 9 0 0 8 i u i 9 8 8 8 8 8 8 8 8 t 8 ",
"8 t t 8 8 8 q 9 t 8 8 8 8 9 8 8 0 6 6 8 8 0 0 8 8 9 q 9 i 9 y 9 i i i 8 8 u t i = 8 t 8 8 8 t i t 8 ",
"t t t 8 8 8 8 8 8 = 6 0 i t 8 = 8 6 6 0 8 q q 8 9 9 q i e 9 9 7 i i u t 8 8 i t 8 t t 8 8 9 t i 8 8 ",
"t t t t 9 8 8 0 0 6 6 0 t u 8 8 6 6 6 6 0 q 0 6 0 8 q q q 9 9 0 0 t 8 t 8 t t 8 8 9 8 0 8 8 9 8 8 t ",
"t t t t 8 8 0 9 q 0 0 8 8 u t 8 8 9 q 9 q 0 6 & , 6 q q i u 9 8 8 t t 1 8 t 9 8 9 9 6 8 8 8 0 0 t t ",
"t t 1 t 8 8 8 q q 6 6 0 8 8 t u q 9 q 8 6 8 8 8 8 8 0 0 t q t & t y y t 8 y 9 8 8 8 6 6 6 q 0 6 u i ",
"t 1 t 1 8 9 6 q 9 q = 8 8 8 8 8 0 9 6 9 6 q q 0 q 8 8 6 = t t & t t 1 1 1 9 8 , 8 0 8 6 8 9 9 0 8 8 ",
"1 8 8 0 0 8 q 9 9 i 8 8 8 8 8 8 8 9 9 8 8 = 8 8 t t 8 & 8 8 t t t 2 t 1 t 1 1 t 8 8 t 8 8 8 t 8 8 0 ",
"9 t 8 8 8 8 8 9 8 t u 8 8 8 8 8 0 q 8 8 1 & 1 t t t 8 & 8 8 & t t t 2 t 1 t 8 8 8 8 t 8 8 8 8 8 q 0 "
};
