/* XPM */
static char *eb27dc4bf7aa443ba522b09d6c636c869w6xhr8th1fwlHkt[] = {
/* columns rows colors chars-per-pixel */
"50 50 238 2 ",
"   c #34381B",
".  c #2A321A",
"X  c #293825",
"o  c #383B29",
"O  c #2C372C",
"+  c #413E27",
"@  c #3A451C",
"#  c #3C432C",
"$  c #3B4526",
"%  c #3E532A",
"&  c #3E4934",
"*  c #374738",
"=  c #46531F",
"-  c #434527",
";  c #444D25",
":  c #444529",
">  c #454C2C",
",  c #4A4D2C",
"<  c #4A4B27",
"1  c #54452C",
"2  c #445226",
"3  c #4A5525",
"4  c #45542C",
"5  c #4A542D",
"6  c #4B592D",
"7  c #45582D",
"8  c #51572D",
"9  c #444C33",
"0  c #4A4D33",
"q  c #434C3B",
"w  c #454939",
"e  c #514B35",
"r  c #455531",
"t  c #4B5432",
"y  c #455932",
"u  c #4B5934",
"i  c #4C543A",
"p  c #4C5A3C",
"a  c #45543C",
"s  c #525433",
"d  c #51543B",
"f  c #555A36",
"g  c #615137",
"h  c #042C5D",
"j  c #0A2B56",
"k  c #0B335C",
"l  c #06365D",
"z  c #1A3659",
"x  c #153149",
"c  c #263C58",
"v  c #062C64",
"b  c #043365",
"n  c #0A3565",
"m  c #0B3964",
"M  c #04346B",
"N  c #0B366C",
"B  c #0B3A6C",
"V  c #07396E",
"C  c #143C63",
"Z  c #123C6C",
"A  c #193A65",
"S  c #053672",
"D  c #093773",
"F  c #0B3C75",
"G  c #053B7A",
"H  c #0A3C7A",
"J  c #073B74",
"K  c #153C72",
"L  c #102E62",
"P  c #3C4B43",
"I  c #3D4E4D",
"U  c #354847",
"Y  c #2A455A",
"T  c #354B54",
"R  c #3A4C58",
"E  c #39535A",
"W  c #2F434E",
"Q  c #15426D",
"!  c #1B446B",
"~  c #1B4669",
"^  c #0D4275",
"/  c #0C447C",
"(  c #0C497E",
")  c #07427E",
"_  c #124373",
"`  c #1C4B76",
"'  c #11457B",
"]  c #154B7C",
"[  c #1B4D7C",
"{  c #1A4478",
"}  c #1C517E",
"|  c #234565",
" . c #22456A",
".. c #274B6A",
"X. c #364A63",
"o. c #385768",
"O. c #234C74",
"+. c #2A4B75",
"@. c #2C5475",
"#. c #295379",
"$. c #26567A",
"%. c #315574",
"&. c #3C5D74",
"*. c #355A7B",
"=. c #3A5D7A",
"-. c #335875",
";. c #2F5273",
":. c #3A6179",
">. c #444D42",
",. c #4A5343",
"<. c #4B544C",
"1. c #4C594E",
"2. c #455648",
"3. c #555947",
"4. c #4A5654",
"5. c #4D5B53",
"6. c #4B5C5B",
"7. c #45565A",
"8. c #565C58",
"9. c #444D5E",
"0. c #645E4E",
"q. c #5B634E",
"w. c #56654A",
"e. c #536257",
"r. c #5B6454",
"t. c #5A665B",
"y. c #56685D",
"u. c #4F695E",
"i. c #62664C",
"p. c #676859",
"a. c #71725D",
"s. c #67705D",
"d. c #445B63",
"f. c #475B68",
"g. c #545E64",
"h. c #445C75",
"j. c #595E71",
"k. c #4D6163",
"l. c #4A636A",
"z. c #46606D",
"x. c #546464",
"c. c #53656C",
"v. c #596968",
"b. c #426274",
"n. c #43637B",
"m. c #4C6A7B",
"M. c #4B6676",
"N. c #566975",
"B. c #5C7479",
"V. c #657579",
"C. c #6D716A",
"Z. c #69807A",
"A. c #053E81",
"S. c #0C4582",
"D. c #0C4A84",
"F. c #0D4B8B",
"G. c #0A4789",
"H. c #124B84",
"J. c #1B4C83",
"K. c #114D8B",
"L. c #134786",
"P. c #0E518C",
"I. c #13538D",
"U. c #1B538C",
"Y. c #195588",
"T. c #0E4E92",
"R. c #114E91",
"E. c #0E5292",
"W. c #0E599C",
"Q. c #145493",
"!. c #1B5591",
"~. c #155A94",
"^. c #1B5A94",
"/. c #14559A",
"(. c #155B9B",
"). c #1B5C9C",
"_. c #19579B",
"`. c #235584",
"'. c #275988",
"]. c #345F86",
"[. c #215E9A",
"{. c #205996",
"}. c #1C629D",
"|. c #16629A",
" X c #37648A",
".X c #206496",
"XX c #22639D",
"oX c #2A6B9D",
"OX c #2B6395",
"+X c #386A95",
"@X c #3E7199",
"#X c #1B5CA1",
"$X c #205FA2",
"%X c #1C64A3",
"&X c #1D69A5",
"*X c #1D6AAA",
"=X c #1764A5",
"-X c #2265A3",
";X c #2369A5",
":X c #236CAA",
">X c #286EAC",
",X c #2667A5",
"<X c #336EA5",
"1X c #2572AE",
"2X c #2A72AC",
"3X c #2675AB",
"4X c #286FB1",
"5X c #2573B2",
"6X c #2A75B3",
"7X c #2C79B5",
"8X c #2D7CBB",
"9X c #2977B7",
"0X c #327BB5",
"qX c #327EBA",
"wX c #3679B8",
"eX c #486A87",
"rX c #526E85",
"tX c #577588",
"yX c #487194",
"uX c #5B7D94",
"iX c #547A97",
"pX c #446F91",
"aX c #637A87",
"sX c #497AA4",
"dX c #307DC3",
"fX c #3381BD",
"gX c #678293",
"hX c #7B8E96",
"jX c #5B84A7",
"kX c #658BA8",
"lX c #628FB8",
"zX c #3483C2",
"xX c #3986C8",
"cX c #2E81C3",
"vX c #418DCB",
"bX c #858C87",
"nX c #859998",
"mX c #8B98A1",
/* pixels */
"4 4 4 5 5 5 5 t r u y 4 4 4 2 6 u r % 7 4 s 1 g 1 1 f i.u 4 f 4 4 4 4 4 u u 4 4 4 2 r r r 4 5 5 4 4 ",
"4 4 4 4 5 5 5 t r r r y 4 4 6 6 4 r 2 6 6 s 0 p.3.0.p.3.$ 4 t 6 4 4 2 4 u u 4 4 4 4 r r 4 4 6 4 4 2 ",
"r r 4 4 r u u 4 4 r 4 4 4 4 2 2 5 2 < , , p.v.x.k.V.e.s.i., : s 5 4 2 4 u y r r 4 4 r r 4 r 6 4 2 2 ",
"r r r 4 r r r 4 t 5 , 5 5 6 r 4 6 2 < o o v.c.o.:.b.E x.s.i.d - 5 6 4 4 u r r r 4 r u 6 4 4 u 4 4 4 ",
"u 4 4 4 r r 4 5 > s s s s 5 ; 5 5 - o O g.N...~ ~ $...Y B.C.3.o > 8 5 4 y r r r 4 r t 6 4 r u r r t ",
"u 4 2 4 4 r r t s : + : 0 i t # # q 4.d.n.;.! [ ] _ _ #.n.f.v.,.0 , t 4 2 4 4 4 t r t 6 4 4 y r r t ",
"5 5 2 4 6 6 4 > o . 3.s.q ,.r.P 6.7.o.@.` _ ] ' ] ( U.F ` *.o.c.2.# t 6 2 4 % 4 r r t 6 4 4 y r r t ",
"5 5 5 5 6 4 $ X <.4.x.v.x.k.v.B.M.=.~ ] H.H.Y.H.H.K.Q.F.S.[ O.&.7.o q r 2 3 ; 5 u r u 6 4 4 4 4 r 6 ",
"t t t r i X * Z.aXgXkXtXeXeXuXiX+X[ H.Y.Y.P.D.I.K.K.Q.K.S.( ] $.n.T * p 2 = 3 3 6 u y 4 4 4 4 4 4 6 ",
"t u t u X X B.tXuXkXlXsX X+X@X+X.XI.!.^.Q.I.D.D.I.I.Q.Q.K.S.( J.-.h.6.2.u 8 3 = 2 4 y y r 4 4 5 6 6 ",
"5 t t 9 . I tXuXsXsXoX<XXXoX!.Y.(.(.(.^.!.U.I.I.I.I.I.^.U./ / ' ` | f.U $ 8 3 6 5 2 % 4 y u 6 6 6 6 ",
"8 , i & P B.tXjX+X{.Q.-X(.~.P.~.|.|.(.^.^.!.!.}.~.~.I.^.U./ / ^ _ C | T * 9 t 5 4 4 4 r u u 5 ; 5 4 ",
"8 > 9 P c.uXjX@X<X,X:X2X:X-X;X:X=X=X|.}.XX).XXXX}.}.(.(.~.H.J.' / ^ ! o.7.5.o $ > t u u 4 5 5 6 5 4 ",
"3 5 q x.m.pX@X<X0X;X&X:X6X5X1X:X1X1X&X&X-X;X2X-X2X2X;X}.}.^.U.H.) H.n ..X.7.<.o .   : t t r 5 5 4 4 ",
"5 p 2.B.pXOX!.4X:X=X*X5X9X5X9XdXdX8X1X:X;X3XqX6X6X6X2X2X;X-X).Q.P./ J Z z X.g.<.o . . $ > > 4 6 4 4 ",
"t a E &.@XY.#X:X=X*X5X5X9X8XcXzXxX8X1X7X3X3XfX8X5X1X7X7X2X:X(./.Q.K.J N n z X.7.8.>.q q.i.i > 4 4 4 ",
"5 q E  XOX^.).E.W.=X*X8XqXzXzXzXxX8X5X7X7X7XfXqX7X0X0X0X2X2X;X}.).K.S.F N n z Y h.f.6.5.r.q.i   t 4 ",
"t 1.m.pXOX)._.E.W.*X*X1XqXvXzX7XfX6X5X9X7X6X7X7XfX0X0X0X0X0X2X-X^.K.H./ J M n C *.b.z.7.<.1.3.t r 6 ",
"9 >.m. X!.)./.(.*X6X7X6XzXfX6X6X1X:X5X9X7X5X9X8X6X2X2X0XqX0X>X}.Q.Q.K.S.F V n k  .&.M.l.2.<.,.d t t ",
"9 P n. X!.)./.;X6X6X0X0XqX>X:X6X:X5X9X8X7X5X9X8X6X6X0XqX0X2X>X;X(./.Q.D.H F B n C %.n.z.T 5.1.r.d 5 ",
"& I =.'.U.Q./.%X:X%X;X;X4X4X6X:X6X7X8X7X5X*X1X6XfXqX7X7X>X;X;X:X#X/.Q.F.) / F B Q @.=.&.E k.6.t.3.5 ",
">.7.-.J.H.Q.$X,X%X/.(.}.%X:X>X}.:X1X:X:X*X&X*X5X8X5X1X1X:X:X;X;X#X(.(.I.S./ F B _ ` *.:.&.M.d.6.3.s ",
"P T  .F G R._.).).Q.I.)._._.).(.(.%X%X=X*X*X*X5X5X1X5X8XqX7X1X&X%X(.).Q.F.D./ ^ B Q #.-.&.m.z.v.3.s ",
"I W A F K.Q.F.F.Q.P.D.Q.Q././.(.%X%X%X%X*X*X*X:X5X5X6X8XqXqX6X&X&X).).).Q.K.D.' / _ '.*.=.n.b.c.C.f ",
"6.T ! F S.G.G.S.F.D.D.D.K.R.Q.E.).&X#X%X*X*X5X5X5X9X9X8XfX8X:X:X;X;X%X(.Q.I.H.( / _ ` #.*.eXb.c.s.1 ",
"4.d. .D A.A.S.G S.S.D.D.K.R.E.E./.%X%X&X:X:X6X5X9X8X8X8XqX9X:X:X:X;XXX}.).!.K.H./ ^ Q O.].iXeXf.p.e ",
"4.f. .M H G H G ) / ( D.K.K.F.F.E.).;X:X4X5X6X6X9X8X8X8XqX7X6X6X2X;XXXXXXX^.I.H.' ' _ Q O.eXn.f.p.e ",
"5.d.! N H G H H / / / D.F.K.F.F.E.).%X:X4X5X6X9X8X8XqXqXqX7X6X2X>X;XXXXXXX{.^.U.H.] _ Z Q *.eXM.r.d ",
"1.7.| Z S G G G H / ( S.K.K.P.P.Q.~.).}.:X6X9X8X8X8X8XqX0X7X2X:X;X;X;X-XXXXX{.!.H.( ^ _ ! @.*.f.r.s ",
">.I ..Z M H G S H / ( S.K.K.I.E.Q.Q.(.(.:X6X9X8X5X5X6X7X7X6X2X:X;X>X>X,XXX-XXX^.Y.( ^ _ Q O.%.o.1.s ",
"q I c n M S D D H H ( ( L.K.I.E.Q.Q./.(.:X6X5X5X5X5X5X1X&X&X;X%X:X:X>X;X-X-XXX{.K.( ^ _ Q O.*.M.,.5 ",
"3.4.z n N S S D F H / ( D.F.F.Q.I.P.Q.Q.%X>X&X%X:X*X:X:X).).%X-X:X:X:X;X,XXXXXXXK./ / _ Z ! -.d.& ; ",
"w 6.c A b M M S H H H / ( D.F.T.Q.K.Q.).).~.(.(.(.%X-XQ._.).(.%X-X;X;X;XoXoX.X^.I./ S.{ Z @.M.u.9 : ",
"w 4.c k v M b M F H H / ( ( G.R.F.D.K.Q.K.Q.(.~.E./._.Q.#X).(.~.).-X;X;XoXoX.X^.D.I.H { { ..l.u.9 0 ",
"0 ,.Y z n M b M N F H / ( S.G.K.K.F.K.F.G.E.~.P.P.E.Q./.#X(.~.I.^.).-X;XXXXX.X^.U.J.{ { O.*.M.v.q t ",
"t ,.R z Z N b n n D F H / / S.L.S.D.F.T.E.P.I.P.I.I.Q././.E.Q.I.Q.(.-XXX[.[.^.!.U.' ` `  .&.M.k.9 t ",
"s 9 T x k b b B n N D F / / ^ / / H.K.Q./.D./ Y.Y.Y.K.Q./.E.I.I.Q./.).).{.{.{.U.U.`.$.@.X.o.k.P t t ",
"t 9 U x k h h n n B D F H / ^ ^ ' K.K.K.K./ J.@X X'.( F.F.F.P.P.Q.Q.!.U.U.U.`.`.OX].$.;.d.e.2.& r 6 ",
"5 9 P c z L v h m m N N F / ^ ^ ^ ' S.( ] '.yXkXyX X` ] H.D.D.H.K.U.U.J.H.Y.`.`. X@.-.E 6.q.> > 6 4 ",
"5 4 P W z L v v n m m b S F F ^ F F _ { O.eXuXuXrXrX%.#.$.] H.H.H.Y.`.[ ] ] $.@.%.X.o.x.1.t , 5 6 4 ",
"3 6 & I X.A v v h m l l F M J J V Z Z ..n.m.B.c.V.aXM.h.=.'.`.] } `.} ] ^ } :.&.l.k.6.5.#   > u 4 4 ",
"3 4 p * E z j h h l l m b M / M n C ..h.V.v.g.8.5.4.x.c.m.eX X[ ] } $._ [ #.b.k.e.a O o $ > f 4 4 4 ",
"2 2 6 9 2.d.z j C C ! Q m N K m O.uXgX6.y.<.w w o w ,.e.c.tXiX[ ' H.J.K #.eXN.t.i $   9 t 5 6 4 4 4 ",
"4 2 2 u & v.E x z A A A  .A | ..rXhXnX1.& q i : 9 0 > w t.hXgX+._ ' { +.h.B.8.d 5 5 r u r 4 6 3 4 4 ",
"r 4 5 5 ; w.y.I T Y z z c X.o.l.v.v.t.9 p u 9 t s t , - q.bXhXtXO.{ #.h.j.8.w < s 6 4 4 4 4 3 = 4 4 ",
"r u 2 2 5 4 w.e.U T R R 9.c.v.5.,.& t u r t r > > 8 < 5 0 3.bXmXrX-.h.N.8.+ - 8 5 ; 4 u y % 2 2 4 4 ",
"r u > , , > > a 2.5.v.v.8.8.w   - f u u r u u 5 6 8 @ 5 5 9 C.bXbXV.v.y.i @ $ u ; t 8 > % r r 7 4 4 ",
"r r t > , t u r p p i 0 9 0 o < 5 f 5 7 4 u 6 4 5 2 5 ; t , : a.a.a.w.q.$ 6 4 4 6 5 5 5 r r 4 r 4 4 ",
"4 4 4 4 4 4 r r 4 4 t 4 > > 0 t 4 5 6 4 4 4 6 6 4 2 6 6 5 t t : s , 0 > 4 4 4 4 4 6 4 > 4 4 4 4 4 4 ",
"4 6 4 4 4 4 4 4 4 4 6 4 4 4 9 r 4 4 6 4 4 4 6 6 4 2 6 r t r t ;     > > t r 6 4 4 4 4 4 4 4 4 4 4 4 "
};
