/* XPM */
static char *_6e885f40313401ec7ae38207b6cd4ed0LOi2cn3oHEs8KyO[] = {
/* columns rows colors chars-per-pixel */
"50 50 249 2 ",
"   c #050201",
".  c #0B0101",
"X  c #090903",
"o  c #140200",
"O  c #1B0301",
"+  c #1A0A00",
"@  c #170A05",
"#  c #1C1305",
"$  c #1A131A",
"%  c #240B02",
"&  c #280801",
"*  c #310D00",
"=  c #350A03",
"-  c #281504",
";  c #331400",
":  c #3B1201",
">  c #361905",
",  c #2D1B15",
"<  c #2C2408",
"1  c #3B2402",
"2  c #3C250E",
"3  c #36270B",
"4  c #3E3109",
"5  c #3A2816",
"6  c #3C351B",
"7  c #382C30",
"8  c #1D1522",
"9  c #470C00",
"0  c #5A0802",
"q  c #471905",
"w  c #571704",
"e  c #561213",
"r  c #661703",
"t  c #741B0A",
"y  c #6E1113",
"u  c #442503",
"i  c #4B2403",
"p  c #492A07",
"a  c #582705",
"s  c #4A320A",
"d  c #583508",
"f  c #462B18",
"g  c #572416",
"h  c #493519",
"j  c #593A18",
"k  c #682704",
"l  c #78290C",
"z  c #683405",
"x  c #753707",
"c  c #682314",
"v  c #663818",
"b  c #773217",
"n  c #483924",
"m  c #4D352B",
"M  c #69332D",
"N  c #3D4D2B",
"B  c #3B4A26",
"V  c #3E5324",
"C  c #3E522C",
"Z  c #3E5531",
"A  c #5B471A",
"S  c #514411",
"D  c #7A450A",
"F  c #674619",
"G  c #77451A",
"H  c #795617",
"J  c #634306",
"K  c #434E2B",
"L  c #4A4C2C",
"P  c #474725",
"I  c #574927",
"U  c #445326",
"Y  c #495426",
"T  c #445925",
"R  c #45542C",
"E  c #49542C",
"W  c #45592C",
"Q  c #49592C",
"!  c #495B27",
"~  c #53552D",
"^  c #4A4C33",
"/  c #484B37",
"(  c #564936",
")  c #455432",
"_  c #4A5432",
"`  c #465A32",
"'  c #495931",
"]  c #4B5A32",
"[  c #455439",
"{  c #4A543A",
"}  c #4C5A3A",
"|  c #445939",
" . c #525536",
".. c #52543A",
"X. c #535A3C",
"o. c #5B5C3D",
"O. c #585737",
"+. c #6B4B2C",
"@. c #694A28",
"#. c #775425",
"$. c #674B37",
"%. c #774B34",
"&. c #665739",
"*. c #755A38",
"=. c #6E4F27",
"-. c #58623E",
";. c #4D6139",
":. c #1D2441",
">. c #292E55",
",. c #312C6D",
"<. c #5B2F4A",
"1. c #623A54",
"2. c #474A45",
"3. c #4B5442",
"4. c #585B43",
"5. c #57544E",
"6. c #695744",
"7. c #765C46",
"8. c #67554A",
"9. c #596348",
"0. c #5B6952",
"q. c #68664A",
"w. c #766B4B",
"e. c #67714E",
"r. c #666953",
"t. c #776A59",
"y. c #6C7259",
"u. c #767759",
"i. c #6E4963",
"p. c #777A65",
"a. c #716777",
"s. c #717063",
"d. c #5F5973",
"f. c #911A17",
"g. c #A91D1D",
"h. c #8B2C14",
"j. c #893516",
"k. c #8B3011",
"l. c #A11E26",
"z. c #883525",
"x. c #952C32",
"c. c #A73831",
"v. c #B22E33",
"b. c #CE3230",
"n. c #83480C",
"m. c #8A5916",
"M. c #955C1B",
"N. c #8E5113",
"B. c #97641C",
"V. c #86592A",
"C. c #985926",
"Z. c #855C35",
"A. c #984A3C",
"S. c #A1493F",
"D. c #946224",
"F. c #996628",
"G. c #8A653A",
"H. c #976835",
"J. c #97763A",
"K. c #8E6620",
"L. c #A36B26",
"P. c #A77327",
"I. c #A46B3A",
"U. c #AE7438",
"Y. c #C0413A",
"T. c #963A49",
"R. c #845E45",
"E. c #964F55",
"W. c #B95E56",
"Q. c #8B6747",
"!. c #966E47",
"~. c #967347",
"^. c #897559",
"/. c #967654",
"(. c #856D56",
"). c #A87948",
"_. c #AC7A50",
"`. c #827765",
"'. c #907B6D",
"]. c #B2646B",
"[. c #B45F64",
"{. c #D06D6A",
"}. c #7B846D",
"|. c #7F8372",
" X c #B2833D",
".X c #C5923F",
"XX c #B7844A",
"oX c #A68459",
"OX c #B78757",
"+X c #B58E54",
"@X c #86856A",
"#X c #878975",
"$X c #958C77",
"%X c #A98766",
"&X c #B48C64",
"*X c #BA936A",
"=X c #AB8D6E",
"-X c #BEA57D",
";X c #C5945B",
":X c #C49156",
">X c #CDA355",
",X c #C69869",
"<X c #C59B75",
"1X c #C98B74",
"2X c #CAA37B",
"3X c #D7A57A",
"4X c #D6AD6D",
"5X c #E2B16C",
"6X c #ECC079",
"7X c #2A2CA8",
"8X c #384DA1",
"9X c #6060A4",
"0X c #3847C6",
"qX c #6A58D6",
"wX c #9F548C",
"eX c #996B94",
"rX c #798EE9",
"tX c #958E84",
"yX c #A59A89",
"uX c #B49B85",
"iX c #A5A698",
"pX c #ABAE9E",
"aX c #8180A0",
"sX c #9CA2A0",
"dX c #B9B9AE",
"fX c #B8B1AB",
"gX c #9BA187",
"hX c #C09D81",
"jX c #C9A584",
"kX c #D6A985",
"lX c #DCBA99",
"zX c #C6AB9A",
"xX c #E8B88C",
"cX c #F4BD86",
"vX c #ECBD94",
"bX c #CEBDAB",
"nX c #BBC4B1",
"mX c #E9C99C",
"MX c #FDCA9C",
"NX c #F9C597",
"BX c #ECC688",
"VX c #C9C8B8",
"CX c #EDC9A9",
"ZX c #FBCDA2",
"AX c #FBD1A7",
"SX c #ECD2B1",
"DX c #D4C09D",
"FX c #9493CD",
"GX c #CFD4C6",
/* pixels */
"| ) R U U U Y E R ) R R R Q Y Y Q R R C ) [ { ) ) R ! T Q ' | Z ) R R R R R R R R R R W ' ' E R R R ",
") ) R R R R R R R R ) ) R E Q Q ' R R R K R ) [ R R ! ! ! R [ } R ' _ _ ) R R R R R R R R ' ' ' R R ",
"Y Y R ) [ [ ) R R R R ) ) ) R ) C Z _ ] Q R U U R U Y ! Q R _ _ E R E K R ) R ) _ _ E R R W Q ] R R ",
"Y Y E ) [ [ ) ) R R R R ) ) R R Z Z R E E E R ' ' ' Q R U R ^ _ E E E R _ ) ) ) _ _ _ E E R R W ) _ ",
"E E E R R R R R R E E E E E R R } ` U Y _ _ / / ) ) ) ) [ _ _ _ K R R _ ] _ E ] ] ] E _ ) ) ) ) ) ) ",
") R E R R U E E K K Y Y Y Y R R K R Y Y P h n ( L P P P P P I O.} _ R R _ Q E Q Q Q W R R ) ) ) R R ",
"[ ) R R R U E E E E Y U Y U R ) _ O.O.I A F #.~.%XoX~.=.d d S I O.4.3._ _ ' R U ! ! T U R R _ _ _ R ",
") ) R R Y Y _ _ ] ' Q ! R R ) _  .n 3 s =.G.H.)._._.I.M.M.D.H d 1 P o..._ ) ` W W T U U E E _ R R R ",
"` W W ' E E ) ] ` ) ` W R } R  .< % - s F v b b h.h.k.j.N.C.M.m.v i h &. .[ ` Z ` R Y E E R ) R R R ",
"R W R R E ' ] R ) ` R U ~ P < 4 3 2 u u q q w l h.h.h.j.j.l j.C.N.l a 1 6.X.) | ) _ _ K R ) C R R R ",
"R R Q R U E ) } ) _ ~ S 4 F J.oX%X%X+X XP.N.x k q 9 9 w c z.j.h.k.l b a ; q.r.{ } K _ _ _ _ ) ) R R ",
"R ' Q U U R _ K  .~ A H XX4X5XNXmXmXBX6X5X.XP.B.D.#.G b k 0 r h.j.k.l v * (.@X..) _ R _ _ ) _ R R E ",
"_ E R R R ) ..o.I =.J.>X>X XI.!.~.~.!.G.H.C.m.m.m.B.P.L.M.n.k w r t z.c q f t.#X) ] W V Q R E E E _ ",
"E E E ] ] ) ^ ( j J.>X:XM.z a g > > ; ; > i a a z D m.N.M.B.D.V.x k w 9 q & 8.yX}.B C W W Q Y E E E ",
"K _ ' ) } X.P 3 d J.XXH i * - @ o . . o o O * : = q z z x n.M.F.B.D.z a > O ( VXnXN C ;.R Q E L R R ",
"_ K R ` ) N  .w.j F F u % o o . . . + > 2 * O O & & = q q a x D m.K.H.V.d % ( VXGX0.| C R E _ _ E E ",
"K R R W W R } y.6 # - + o + - O % 2 j #.V.F i * O o o O , : w a z x n.D.D.z I tXGXpX` R U U _ _ _ _ ",
"E E R W W V N { # X . . + 5 5 % f %.oX;X;X;XOXQ.h - @ o @ o & q a a k n.B.D.j n yXVXN R U E _ } ) R ",
"E _ ) ) _ E K B 7 $   # 5 5 ; ; u G.,XcXcXcXcX3XoX+.f o .     + q w w k j.L.G j $XVXe.' W U ) ) ) R ",
"E _ / / ^ _ E L r.2.$   o 2 +.Q.%X2XvXMXMXcX;X!.F 1 : % + X X   O : g w r j.G @.( r.r.R R R ' R E R ",
"R R ) ^ ^ L E R 0.3.$   + 2 v d j ~.3XNXMXvXxXjX*X/.G.G.F 1 @     o = e k l G v f 4.q.] R R W W R R ",
"R R ^ / .._ E R 4.2.5.5.m > *./.%X/.&XxXAXAXkXQ.+.Z.!.OX).=.1 + X   o = w a G v f ( 4.E R ' W ! R R ",
"V R R _ ] _ E ] 9.}.dXfX8.f !.oX@X(.%XxXMXZXlX%X^./.H.F.XX~.j +     . O & * p h n ( O.E ` ` W U Q R ",
"V W R K E U U ` [ #XdXtXm j ~.d % I *XNXMXMXCXzXyXuX<X).).V.p O . X @ + - ; 2 h 6.`.L E ` R W ] Q Q ",
"T T R R U W U R 0.iXtXm q @.!.=.I ^.3XNXNXMXjX6., `.CX,XOX=.* % o . @ , 2 2 f 8.p.9.R R R R W Q Q R ",
"U U R R U U T -.iX`.6.Q.G.V.<XmXSXCXMXMXMXZXjX$.5 @XlX,XOXG p m f o % , 5 5 t.#Xr.} R R R R R R R R ",
"E E R E Q V R e.( 6.=X1XV.G *XZXAXAXMXMXMXMXAXlXDX-X*XXXXXG #.%X/.q o , #XgXiXp.} } ] ) R U R R E E ",
"_ E E Q ] U ] u.6 7.<XOXH.H.H.&XxXMXMXZXMXMXAXZX*XH.C.C.U.;X<X&XG.p o , $X@Xr.) ) _ [ R R U R _ _ E ",
"^ _ E E ] _ } y.6 *.,X3X3X).d #.&XxXNXMXMXMXMXcX,XI.U.U.H._.oXG.p % O # u.e.-.} ) ) C C R U K _ R R ",
"R _ E E R ) [ 9.6 +.oX3X;XV.i i d Z.OX<X3X2X3X3X,X).I.C.z a j i p j &.&.^.w.&.o.O._ R R R R R _ _ E ",
"U R _ R R R C ) u.*.!.*X).#.1 & : i d =.*.+.$.%.%.v a a i p @.Z./.<XjXjXoX*.j I 6.O.Q ! W ` _ _ ] ' ",
"R R ' _ ) ] ` ) o.I +.oX,XG.u h R.R.@.p * = g M q 9 w 0 w %.!.%X%X=X=X*X*X&X&X/.7.O.~ Q R R ' E R R ",
"C R ) _ _ _ ) ` K O.I *.&X<X).*XjXhX=XR.r r E.1XA.t v.f.0 c M n n P h +.%XxXAXkX/.6.P K ] R U Q R R ",
"C R R E E R R ) ] K q.&.*.&X2X2X%X7.f q t c.W.S.c.Y.b.g.f.0 $.y.y.u.r.5 Q.3XNXZXjX*.P _ _ R R U R R ",
"R R Y Y Y U U U U E L q.6.2 n ( uXbX'.g z.{.{.b g.b.b.b.g.0 6.s.y.y.s.n I oXxXxX/.I 6 ) R R ] R R R ",
"R R Y Y R R R R R E  .^ o.q.s.tXdXyX$.g c.W.[.T.v.b.b.b.l.0 8.s.0.9.|.p.I A G.G.I P K _ ) R R R R R ",
"_ E _ _ _ [ ) R R R E _ _ _ } } }.4.f g z.W.].x.l.v.v.x.x.e 8.p.r.3.3.u.u.&.4 h O.X._ R Q R V W R R ",
"_ R R _ _ [ ) C R ] E U R ] N ) 9.p.t.g e E.].M y T.wXwXwX<.7 8.$Xu.{ 4.9.u.w.q.4.{ R R U U R R R R ",
"K K R _ ) ) R C R B R R K ) N } } p.s.m 7 i.i.<.1.9XqXqXqX7X$ 5 t.$Xp.{ ) ]  ._ _ ) ) W U R ) N R E ",
"R R R E _ R R R R R R N R K  .4.y.#XtXa.d.9Xi.1.eXFX0X7X0X,.8 , 2 &.#X9.) K K E R R R R Y E ) ) R E ",
"R R R Y Y Y R R ) ) ) ) L ( &.2 5 t.pXiX2., $.(.t.aXrX0X9X,.f F j 1 6 r.[ ) E Y W W [ [ ) _ ) R R R ",
"R R R Q Q Q E ) ) [ [ _ O.&.u i Z.+.h 6 5 7.=X'.( 7 8X9X>.7 R._.Z.u 5 9.3._ Q U Q W [ ) _ _ R R R R ",
"R R R R ] _ _ ) [ [ [ o.I 1 i D N.n.V.&X<XhX%X$.'.a.:.>.8 ( =X2X~.s 5 4.{ ) ] U Q ) ) ) ) E Y R E R ",
") ) R E E E R ) ) Z ) -.I 1 F F.L.P.L.).3X,X/.yXpXiXsXtXtX7.7./.G.s 3 _ { K Y Y E ) ) ) R E Y R R R ",
"[ [ R R R E E E R ` ` E ~ &.p G m.F.U.P.U.V.7.`.}.u.e.9.4.@Xw.$.h I 4.} R R Q Y E R ) E E E R R R E ",
") ) ) W E Y Y Y R R V ;.E L &.1 p J m.D.m.d O.5.[ ` W Q X. .q.6.&.&. .R R U Y ] E R R ) Y E R R R R ",
"K E R R ) R E E Y V W C ` _  . .~ 4 p v A &.t.4.^ K [ C N ] ]  .L  .) ) ) R K Y ) ) ) ) E E Y U E E ",
"Y R R R ) ) E R E Q V R C ) _ _ ) X.( 3 P u.o._ ] ] ) ) C ` R _ L _ [ ) N R K E R R R R E Y Y U Q ' ",
"E R R E ' ' _ E R R R R R R _ E _ E E L K K ) _ _ ) R R R R R R _ ) ) R K R R R R R R R R E E E E E ",
"R R R R R R R R R R R R E R R R E R R R K R R ) ) R R R K R R R R R R R R R R R R E R R R R E E E R "
};
