/* XPM */
static char *sdf1705540316[] = {
/* columns rows colors chars-per-pixel */
"50 50 227 2 ",
"   c #010101",
".  c #0B0302",
"X  c #050409",
"o  c #0C0A09",
"O  c #0B0708",
"+  c #110500",
"@  c #160F07",
"#  c #1C0B03",
"$  c #190F0A",
"%  c #1B140C",
"&  c #16120F",
"*  c #0E0E10",
"=  c #141314",
"-  c #1C1A1B",
";  c #1D1512",
":  c #220E05",
">  c #22150B",
",  c #2D1C0D",
"<  c #27170A",
"1  c #381B0D",
"2  c #241B13",
"3  c #2C1E11",
"4  c #251F1D",
"5  c #201718",
"6  c #391E15",
"7  c #3D250E",
"8  c #35200B",
"9  c #2C2319",
"0  c #3C2514",
"q  c #352216",
"w  c #211F22",
"e  c #222122",
"r  c #2B2927",
"t  c #372F29",
"y  c #363628",
"u  c #3C3B35",
"i  c #393936",
"p  c #45240E",
"a  c #4B280D",
"s  c #592D0D",
"d  c #4D2D15",
"f  c #442C1C",
"g  c #472916",
"h  c #542C14",
"j  c #5C2E15",
"k  c #4C331A",
"l  c #533314",
"z  c #5B3216",
"x  c #59361C",
"c  c #5B3A1A",
"v  c #553519",
"b  c #623312",
"n  c #6A3A1D",
"m  c #65371A",
"M  c #773F1E",
"N  c #4A3929",
"B  c #593B26",
"V  c #403E39",
"C  c #5F3F32",
"Z  c #4A2C22",
"A  c #633B26",
"S  c #3E4B25",
"D  c #3C462B",
"F  c #3D4B2C",
"G  c #3A4428",
"H  c #3F542A",
"J  c #3E5527",
"K  c #3E4B32",
"L  c #3E403D",
"P  c #434E25",
"I  c #424D2C",
"U  c #48482C",
"Y  c #445226",
"T  c #45542C",
"R  c #49552D",
"E  c #45592C",
"W  c #4A592D",
"Q  c #434C33",
"!  c #4A4E31",
"~  c #43433D",
"^  c #444D39",
"/  c #4C4A3C",
"(  c #584737",
")  c #465432",
"_  c #495532",
"`  c #4B5932",
"'  c #465239",
"]  c #4B543B",
"[  c #4D5A3A",
"{  c #475932",
"}  c #505C33",
"|  c #54593A",
" . c #5D4129",
".. c #68422B",
"X. c #794628",
"o. c #614734",
"O. c #794D36",
"+. c #63593B",
"@. c #77553A",
"#. c #444443",
"$. c #4A4B46",
"%. c #4D4C4A",
"&. c #464945",
"*. c #4C5343",
"=. c #4E5945",
"-. c #4D534A",
";. c #4E5B49",
":. c #515645",
">. c #525B44",
",. c #53554C",
"<. c #5B554A",
"1. c #555C4C",
"2. c #5C584B",
"3. c #545553",
"4. c #5A5C54",
"5. c #5C5E5A",
"6. c #575A53",
"7. c #635444",
"8. c #665849",
"9. c #765A46",
"0. c #645D55",
"q. c #56624B",
"w. c #5B644C",
"e. c #596347",
"r. c #5D6254",
"t. c #5F615C",
"y. c #5B6654",
"u. c #626B54",
"i. c #62635D",
"p. c #646C5B",
"a. c #6A6D5D",
"s. c #666157",
"d. c #756A5E",
"f. c #67715C",
"g. c #697258",
"h. c #6A7356",
"j. c #5D5C61",
"k. c #646661",
"l. c #666B62",
"z. c #696C64",
"x. c #6B6D6A",
"c. c #706E6F",
"v. c #6D7364",
"b. c #6D736B",
"n. c #647360",
"m. c #757A65",
"M. c #73756C",
"N. c #79756D",
"B. c #757B6D",
"V. c #797D6F",
"C. c #717664",
"Z. c #747572",
"A. c #757A72",
"S. c #7A7C74",
"D. c #7C7C7A",
"F. c #77767B",
"G. c #864B26",
"H. c #97582C",
"J. c #8C5735",
"K. c #965B36",
"L. c #A25C33",
"P. c #97633E",
"I. c #99613D",
"U. c #9C6C3E",
"Y. c #A7632F",
"T. c #AA6734",
"R. c #AD653A",
"E. c #A76738",
"W. c #B7733D",
"Q. c #BB753F",
"!. c #AF713F",
"~. c #8C5F42",
"^. c #886344",
"/. c #9A6443",
"(. c #9E6C43",
"). c #976848",
"_. c #9C7347",
"`. c #846B55",
"'. c #AC6D43",
"]. c #A86A44",
"[. c #B16E43",
"{. c #A57248",
"}. c #B57543",
"|. c #BA7A45",
" X c #BB7747",
".X c #B67850",
"XX c #837366",
"oX c #8E7B6C",
"OX c #837E79",
"+X c #837D73",
"@X c #C27B47",
"#X c #C37D4B",
"$X c #7A826B",
"%X c #7C8374",
"&X c #7E827B",
"*X c #7F8875",
"=X c #BB8050",
"-X c #838375",
";X c #82847C",
":X c #848B7B",
">X c #888C7C",
",X c #838B74",
"<X c #8A917E",
"1X c #CA834D",
"2X c #848583",
"3X c #868A81",
"4X c #8A8A82",
"5X c #8C8C8A",
"6X c #8C9281",
"7X c #8F928B",
"8X c #989896",
"9X c #92958E",
"0X c #9DA19D",
"qX c #9D9CA1",
"wX c #A3A5A2",
"eX c #A7A9A6",
"rX c #AEAEB0",
"tX c #BABBB7",
"yX c #B5B8B6",
"uX c #C1C4BD",
"iX c #C6C9C4",
"pX c #CFD3CB",
"aX c #D9DCD6",
"sX c #D8DCD7",
"dX c #DBE0D9",
"fX c #E5EBDD",
"gX c #F3F9ED",
/* pixels */
"{ T Y T T R Y R T E J E { T _ [ E { ) F I ) ` ) ` ) T _ R W Y R Y T T T { ) F T ) T T { _ { _ _ E T ",
"{ T T T R Y R R { T H H { ` { R [ _ K H T F K ) D ) _ Y _ R R W Y E T T { ) ) I ) { T T E _ ` [ _ E ",
"T T T T R R R T T T E _ { { R P S Y { [ u.e.w.w.w.w.w.w.h.` ` R S T T T ) T ) I E E T T Y T R [ [ { ",
"T T T T Y R _ T R _ _ Y J Y W R W _ R e.,X>X4X>X4X:X,X,X$X{ T R T T I E { ) T { R W R R T T E { R R ",
"Y E E Y T E ) I _ T _ ! T T E { W T U ] m.V.+XS.S.M.p.f.w.) ) { T T T _ _ _ ` { R W W W W T T T _ R ",
"T Y E Y T T E I U ! ! ! R T T H W ! _ >.C.V.S.D.2XD.l.l.=.) ) K I ) ) ) E ` [ Y ` W W W R E ) T T R ",
"T Y T E T E ) ) _ ] ! Q _ Q H H _ ! / Q 0.S.D.D.F.F.Z.v.&.' ' ' ) ) _ _ _ _ _ R W W E Y T E _ ) R T ",
"R R Y T E E { _ ] ] ] >.u.q.K K e.m.,Xr.<.M.Z.c.D.D.S.z.r.*X,Xy.>.Q ' >.| Q R _ R W W T T W _ { R _ ",
"` W R T E E W ` ] ' p.%X$Xy.;.n.$X%XB.v.%.x.D.M.D.S.D.i.M.-XM.$XB.u.a.-X<Xh._ ` _ R T T I T ) I ) _ ",
"_ _ R W E W Y R ) C.*XA.A.v.6.*XB.-XS.m.4.M.4X4X;X2X;Xv.M.S.b.M.B.-.:X:X,X,Xe.[ _ T T T T ) ) T I R ",
"_ _ R R R W R I =.%XB.b.A.S.v.4.+X-XN.2.u V ~ $.~ ~ L L 5.Z.A.%X4.B.3X3X%X:X,X1.] _ T T T { { T I T ",
") _ W Y Y R R _ K ;.b.%XM.N.+Xd.<.( t 2 > % .     .     o 9 V 3.z.9X&X&X&X%Xq.Q ] _ ) T T E W T R I ",
") _ R ! P R _ ] q.q.4.M.+XN.oXo.Z Z 0 q 3 % . o   X X X       o ~ &XD.2Xb.i.1.y.] ) T _ E W W R ) T ",
"{ { } R R ! ! ] n.3XM.1.d.9.B o.^.A k 0 6 > .   X X               e 4.3.5.3X,Xv.] ) I T W W W E T I ",
") ) { } ! ( | >.b.&X&XM.N  .@.).K.A h p 1 : + .       X       . X   = 5.5X-X3Xm.e.[ T T W W E Y T I ",
"H H E W R ! | 4.b.%XA.N...)./.(./.A h d 6 < + .           X           t A.&X-XC.p.>.Q Y Y Y E E { ) ",
"E E R W R } w.b.l.z.N.@.J.=X'.'.K.n z g 6 > . .                 X       L M.k.x.r.1._ _ R P T T { _ ",
") I E } R _ f.&X&XB.9.^.(. XW.!.K.n l p , > + .                 X       o ,.A.A.A.p.] I W Y Y _ R { ",
") _ E S ! h.:Xz.Z.N.o._.=X=XW.[.K.b h p < > . . .                         i D.A.M.%Xg.] _ _ E _ R E ",
"{ I Q _ ! | p.z.l.0.N _.!.|.T.!.I.z l g , 2 . .                         O = t.k.l.a.] U _ ) I E W _ ",
"Q ) F ' w.v.%XZ.&X2.k _.T.Q.Y.}.E.m x f q 9 & O                             %.A.z.M.m.f.w._ ` ` E T ",
"{ _ F q.%XB.Z.Z.2X8.l {.T.@XW.W.I.A c 0 q r 9 .                             6.2X;X>X%XB.w.[ [ Y R E ",
"I E K y.:X%XD.D.B.7.c U.T.@X[.'.K.m v 8 , 2 4 O                       X X   5.&XV.S.%X,Xp.F { ` ` R ",
"W { F q.A.%X&X;X-X2.c U.@X#XR.[.J.m d 0 9 @ 5 .                       X X   l.4XM.%XS.B.u.^ ] ` ` ` ",
"T W D >.f.v.b.x.+X7.x U.|.#XR.'.J.z s 8 3 > & .                       X   X t.;Xv.v.M.l.1.K _ T W W ",
"R Y { [ =.-.3.6.6.( z {.|.@XL.]./.z a < > 5 ; *                             #.5.4.:.*.*.] Q E F R R ",
"Y R R R ) L x.2X+X7.l ].|.@XL.]./.s p < > 2 ; . .                       X X 3.A.D.a.$.] ' Q ) T W E ",
"Y R W ` ] ^ D.9X4X8.h {.}.|.L.[.K.a p 8 , 2 % .                             t.7XM.a.^ ] ] _ I Y W W ",
"W P { ) ' ' l.D.OX8.j (.}.|.Y.'.I.s a 7 , % $                               6.D.A.C.^ ^ I I I _ T Y ",
"W R T H ) ' l.D.OX8.x (.}.1XE.{.I.b d p , % o .                           X 5.D.r.r.I _ _ } Y T R E ",
"P } T { _ ^ p.z.s.( c {.}.|.Y.!.K.b a 7 8 % .                     X         3.b.p.r.^ _ W R E _ ` ` ",
"R R ) ' ] :.,.4.,.( c P.}.@XY.Y.J.b a 7 , $ . .                             &.5.5.2.^ | _ R T { W R ",
"R { ^ :.OX5X2X4X:X7.l (..X#XL.K.G.j p p 6 $ .                               i.;XA.&XA.%Xh.Q T R R E ",
"Y T Q 1.OXD.D.A.-X| k {..X.XL.H.X.j p 6 3 $                                 4.Z.t.A.3X&Xu.I _ T R E ",
"Y T Q r.&XS.&XA.h.+.s (.R. XH.G.O.h 6 6 3 @                                 k.5XZ.A.&X%Xu.Q _ } T _ ",
"T T I e.:X&X3XA.m.+.z (.H.T.G.G.M h 6 3 $ .                                 j.5X2XD.;X$Xu._ R I T T ",
"` ' ) >.A.A.x.k.0.( B ).G.R.M n B Z 6 # .   X X X X X X X   X   X   X       -.Z.b.b.A.l.>.) _ _ _ _ ",
") _ ] K =.-.3.k.k.( j ).G.~.n A C 0 : .   X X X X X O O O * = = = - w w e - #.5.k.y.&.K D D T _ R _ ",
"I I [ { ' K x.&X4X8.d ).O.M m C f # . . + o * = - w r r r i u L &.%.#.L &.#.z.2X&Xz.K ' [ ] T E R I ",
"] P Y ` ) K b.M.N.0.Z ^.M M A 6 # + @ % & - w i ~ %.3.0.z.x.Z.A.F.F.c.F.D.j.x.&Xb.v.Q ' ' ) T I I T ",
"_ T E J ) F B.D.N.8.v @...@.g # % 9 t &.3.j.x.F.2X5X8X8X0X0X8XwXeXeXwX0XwX7Xp.A.B.B.Q ) ] ) ) H I R ",
"! T E E { ) C.B.z.<.N `.o.g < r V %.j.Z.2X9XqXeXrXyXtXtXtXtXtXtXuXiXuXuXiXeX6.%X*X$X] ) T H T T _ _ ",
"] R ) E { ' 1.4.0./ 3 N 0 , N 0.M.&X9XwXyXiXiXpXsXsXaXaXsXdXaXdXfXfXfXgXgXpX1.y.g.y.E ) T T ) ) R I ",
"_ I E J K T Q ! Q ~ y U U N / -.y.n.M.S.F.&X3X3X>X>X:X:X:X<X6X<X<X<X<X<X<X%XQ Q ) T F E T { E T I T ",
"R R T Y R W U ! ` ` } ` ] U ! Q F T F I Q I S D U S S S P I I D I I I D y K ] ] { T T W I T T E _ _ ",
"P R E E W R Y R E Y ` E W R T { T T E { R R I Y Y T W W } } W R R T ] ) [ ] _ _ ` W Y E Y T T T R R ",
"H T { E R ! R Y T J J J E E E E ) T T _ _ T T T Y T T Y R ` _ ! ) Y _ ) { ) F _ E Y Y Y R T E F Y T ",
") ) { { _ T W Y T E J E T Y E T E T ) T Q _ _ _ { { E Y I T _ _ R T E _ F I ) T R T S Y W Y E I R _ ",
"{ { { E _ R _ R T E T T T E E E R _ T I I I R _ _ R T Y Y _ T T T E R I ) I R Q T T T Y E E _ I R R ",
"T T T Y R E _ T T E T T T { T _ R R R I I ! _ _ _ T I I I I ! R T R _ I ! T I T ) E T T E R R T Y Y "
};
