/* XPM */
static char *Screen_Shot_2024_01_23_at_5_05_04_AM1705982762[] = {
/* columns rows colors chars-per-pixel */
"50 50 236 2 ",
"   c #050504",
".  c #0B0605",
"X  c #0C0907",
"o  c #130A06",
"O  c #1A0B06",
"+  c #140C09",
"@  c #1A110A",
"#  c #1B1712",
"$  c #260E07",
"%  c #24160B",
"&  c #2B1309",
"*  c #2C1309",
"=  c #2A190C",
"-  c #341309",
";  c #3B150A",
":  c #331E0D",
">  c #39190A",
",  c #231B12",
"<  c #2A1B15",
"1  c #391D16",
"2  c #1F201D",
"3  c #31220E",
"4  c #3C220D",
"5  c #2B231A",
"6  c #3A2819",
"7  c #3B331A",
"8  c #2D2A27",
"9  c #352C23",
"0  c #3C3725",
"q  c #3C3A36",
"w  c #471A0B",
"e  c #581A0D",
"r  c #501A16",
"t  c #6F1D17",
"y  c #45260E",
"u  c #57220E",
"i  c #422B13",
"p  c #4B2C13",
"a  c #452D1C",
"s  c #572C13",
"d  c #47351A",
"f  c #553213",
"g  c #583A19",
"h  c #61240F",
"j  c #652A12",
"k  c #72221B",
"l  c #693715",
"z  c #643E1D",
"x  c #733A17",
"c  c #582528",
"v  c #463827",
"b  c #4B3C2C",
"n  c #553B24",
"m  c #4B283D",
"M  c #443C32",
"N  c #443C36",
"B  c #733331",
"V  c #5E4219",
"C  c #68481B",
"Z  c #72411A",
"A  c #784619",
"S  c #79441A",
"D  c #6D521C",
"F  c #79531D",
"G  c #474429",
"H  c #444F2E",
"J  c #5C4C25",
"K  c #58452A",
"L  c #46522F",
"P  c #48542F",
"I  c #5E5128",
"U  c #464E32",
"Y  c #494838",
"T  c #564937",
"R  c #475231",
"E  c #495432",
"W  c #4C5933",
"Q  c #4D553B",
"!  c #4E5939",
"~  c #545338",
"^  c #53553B",
"/  c #515B3C",
"(  c #684927",
")  c #764B25",
"_  c #6A5327",
"`  c #7A5628",
"'  c #664D35",
"]  c #675438",
"[  c #77593A",
"{  c #55613F",
"}  c #7B642A",
"|  c #736233",
" . c #2D325E",
".. c #242B68",
"X. c #363B67",
"o. c #283077",
"O. c #3A415F",
"+. c #4B4943",
"@. c #574D43",
"#. c #585746",
"$. c #555D42",
"%. c #4C4D51",
"&. c #595956",
"*. c #645746",
"=. c #74544A",
"-. c #625B53",
";. c #576143",
":. c #5A6245",
">. c #5C644B",
",. c #626A4D",
"<. c #77634A",
"1. c #646C51",
"2. c #666859",
"3. c #7B6A58",
"4. c #6B725A",
"5. c #595966",
"6. c #4F5378",
"7. c #6B6B6D",
"8. c #746C65",
"9. c #6E7363",
"0. c #757868",
"q. c #7B7A77",
"w. c #8A1E15",
"e. c #88231B",
"r. c #9A271E",
"t. c #AA291F",
"y. c #8E2B25",
"u. c #A52F27",
"i. c #B7342B",
"p. c #C63C32",
"a. c #814B1F",
"s. c #85541E",
"d. c #84591F",
"f. c #804C21",
"g. c #865627",
"h. c #905C29",
"j. c #885B32",
"k. c #B9443B",
"l. c #966628",
"z. c #906C2A",
"x. c #896237",
"c. c #986637",
"v. c #8B763B",
"b. c #95753C",
"n. c #A37F2F",
"m. c #A77A37",
"M. c #8E5E45",
"N. c #AE524B",
"B. c #87694A",
"V. c #936C44",
"C. c #8C704B",
"Z. c #99784B",
"A. c #8E7359",
"S. c #987958",
"D. c #A77847",
"F. c #A77C53",
"G. c #B77255",
"H. c #8B7468",
"J. c #947C62",
"K. c #B7736D",
"L. c #D14C44",
"P. c #C95C54",
"I. c #CD635B",
"U. c #CB746D",
"Y. c #778068",
"T. c #7B826C",
"R. c #AA853D",
"E. c #B3863D",
"W. c #B48C38",
"Q. c #BA943F",
"!. c #9B8956",
"~. c #B08E4D",
"^. c #BA9644",
"/. c #AB855C",
"(. c #B48858",
"). c #83837B",
"_. c #858979",
"`. c #A88A6A",
"'. c #AA906E",
"]. c #BA9367",
"[. c #B89875",
"{. c #B8A46B",
"}. c #C29B48",
"|. c #C0905F",
" X c #C1A24B",
".X c #CCAB56",
"XX c #CFB155",
"oX c #D1B158",
"OX c #C69B6B",
"+X c #C89179",
"@X c #D1AA73",
"#X c #E1C77B",
"$X c #2D3990",
"%X c #465394",
"&X c #6F748F",
"*X c #4251B0",
"=X c #5262B5",
"-X c #6774BF",
";X c #394ECD",
":X c #3B53E7",
">X c #6172CA",
",X c #4F64E5",
"<X c #6578ED",
"1X c #6D81F0",
"2X c #8A8B87",
"3X c #8D8B89",
"4X c #949488",
"5X c #9C9B95",
"6X c #AE948A",
"7X c #9EA392",
"8X c #BFA186",
"9X c #A6A59B",
"0X c #B7A695",
"qX c #9193B4",
"wX c #AEB1A9",
"eX c #B9BBB4",
"rX c #CB8A85",
"tX c #C9AA87",
"yX c #DBB586",
"uX c #C9AF93",
"iX c #DABA98",
"pX c #E5B88B",
"aX c #EABE91",
"sX c #C2B2A0",
"dX c #D5BEA5",
"fX c #DFC986",
"gX c #EBC399",
"hX c #F1C69B",
"jX c #F3C99E",
"kX c #D1C2B2",
"lX c #EBCDAE",
"zX c #F6CCA2",
"xX c #F7CEA5",
"cX c #9198CC",
"vX c #ADB0CF",
"bX c #D9D0C7",
/* pixels */
"R R P P P H U R R R R E E L E E E U E ~ R E E R E R E L L L E E R E R R E E E W W W ! W W W W E E E ",
"E R E P P H U R R R R P P R E E E E R R R E E E E R R R L E E E E L R E E E E W E E W W W E E E E E ",
"E E R P E E E E R E P L R P R E E W W R L E W E E R E E P P W P L L L R R E E E E P P W W W E E E E ",
"E W P W W W W E W W E E P E R E E W W R E ! / / ^ ! W E P P W P L L L R E E E W E E P W E E E E E E ",
"W E P W W W E E E E E E P P W P E W L G L ~ >.:.I G G G 0 7 H R L E L L E E R R P W P W E E R U R E ",
"E W P ~ E E E ~ R E Q E W W W L v G G _ v./._.!.v.F D C f p a 0 0 M E E P P R R E W ! E E E E R R E ",
"E E E E E P E W E E E P P W L G f V ` R.oX#XfXoXQ.R.z.s.S l s y y 6 G L E L L R E W ! W E E E R E E ",
"E R E E E E P P E E E L L H d g F D } v.!.b.R.| D D V f f f s p w w 1 0 H ! L R P W W E E E E Q E Q ",
"E U E Q E W E W R E R E E 5 7 V C d d d J I _ _ I I J J V G 7 4 > > > = q 4.:.! P W E E E E E W E E ",
"T E E E W E E R E E U $.1.7 6 v T [ b.R. X.XXXXXXXXXXXXX X^.R.F V 6 3 = Y 4X2X4.W L L L L L L W W W ",
"~ ~ U E E E E E E / 0 v ] v.~.{.0X0XtX.X^.W.W.W.W.W.W.W.Q.Q.W.R.R.R.z.A ( G M -.0.W L L L L E P W W ",
"W E E E E E E ^ / G _ V.{.uX#X@XF.A.V.j.) Z Z x C C Z x A a.s.a.l.l.h.l.z.` C ( #.0.$.E L L L L E W ",
"R W E R R W / E K j.E.}.^.].F.h.x j h r ; - & & & & & & ; w u h j l x x A a.d.A ( @.2.>.E R R E L L ",
"E W W R R ^ U _ x.^.^.m.g.x j u - ; - - O X o = & O   . o $ - - - w e h h j a.s.g.C *.*.:.W E E L L ",
"E W R U E #.n ` n.E.l.S u w ; * o X O = o O 3 z C d @   o O & o o O - ; w e h x s.d.g T 2.! E R E R ",
"R E R E Q ~ ( F l.S s w - O o X     = s = i ( D.(.Z.' , @ % y % o   o o $ w e h l s.D ' -.:./ R E E ",
"U R R $.! _ g.A l w $ O o         + 3 s = n V.@XaXyX].] 6 = 4 p 3 +     . O ; w h x s.` ] 2.$.E W P ",
"R E E Y T D F l - O .       X X o i p : % ] [.hXzXjXpXOX[ d = l l p +     X O - w j s.F _ %.Q E E P ",
"E E R Y P C g y O O $ o   X = : % ( n = d A.yXzXzXzXhXpXZ.n @ i ( ) # X o $ O O & w S F I #.+.E R W ",
"E E R ! Q K p 1 - * $ O   @ p s % ( ( 3 v C.+XgXzXhXpX].] 6 X , ( [ , X o $ * O % p Z _ *.9.;.U E W ",
"E E R E ;.;.K a ; $ +     O p f = ( =.-.-.J.[.aXzXhXyX`.8.&.q < n ` % .   o ; - = 7 K <.0.$.E E E W ",
"U U R E W ! :.#.N 9 +     O p z n S.[.6X5X0XiXjXzXzXaXiX0X5Xq.#.' ( @ .     * 6 M U ,.1.$.E E E E E ",
"L L E R E E ! $.$.&.# X + 9 l g.Z.sX0XA.T H.tXzXzXzXzXtXA.@.5.9X'.x.< < # + 5 +.,.~ $./ E E E U R E ",
"P E W R R W W R Q 2.8 # 9 M.x.c.].dX0X@.5 <.tXzXzXzXaX[.' q &.dXuXC.5 T T 8 %.>.#.P U E E W Q E R R ",
"W R E R E P E E ! ;.+.q G /.m.c.(.iXsX3X).6XiXzXzXzXzXuXH.H.5XdX+XV.d B.B.0 9.>.E R L W ! W ! Q E U ",
"! W R R P L R R E E ,.#.a j.c.c.D.@XiXlXbXlXxXzXzXzXzXzXdXsXtX[.F.c.K [ _ 6 1.:.E L E E W W E R R R ",
"W ~ W E R R L R E W ;.$.G ( ) j.h.m.|.pXxXxXxXzXzXzXzXaX@XG.c.g.g.f.` ( K Y #.! E L R L E E R R U L ",
"E E W R R R L R R E E $.4.N N T z x j.G.@XpXaXaXaXaXaXpX@X(.c.l z z G M @.4.Q E E E R R L L E U R E ",
"E R W R R R R R L E R W >.).5X2XN < a ) j.V.F.(.(.(.F.F.c.) z : 9 +.).T.4.$.E E E L E P P R W R E E ",
"R R W R E E P R L E E E $.T.wXbX3Xq , * * 1 a v b n v 1 1 = % 5 7.5X9X_.2.E W E E E W W P W W W E E ",
"W W E W W R L L E W W W Q 0.wXeX8.] v % r t y.H.3XH.M.t r ; < T <.q.9X4X4.E E W E E E P P P E W E E ",
"E E W W R R R R P W W W / Y.q.8.' F.<.6 k u.k.K.K.K.N.t.t r v F.B.~ 9._.0.R E E R W R R R E R E E R ",
"E E E E E P R R W W E E / 0.#.b j.B.=.c u.i.L.U.rXU.I.i.r.t c B.M.( M 9.Y.$.W H U R R R R R P R R P ",
"R E E E R P P R E E E ^ ;.9.N v S.n j e.i.p.L.U.rXU.I.k.u.w.k n =.V.5 #.9.2.W H H R E R L H L L P P ",
"E E R E R E P R E E U / 2.@.Y *.`.n w t i.p.L.I.+XU.P.i.t.w.e 1 =.`.T @.,.4.1.{ P P W E R R L P P P ",
"E W E U E E E P E E Q ^ *.B.J.'./.v < r y.u.i.K.6XK.N.u.e.t 1 1 [ ].`.A.<.#.Y.1.P E E E E R R E P P ",
"E ! E E R R R W E E ! Q b [.gXiXF.M  . .m c B =.7.7.B c c  .O.8 ] ].lXiXS.v 0.1.R E E E E E E R R E ",
"E E W R R R R R R R Q Y K [.kX0X<.%.%X-X$Xo.....o.o.X...o.*X>X6.-.S.dXiX`.M 0.1.R E E E E R E E E E ",
"W E E R R P R H R R E Y @.B.S.3.q &X1X<X:X;X*X;X,X>X-X*X;X,X<X>X6.M H.S.<.@.0.1.R E R R L L R E E E ",
"E E U R P R P L L H R $.>.@.T +.%.&XcX<X<X=X$X*X=X=X%X%X>X<X<XqX7.Y Y +.#.2.1.;.E E E E E E E E E R ",
"W R R R R P P P R R R E $.$.9.T.3X5.7.cXvX-X$Xo.O.X.$X*XcXvXqX5.7.T.Q E Q ^ ^ W E E E W W E E E R E ",
"W W W W W R R E E R R R U ,.2X3X&.9 @.'.H.%...&X_.&X6. .-.H.A.9 +.2./ ! ! E R R E E E W W E E R R E ",
"R W W W R R R E E W L ! $.+.#.#.n s j./.N +.q.wXeXwX2X&.Y =./.n v n G Y E :.! P E E E E W W R R R E ",
"U E W R R R E E E P W ! ~ b K [ V.V.D.F.v 8.9XeXwX7X4X2X@.' F.c.x.[ T G K #.W E E E R E E E E R E E ",
"E R R W E R E E R W $.R a ` ~.^.OXD.c.( @.T.9X4XT.Y.Y._.-.' ) D.Z.Z.<.} J 0 H R L W P W E P L R E E ",
"W E W R R L R R W W $.Q G j.R.!.b.` ( @.2X4X_.4.! / ,.,.9.2.T ( } v.| | I 0 U R P P W W W L E E E E ",
"R W R W E L L L P W E ;.>.U K T Y b -._.9.4.>.Q R L P W ! >.9.M 0 v H G H Q E R R R W P L L E W E L ",
"W R W R E P P E E R E E ! 4.0.0.T._.q.1.;.! E E E W E E R U W >.:.$.$.! Q E R R U R E E L L L L W L ",
"W W R W R R E W Q U R R W Q $./ ;.;.;.$.E R R W W W R R R R U E ! W E E E E U U Y R R E L L L L W L ",
"E W R W W R R R E U R W W R R W W W R R U U U E W W R U U R R R R R L E R R E U U E R R E R E L W P "
};
