/* XPM */
static char *right_removebg_preview__1_1705981650[] = {
/* columns rows colors chars-per-pixel */
"50 50 256 2 ",
"   c #050100",
".  c #0C0200",
"X  c #0E0B08",
"o  c #120200",
"O  c #1B0200",
"+  c #1C0A02",
"@  c #140C04",
"#  c #151214",
"$  c #230400",
"%  c #240C01",
"&  c #2A0901",
"*  c #320C02",
"=  c #3B0802",
"-  c #2A1400",
";  c #2C1C03",
":  c #251507",
">  c #331200",
",  c #3B1401",
"<  c #331C03",
"1  c #391C02",
"2  c #35170A",
"3  c #271916",
"4  c #331719",
"5  c #392405",
"6  c #392716",
"7  c #3A3615",
"8  c #312C09",
"9  c #341A25",
"0  c #362724",
"q  c #393331",
"w  c #180F22",
"e  c #471904",
"r  c #551905",
"t  c #5D110C",
"y  c #650D00",
"u  c #661601",
"i  c #631717",
"p  c #75190D",
"a  c #44230B",
"s  c #482605",
"d  c #572907",
"f  c #59340C",
"g  c #452B14",
"h  c #562B16",
"j  c #483618",
"k  c #573718",
"l  c #46310C",
"z  c #672804",
"x  c #762C01",
"c  c #6B3609",
"v  c #773607",
"b  c #6A2F12",
"n  c #683913",
"m  c #773B19",
"M  c #7C2311",
"N  c #521D29",
"B  c #472724",
"V  c #4C3824",
"C  c #543A24",
"Z  c #572E36",
"A  c #6E2B29",
"S  c #651B2A",
"D  c #3D4D2B",
"F  c #3D4C25",
"G  c #3E5324",
"H  c #3E532B",
"J  c #3F5C27",
"K  c #3F5030",
"L  c #58441A",
"P  c #42561E",
"I  c #40411F",
"U  c #6A471A",
"Y  c #764718",
"T  c #784E15",
"R  c #444D24",
"E  c #434E2B",
"W  c #4A4D2C",
"Q  c #484627",
"!  c #584729",
"~  c #435326",
"^  c #465B25",
"/  c #45532C",
"(  c #4A542C",
")  c #45592C",
"_  c #495A2D",
"`  c #495725",
"'  c #52542E",
"]  c #56562D",
"[  c #454F32",
"{  c #4A4E32",
"}  c #4C4737",
"|  c #564C35",
" . c #455432",
".. c #4A5532",
"X. c #455A32",
"o. c #4B5A33",
"O. c #4C533A",
"+. c #4C5B3A",
"@. c #47573A",
"#. c #525334",
"$. c #535A34",
"%. c #52553B",
"&. c #535B3A",
"*. c #5B5639",
"=. c #664726",
"-. c #774A28",
";. c #634D38",
":. c #66553A",
">. c #775836",
",. c #6F5529",
"<. c #55623C",
"1. c #486232",
"2. c #6F623A",
"3. c #323454",
"4. c #282E68",
"5. c #5D274B",
"6. c #3A4258",
"7. c #474948",
"8. c #4C5644",
"9. c #595A44",
"0. c #574E49",
"q. c #665A46",
"w. c #765947",
"e. c #655750",
"r. c #5C6443",
"t. c #546147",
"y. c #5E6754",
"u. c #62644A",
"i. c #666547",
"p. c #766847",
"a. c #686959",
"s. c #726958",
"d. c #767559",
"f. c #544F6F",
"g. c #736F68",
"h. c #5B656F",
"j. c #8F1A16",
"k. c #853707",
"l. c #8D3117",
"z. c #A41F22",
"x. c #8B3726",
"c. c #98312A",
"v. c #903633",
"b. c #B1312A",
"n. c #9D2320",
"m. c #D23635",
"M. c #C5302D",
"N. c #85570A",
"B. c #8C571A",
"V. c #965918",
"C. c #8D4817",
"Z. c #97681C",
"A. c #8B6114",
"S. c #A2761F",
"D. c #895A25",
"F. c #935A26",
"G. c #855C37",
"H. c #915C3A",
"J. c #884B29",
"K. c #8B662A",
"L. c #966625",
"P. c #8A643A",
"I. c #9A7338",
"U. c #936C34",
"Y. c #A16928",
"T. c #A87728",
"R. c #A7793B",
"E. c #A16938",
"W. c #C27837",
"Q. c #A53058",
"!. c #95375C",
"~. c #815D45",
"^. c #974F4F",
"/. c #B14A45",
"(. c #886748",
"). c #956C48",
"_. c #826655",
"`. c #977455",
"'. c #907650",
"]. c #A77947",
"[. c #B57D4A",
"{. c #A87257",
"}. c #885D6E",
"|. c #877A68",
" X c #957966",
".X c #8D7873",
"XX c #AA7D61",
"oX c #C87773",
"OX c #C85C59",
"+X c #7B8168",
"@X c #B28331",
"#X c #C39537",
"$X c #9E8159",
"%X c #B8834A",
"&X c #B78859",
"*X c #BC925B",
"=X c #AB8251",
"-X c #868878",
";X c #948678",
":X c #928969",
">X c #AA8868",
",X c #B68B67",
"<X c #B79466",
"1X c #AD9278",
"2X c #C99656",
"3X c #C68D50",
"4X c #E3B157",
"5X c #C89568",
"6X c #C79A76",
"7X c #CF916E",
"8X c #D7A674",
"9X c #D2A875",
"0X c #E1AB7A",
"qX c #E8B37D",
"wX c #DDA858",
"eX c #2D37AD",
"rX c #3843A1",
"tX c #67549E",
"yX c #313BC1",
"uX c #2E40C6",
"iX c #5D68CE",
"pX c #917D98",
"aX c #8F70D5",
"sX c #76838C",
"dX c #938F87",
"fX c #AC9691",
"gX c #B1A78E",
"hX c #ADB5A4",
"jX c #B5B2AA",
"kX c #A69CA7",
"lX c #C7A786",
"zX c #D8A985",
"xX c #D2B18C",
"cX c #E7B487",
"vX c #F5BC8A",
"bX c #EBBC95",
"nX c #EDB890",
"mX c #C6BAB8",
"MX c #C6B2AB",
"NX c #FBC28C",
"BX c #ECC39C",
"VX c #FDCC9C",
"CX c #F9C596",
"ZX c #F4CA96",
"AX c #C5C6B9",
"SX c #D3D1BA",
"DX c #F8C9A4",
"FX c #FCD2A5",
"GX c #F0D6B7",
"HX c #BBBEC3",
"JX c #8E8FE1",
"KX c #C7BCC4",
"LX c #DAD9CC",
"PX c #D9D9D6",
"IX c #C5C6C1",
"UX c #EBECDA",
/* pixels */
"/ / ( ~ ~ ( ( / _ ~ ) ) ) ..+.@.) J G F ~ ( ..O./ ( / o.o.( ( ( ) F ~ ~ R #.( Q R ( .. ./ ( ' $.o._ ",
"/ / ~ ~ ` ( ( ) / o.) ( _ ( D +.) ~ ) ~ E W W W E o.X.) ..( $.( X.E ( ( ` ( ( / ~  ... .W  .( ( / _ ",
"/ / / ) ( (  ./ / / _ ~ _ ) / / [ X...$.( ( ( ( / H H X.X.~ ( $. . . .X.( E  .) K ) / / ) X. .E o.X.",
")  ./ ) (  .W { / ( ~ ~ _ ) E ..O.O.%.%.$.( ( ..+.o.@.+.E o.~ ~  .@.E K X./ X. . .X.X.) / X. .H X...",
"[  ./ .. . .[ [ W / ~ ] R #.%.%.q.9.u.u.u.i.u.u.9.q.*.%.( ~ J J H  .K  .X...o.( / o.o.o...X.) ) / / ",
" ./ X.X./ E [ [ O.W R ( ( #.u.p.g l l j R L j g l a 2 j *.Q X.) / /  . .X._ _ _ _ ( $.$._ / ) ) / ..",
"( ( ^ ~ / ) H E E  .W ' :.7 V :.I.L.V.V.B.B.B.C.v m n s e 2 ! 9.%./ ( ( ) ) _ ( ' ' ` ' ( /  .@.o.X.",
"( ` ` ^ ^ ) X.X.+.#.#.] 8 ! 1XbX5XW.V.k.k.k.k.x v v b n h a & V p.W Q ( ( ( / / ` ` ` ` ( / X.@.X...",
"O...~ ~ ^ ^ ) X.| *.V a U &X8XwXC.k.k.c.l.x.x.x.b e * > 1 5 - ; 8 5 ] $. .+.D +._ ) ^ / ( F X.E  ./ ",
"O.O._ _ ^ ^ ^ ..| 6 a m F.C.C.k.c.x.j.y y y r z b v B.D.U.U.U.K.U.T T f l Q W o.o./ X. .) ..E ( W / ",
"{ O./ ) ) ~ ( ' p.a d m l.l.l.k.r r d c n F.%X2X2X4XwX4X4X#X@X@X@XT.L.A.U L U ] &.%.O.[  .E / X.X./ ",
"O. .E / / / ..| g a d b l.p y M c K.&X9X9X*X%XT.T.T.T.T.@XA.N.N.B.V.A.Z.L.K.,.,.| | O.[ @. .( <. . .",
"#.{ ( ....o.*.O.% 2 , e d z C.[.3X3X@X3X[.H.Y d n d s , ; 5 5 s h f b z Y L.D.T k ] | W +.~ o.P ( / ",
"#.....( W ..9.0.+ - d z c L.@X%X3XC.z c n d e * * & $ O . . . o & * , = r c T U L - Q $.F ~ _ ^ _ _ ",
"$._ (  .[ %.q.:.$ d T L.Y.Y.N.k.b b r , 2 & o O O O > 5 1 + o . . . O O & e h j C i.%.E  .+.o.~ ) ) ",
"_ ^ ( ..O.9.:.=.f B.Y.V.v v z d r e * $ o . O + 5 h -.~.>.k g : o # : $ o $ 2 % 6 d.@./ E ~  . .( / ",
"X.X.X.o. .' L f H.L.C.x z d d , $ O . . % - l =.].*X5X5X2X&X>.k : 4 6 6 + o o . : q  . .( ( W [  ./ ",
"K K ) _ &.' L Y Y.k.x z r e > o o .   @ 5 ! ).,XqXcXvXNXNX9X).f > 1 5 6 0 .   3 D D +.+.' ( {  . ...",
") o.( R ! j n C.k.z r r e $ + . . @ + - > e n >.=X5XvXVXCXvXzX>X`.>.f < @   # 7.a.[ @.X.R ) / X.( / ",
"W ~ ( _ j k n Y v u r e $ .   X + 6 ,.P.).{.;XlXxXvXCXCXvX8X`.C f k f 5 . X # 8.a.D H G ~ _ / / / ( ",
"E E ( W 7 j n n d r & O . . . @ g G.R.%XI.P.q.;.).BXVXVXvX%X>X1X1X).n 5 } sX6.6.t.@.) G ) ( / ) ) ) ",
"/  ./ E E j l s = * O . .   . : =.R.R.L.I.XX XdXgXDXVXVXvX&Xp.w.`.XX:.C a.PXhX+X@.+._ ~ E R / _ _ _ ",
"{  .o.@.r.| V a e , & % o   . o 5 P.R.[.5X1X.XdXxXbXVXVXNX9X,.; , ~.>.k 6 dXIXdXK ) ) ( ( ( ..o.o._ ",
"~ R F / O.i.e.V 6 2 6 3 . . : 2 % >.%XcXDXfXV 4 ~.bXVXCXCXzX>X_.~.`.).=.g | ;X+Xr.+.~ ( R .. .../ / ",
"~ / / / ( #.:.i.} } 0 + + 2 ;.>., >.5XCXGXlXa.*.`.NXVXVXVXVXDXDXxX<XK.C.,.>X:.p.d.E ..X.X.E X.E / ) ",
"^ / ..X.( ( o.&.[ d.0.. % ! >X<X,.H.3XcXDXGXGXGXDXVXVXVXVXVXFXbX&XD.T Y F.7X>X:.7 ( +.o. ./ X./ / / ",
"1.) H H ( _ ~ ~ E +X} . & C ).&X8X2X3X3X8XBXDXDXFXZXVXDXVXDXDXxX<XP.T E.3X[.9Xp.7 r...$.&. .W X.E / ",
") X.+.K ~ _ ~ R #.d.! : * , d B.I.K.B.].&X5X7XzXZXZXBXCXbXbX9X$X>.f m {.qX8X<X=.8 t.$.....@.W E / / ",
"X.@.+.X.) <.( j A ).].].).-.d e s , d Y J.H.{.,X<X<X,X,X,X).Y e * s n H.%X6X`.] 8 ) ) ( E W W E { / ",
"..E X.&.<.:.>.(.XXzXcXzXxXlX1X Xp.=.d e r r s s d r a e d e f d , $ b H.5X5X=.:.r.) R ( O.W  .( (  .",
"W W &.*.<.'.<XnXCXnX,X_.w.;.q.>.~.A u y M y t -.{.t e e ,.'.,X,X`.Y J.&X6XH.6 Q <.X._ (  .@.o.^ / ..",
"#...W P 2.xXVXCXbX,X>.C |..X|._.k t p j.b.c.v.^.XXv.S h ! >.`.,X6X6X6X,X`.k |.u.H ) ~ ( @.X.^ ( ~ ~ ",
"( o.F 7 2.9XFXZXzX>.j q.jXSXLXMXN t j.M.M.M.b.c.v.oX/.M , |  X:X X X_.w.p. X9.$./ ) H  . . .~ ~ ~ ~ ",
"/ / &.*.! P.&X,X).=.! -XhX-XjXmXN i z.M.m.M.b.c.v.7XOXv.i }.jXMX;Xe.e.s.g.s.W ../ ) ) / E / ( E ( ) ",
"/ ..X.W *.! C =.C i.i.8.8.8.hXIXN N n.M.m.m.M.b.v././.c.A e .XAXUXSXLXAX-X[ [ D  ./ E E E ~ ( ~ ( _ ",
" ./ E ( &.#.V 6 i.9./ X.+.hXmXfX9 N !.Q.Q.Q.n.j.v.lX^.j.S N pXAXhXy.t.t.@.K  .+. .X./ ~ ~ E ( ( o.( ",
"&.{ o.o.E ..&.W ..) / ) +.dXg.0 w f.iXaXaXtX5.S 5.^.5.w 9 kXPXjX8.t.H H J 1.) / @.( ( ( ( /  ...X.) ",
"{ ..X./ ) / / ..o.G H / r.Q 6 9 X 4.eXeXeXiXpX}.5.}.g.0.3.jXPXPXjXhXa.<.) ) / ) ( ..{  .( X./ X./ ( ",
"( ~ ^ ) H H H D ) F ..#.j g n h 3 tXrXeXiXJXpX_.~.Z q f.kXKXfXs.0..XSX;X~ ^ ^ _ E W { (  .) )  ./ / ",
"$.( ~ G G )  .H R ~  .#.: k G.(.A 3.rXiXiXrX7.:.1X X0 0 e.w.0.C B C  X1X:X~ / E ( ( ( W / X.H  .H / ",
"( ~ ~ G H )  . ./ R #.*.- =.{.6X`.B q 3.4.6.h.s.w.6X$X`.(.f T B.-.d a q.;Xa.@.X. ...( _ ( _ / G / F ",
"/ _ ^ ) ) X.K W ( ( #.Q 5 ! P.'.p.:.y.f.h.sXdX;X_.{.cXqX2XI.Z.Z.L.-.l g 0.a.8.8.@.( ( _ _ ( ~ ) o.o.",
"/ ..X.o.X. .[  .( ( _ ' Q ! ;.:.:.u.q.#.7.8.+.r.:X,.@X%XS.S.T.S.D.=.k q.g.a.8.K X.) ^ _ ( ~ ~ ) / / ",
"W /  ./ E [  . ...( ( _ <.W W #.t.o.O.W  .E H t.d.; U L.Z.Z.T c s l p.d.a.8.@.K ) / ) ) / W ( ~ ../ ",
") / (  ./  .@.@. .+.o.~ ` _ ..O.+.X.( ( ( o.) X.<.F =.,.U l j 5 7 p.i.&.%.X.D ) ) ) / ~ / ....( / / ",
"_ / / ..../ E /  .o.) / R ` o...D X.( R ( ( D R H r.W j ; ; q.r.Q ( { W o...~ ~ ^ _ _ ~ ) @...W / E ",
"_ ( o...~ ~ P P ) ) X.#.) / ( X.H X.( { ..( R ( O. .o.' *.*.&.%.E [ ....$.F ( E / _ ` ^ ~ ..O.[ / / ",
"/ X.X./ ^ ^ P P ~ / / / W ( ( / H ) / .. .{ ( #...X.) _ W ' ..X. ./ X./ R ..E E R ) ~ ~ R E  .O.E / ",
"o.o.@.( _ ) ~ ~ ../  . .( / / o._ ) E E E E  .....X./ / R / [ D  .X. . .W E E [ W / / / ) ~ ( X./ E ",
"( ..( / ) o./ /  ./ W ..o./ ) ) o./ / / / K ( @.../ E F E /  .E E /  ./ / W [ /  ./ E / ~ / ( X.( ( "
};
