/* XPM */
static char *space__1_1705538481[] = {
/* columns rows colors chars-per-pixel */
"50 50 15 1 ",
"  c #3F4D28",
". c #434E2C",
"X c #445527",
"o c #45542C",
"O c #49562E",
"+ c #47582B",
"@ c #49592D",
"# c #444E30",
"$ c #494F32",
"% c #465330",
"& c #495531",
"* c #4B5931",
"= c #545636",
"- c #505B31",
"; c #4D612E",
/* pixels */
"O@@@+o.+Xo+oooOo&*@o.ooO%+O@OOooooo+..*oO**++.*o.o",
"@+@@++.+o+oOXO@@@&Ooo%.%ooX@O@OoOoOO.o&#OO&*@%&*%+",
"oOo++%ooOO%oOOo@+%oo*@.oo++O+@OoOooOoo%Ooo%;;o$*%%",
"%&o+%%%+O@%oOo.oo%%o@@oOOOo+o%%%oOX&o%%&&o%**OO&#+",
"OOO@ooo.Xoo.OOooo&%%Oo&%oo+o++##ooo*@***@++#o+XO.o",
"+o@oo++ooo..o..+o&ooOoX%oo.X+oO%OO%*@@@+oo%oo%.ooO",
"%oo#.o+%O+oOooXoo%&@ooo&%OooX+ooooOoO@OO+%O+%%ooOO",
"oooOO+o%X@*O@&o+.oO@oo@&O@O+++..oO+++@++%%@@%%ooOO",
"Ooo+@@@@+@@&&&&+OOoo%O@+.+OOX+.ooOoo@@@+##+%.+OO+O",
"oooo&@%*+&o&$o*O@+o+*@@ooo+O@*&+++..@@%%+o.#.o+%o+",
"oooO#XoOOOo++%++@%oo+@*OoooX*&%%%O.o@*&+o%*%.ooOo.",
"X+.oO@*.oO.+o%oXoo.#o%@%X+.o%..%%XXO*OO&%%*%o%%ooo",
"@+.OOo&$&==OoO..o+o%&O@+&&ooooo&&@O@oXoo%@@O.&*%oo",
"+o.$XO==ooOOX+o+++o.%*%&&*O$%oo&@OOXo.XoX@@@oo&o%%",
"XOOoOo=O.XOXOoO+++.o#o%%+ooX%XooOOooXoOo@@X@o.+o#&",
"-O=oo.@OOOOOoo+++%oo.o.+&+oOOOX.oXoo&*XooOX@o++oO@",
"%o#..+@%OXo+o+o+ o&+.. o*&OOoX++OoO*%XX*O.Xo*OOoOO",
"=##o+++++ .+.oOo#&o%..o.&*@+oX++X+O..o**&$OO@oO+++",
"X@oO&o%o...XooXo=%o...oOO%.O%o@+OOoo.o&oOOooO+OXoo",
"@*%&%o%&%o.oO+o+%%+%++.Oo+Oo#+OO@oooooo.OO.O@&ooOX",
"+oo+oo .%o.&+@o+#oOO+ooOo X+ooOOOO@O...%oO+@@ooO@o",
".o%+X..&+%%+ooo+Oo+OooOOX.ooO@@o%OXO%*+o.O*@Ooo.oO",
"ooooo+o@o*@*%#%*+XOO+o++XO%o++%%%%++@*+ooOO@@@Oo+@",
"%+%.o+...*+*%..&+OOOOooX%Xoo%.o&&#++%&&ooOOO@*$+*@",
"%*++oooXOo+@OoXO+o&&oO%o.o.+@..o%&oo%%O%.oo+@+.o&%",
"%%++ooXX+.@@oo@Xo**%.@&%..+O@o-O%+++oo@*&#..++.#**",
"+o.oo+@Ooo+o%O@O%+o&oOX%++&oO=&o+&++.o@;-Oo.o@Oo%%",
"+oo..+@*o.o &OX*%oo&@O+O@O.ooo.oo+%&+o**oooO&O@o%.",
"OXooOXO&@+%.+++o%*o%@*oo%%o%+X&&Oo.&X..$..oo+ooO%%",
"%Oo.++oo*ooo%oo%ooo+%%..%++.o+XoO%oooooo%&+oO@&O%%",
"#@@oXOoo&%o..%%o++%%.%++o%%o+Oooo&*O+++O&@oX@**O&&",
"@@OoO*OO@X+oo&&%+*+%%*%*%o..oO@&o%@@o@O@@O%oO+o@@*",
"@-@oo+&O*+o.o@@Oo$++.&OO&&..X+O@XoOo&%o+ooooXOoX+%",
"XO+oo+o%%+o.o+O+oo%o@&..oO.o.oO@Ooo.&o...%o+O@o&oo",
"%@++  o%%ooo&&oO.oo#*oo..oXoo.o%X...oO.oooX@ooOO++",
"+++@oooo+oo+O%O@O..%@%oo.ooo%o&@X.oXX+o.+ooX++*O+o",
"o.oOo&**+o+oXooo%..&X..o%o$oo.*@oo++@O%&O+Xoo%@o.%",
"ooo+.++*o.o+@O##&OOOOOooOO.o+o&*&X@+oO&+oOOooo+o.o",
"o&&..oo%+oX.oo%o%@@&@*&OOX.$oo&-*%+O.$o.o+o+O.o++o",
"o@.oo.*+ooo.o.##o*@Xo@=&oo%OoO%&O#.o%&o+o++...+++o",
"++o+%ooo.+ooo.%%ooo+o+XOo.*O@@oo...%&O@@o+o.o%o.o+",
".+Ooo&OO@Ooo+%.oo+oooOo+o$O@***&*+$%@+@@%.o+o+oOOo",
"%++%ooO*@o.o++o.o+OooooO+X@O&*O+*-&++o@@oo%+o%+*&*",
"+%%&%+.%+o%o+o+o..ooO+%&O*@@O****@+#++OOo#++.$*@%%",
"o%O@oooooo%++@+.%oX@O+%%ooO@*Oo%&oooX@@.oOooO-oX..",
"%&%+oO@@++o +*+oOX.X+oo.o++O-@o%%%+oO+@+oOo.XOoo+&",
"%#%#.oo++ooX+%%+@@o%+%%#.++o&@o#O%%o.+oo&OoXXOXO+&",
"@o.+o%&%+oo+%.+oO%%oo%*@*%o.oOOo%o.#.+X.oXX.o@@O+o",
"o++oooO*O@o%O%++oOOOo#.+&oo..o%%OO$.oooo++o.oOOoo+",
"&O&o+oooOO%+%.O&%@O+..o%+% .o% oO.$ooo.oo+OooOo++%"
};
