/* XPM */
static char *_c0c8d357c7547dea96299bdce74050apvfNnDMBwZSasnOe[] = {
/* columns rows colors chars-per-pixel */
"50 50 256 2 ",
"   c #040200",
".  c #0B0400",
"X  c #080902",
"o  c #130400",
"O  c #1A0300",
"+  c #170B04",
"@  c #191508",
"#  c #230D01",
"$  c #290A01",
"%  c #380702",
"&  c #281706",
"*  c #351706",
"=  c #311F15",
"-  c #37240A",
";  c #382818",
":  c #38321B",
">  c #362D0C",
",  c #3B0634",
"<  c #3A3433",
"1  c #1F1422",
"2  c #4D0C01",
"3  c #480402",
"4  c #550C01",
"5  c #580702",
"6  c #4D1201",
"7  c #481905",
"8  c #541301",
"9  c #5A1100",
"0  c #541B02",
"q  c #591B08",
"w  c #481B13",
"e  c #591615",
"r  c #4E0A15",
"t  c #620704",
"y  c #760D02",
"u  c #661605",
"i  c #741609",
"p  c #7A1818",
"a  c #6E1517",
"s  c #4D2C02",
"d  c #492402",
"f  c #582604",
"g  c #553A0B",
"h  c #482917",
"j  c #4B3719",
"k  c #573B19",
"l  c #4F2F0F",
"z  c #622C04",
"x  c #672408",
"c  c #643205",
"v  c #6A3507",
"b  c #783808",
"n  c #753615",
"m  c #6D2C11",
"M  c #480D39",
"N  c #501739",
"B  c #453827",
"V  c #543B25",
"C  c #4E3F31",
"Z  c #4D342B",
"A  c #6D3A24",
"S  c #7E1E2C",
"D  c #3E4E2A",
"F  c #3C4D23",
"G  c #3D532C",
"H  c #3F5426",
"J  c #3E5432",
"K  c #3F4E31",
"L  c #564406",
"P  c #554419",
"I  c #4C4C15",
"U  c #674907",
"Y  c #754304",
"T  c #65461A",
"R  c #774818",
"E  c #7C571B",
"W  c #424D25",
"Q  c #434D2B",
"!  c #4A4E2C",
"~  c #4A4628",
"^  c #55472A",
"/  c #445326",
"(  c #4A5426",
")  c #425926",
"_  c #44532C",
"`  c #4A542C",
"'  c #45592C",
"]  c #4A592D",
"[  c #4A5825",
"{  c #53532E",
"}  c #5B582A",
"|  c #464E36",
" . c #564A38",
".. c #455431",
"X. c #4A5532",
"o. c #455932",
"O. c #4A5A33",
"+. c #4C533A",
"@. c #4B5A3A",
"#. c #455639",
"$. c #535434",
"%. c #515933",
"&. c #535B3C",
"*. c #5D5B3C",
"=. c #595638",
"-. c #684A2A",
";. c #744C29",
":. c #634B36",
">. c #68563A",
",. c #765530",
"<. c #57613D",
"1. c #796626",
"2. c #6D603E",
"3. c #241A5F",
"4. c #1B0D66",
"5. c #342878",
"6. c #2A1B58",
"7. c #493368",
"8. c #43174A",
"9. c #535C44",
"0. c #5A5745",
"q. c #555041",
"w. c #675944",
"e. c #6C5A4D",
"r. c #5A6347",
"t. c #5F6453",
"y. c #62654B",
"u. c #6A664B",
"i. c #78624B",
"p. c #686A55",
"a. c #746B59",
"s. c #797559",
"d. c #6C7354",
"f. c #564E70",
"g. c #7A7A65",
"h. c #6E6D70",
"j. c #871816",
"k. c #981A12",
"l. c #901A0C",
"z. c #9B221A",
"x. c #832114",
"c. c #A72A1E",
"v. c #931A24",
"b. c #8D2826",
"n. c #982C2D",
"m. c #A72B23",
"M. c #B62124",
"N. c #B6342C",
"B. c #BA3838",
"V. c #A73030",
"C. c #A31217",
"Z. c #C82627",
"A. c #D8322B",
"S. c #D33330",
"D. c #E43433",
"F. c #E0312C",
"G. c #8A4817",
"H. c #8A5A14",
"J. c #955D18",
"K. c #8D5308",
"L. c #846215",
"P. c #9A6916",
"I. c #9C721C",
"U. c #9E6D0C",
"Y. c #A26C07",
"T. c #A36C18",
"R. c #A6751A",
"E. c #B27A0F",
"W. c #895B26",
"Q. c #8C582B",
"!. c #886826",
"~. c #966522",
"^. c #896638",
"/. c #977331",
"(. c #A77A27",
"). c #AD7B36",
"_. c #AC732A",
"`. c #876A49",
"'. c #8B775A",
"]. c #926D4E",
"[. c #AA7849",
"{. c #A16A43",
"}. c #827D65",
"|. c #8E7D70",
" X c #77806B",
".X c #AD8518",
"XX c #B38617",
"oX c #B58D15",
"OX c #AB8627",
"+X c #B58725",
"@X c #BD9528",
"#X c #AF893D",
"$X c #B68B37",
"%X c #C49836",
"&X c #C89729",
"*X c #D4AA38",
"=X c #D0A530",
"-X c #B98847",
";X c #AB8549",
":X c #80826D",
">X c #868577",
",X c #969071",
"<X c #B99778",
"1X c #B78A66",
"2X c #9F8A51",
"3X c #C49249",
"4X c #C7A448",
"5X c #D6AA49",
"6X c #D8B447",
"7X c #DFBE57",
"8X c #E4B956",
"9X c #E1B24C",
"0X c #C79479",
"qX c #CAAD70",
"wX c #E2AA79",
"eX c #EAC55A",
"rX c #E9C663",
"tX c #F4D173",
"yX c #DDC267",
"uX c #3236B0",
"iX c #3E4DAB",
"pX c #3F41BA",
"aX c #4F5990",
"sX c #5A6289",
"dX c #686988",
"fX c #6C7393",
"gX c #5054AC",
"hX c #7174AD",
"jX c #5560BA",
"kX c #5258C5",
"lX c #494DCB",
"zX c #5B64D2",
"xX c #7178E4",
"cX c #908D88",
"vX c #AC988A",
"bX c #AEA890",
"nX c #B2B1B2",
"mX c #A395AD",
"MX c #D7AF8F",
"NX c #C9BEB4",
"BX c #E6BFA0",
"VX c #E0B588",
"CX c #DFC684",
"ZX c #F9D986",
"AX c #F0C891",
"SX c #FFE494",
"DX c #C2C4B9",
"FX c #EFCDAA",
"GX c #FFE8B6",
"HX c #FFE3AA",
"JX c #9094F5",
"KX c #9DA2FE",
"LX c #878BD2",
"PX c #BEC2C5",
"IX c #CBCDC5",
"UX c #E5E7E6",
/* pixels */
"J #.#..._ ) ( ( ` ` #.@.X.` _ ] _ #._ / G o..._ _ _ ) ] _ ] ....J ..! $.! ! ` o.G G _ X.X.X.X.X.O.] ",
"J ......_ ( ( ( ( X.X...X.O.] _ X.| / / / ..#..._ X.( _ / O.O.O.o...X.W ` %.Q O._ _ _ X.X.X.....X.' ",
"/ ) ] ] _ ] ( ( _ ] ....X.` / _ +.+.` ` ] X.+.+.+.X.` O.O.O._ ) ` O._ / O.D O.` X.` _ _ _ _ ` _ _ _ ",
"[ [ ] ] ` ` .._ _ / / _ ` _ ` $.! { } } } { *.*.=.=.} } } $.{ %.X.! / G G G ` ] ] ` _ _ _ _ _ _ _ _ ",
"( ( ] ` ! ! _ ..G G _ / _ X.$.{ } P L L 1.1.1.L U U g s s j ^ >.$.` .._ G o.' O.] ] ] ] ] ] ' ' _ ..",
"( ( ` ! ! Q _ G G G _ X.] ! P P g 1.2XqXCXtXyX4XOXI.~.W.R f 7 * h w.$.O.O._ H O.] ] ] ] O.' ' _ _ ..",
") _ ` ..! ! ( ) ) H ` $.^ P U L.#XqXFXGXGXSXtX6XoXU.P.~.G.m x f w h  .&.W X.O./ ( ` ` _ ' J _ ` X.X.",
") ' X.X.$.$.` [ _ X.+.~ j U (.4XrXSXHXGXSXZXeX=XoX.XR.H.Y v b u 6 w = : =.$.( ] ( ( ] ..o.o...X.X.X.",
") ' _ X.] ] ` ` +.9.:X=.g !.@X9XrXtXZXZXtX8X*X@XoXXXE.Y.K.K.c 6 % * & B a.&.X._ _ ' O...@...Q _ X.X.",
"' _ ] O._ ..X.&.p.>X; ; g !.OX@X6XrXtXeX6X*X*X=X&XE.Y.Y.Y.J.b f % % * * & 0.y.! O._ @.#...X.%.( ! ` ",
"_ _ $.W O.<.d.}.u.; O $ 7 v H.I.+X=X*X=X=X=X=XoXE.E.E.T.K.b z 0 % 7 % $ o & : u.Q +.+.9.+.! / ) ] X.",
"/ X.X.$.d.<.> g k T % q A 8 z b P.(.+X+X+X+X.XU.U.T.T.K.b m x q 6 3 e w $ * * - & ~ +.+.$.=.` / ] O.",
"] W 0.s.^ P U L.I.~.0 x b.b.y t 9 z Y L.!.!.!.E W.E R R n x 9 5 t p a e % 7 q 6 0 d j  .$.! / ] ] ] ",
"_ &.0.j P E OXXXXXR.G.u i b.n.V.x.i 9 0 f 0 6 6 8 8 2 2 4 9 a p j.j.t 3 4 q u x n m l - ~ X.( _ ] O.",
"K r.*.# R ).8X@X.X.X(.b 2 p b.V.N.N.c.c.m.m.m.m.c.c.z.k.k.z.z.j.j.p 2 % 8 9 v b G.n f $ ~ @._ O._ ' ",
"#.r.*.* R ).tX8X*X.XOXL.v 8 9 y l.c.N.B.B.B.B.B.N.m.c.m.m.z.l.y 5 5 2 0 f b b G.G.n f $ ~ 9...G _ _ ",
"X.%.X.u.P T ;XCXtX8X@X.XI.H.Y v q 9 9 u u u u 9 4 9 8 9 4 4 3 9 4 8 v b K.J.J.G.m f l ^ *.O._ _ / / ",
"` ` Q ! *.=.j `.qXCXrX7X5X%XOXI.H.Y c c z z z c c f f c c c z v b R ~.~.P.J.R v 7 V >.*.X.O.O.....X.",
"_ O._ Q ! +.p.B  .`./.-X4X5X5X5X%X+XR.T.T.T.T.I.I.U.T.P.T.T.T.T.T.~.J.~.W.T d - w.=.X.X._ _ _ ....] ",
"@.D _ F ..#.| t.p.w.k g U I.3X5X5X5X5X5X9X9X5X%X%X%X*X&X+X(.(.~.~.~.U s d >.a.p.p.@.D G / / G _ _ ` ",
"Q O.) W / G #.#.@.X.: V T g g T ^./.[.-X3X3X-X#X(.).).~.H.R T l d s T P * s.g.&._ _ _ ` _ _ ` ` ] ] ",
".._ / ( ] o.o.G J #.: u.'.j # O O # * d f f s s s s f f 7 * O . O & `.'.- g.d...O._ ` X.X.! ! ` X.] ",
"@._ ] ] ......Q D X.: ^ >.^ - o .   . o o . . X . o o O o .   o # h i.w.= a.p.| #.X.@.X.X.` ` ` X.X.",
"G G _ X.@...X.` ! ! =.^ ~ >.V - o X .     X X     . . .   X X @ ; w.C ^  .g.p.| X.X.X.X.X.` ` ` X.X.",
") ) / _ ] X.] ` ` ` ! =.=.C C : @ . o + # o . @ & & O # +   X ; Z q. .p.bXd.O._ _ _ _ _ ........` ` ",
"( ( _ X.] ] ` ! ! ( ] X.+.t.0.B O # * h * $ O ; V V % h = & # # C NXIXDX,X<._ _ _ / _ _ o.O.X...` ` ",
"( ( X.X.X.X.X.X.X.] ' _ r.p. .V k A k w 3 3 % 3 5 3 3 3 h V T s ^ nXUXIX@.O.] _ ` ` _ ' O.O.] ] ` ` ",
"` ` ...._ _ ..X.O._ _ <.y. .V -.].A q 5 j.v.n.n.v.v.p u q d {.Q.-.V cXDXbXr...O.X._ _ ' ] ] ( ( _ ` ",
"X.+.....G H _ _ O...9.y.~ & -.^.`.f 9 y M.Z.S.S.Z.M.C.j.9 6 G.{./.;.k e.NX>Xr.K _ ) ) ) / _ ! ! _ / ",
"......_ / / H _ O.@.+.u.i.-.1X1X;.q i m.Z.D.D.F.D.Z.Z.k.u x x [.wX-X;.:.C >X XK _ ) _ ) _ ` ..X._ _ ",
"_ _ _ _ ` ` / ) _ X.: i.vXBXAX0XA e i N.S.F.A.A.A.A.Z.l.u 6 A 0XAXVX<X2.= >Xg.Q _ ( ` ` ] X...o.' ] ",
"] ] ( ( ` ` _ _ X.&.:  .'.BXMX].w % r S V.B.B.B.V.v.n.p r w ,.0XFXGXFX,X; >Xg.` ( ( ` X.X.X..._ _ _ ",
"X.X.] _ _ _ _ X.X.&.a.w.^ i.-.h + < 7.7.M M N N M , , 8.7.f.Z i.<XFXvXi.= g.s.Q ....` ` ` .._ _ ` ` ",
"...._ _ _ _ _ X.&.W +.p.a. .w.e.< f.gXgX4.3.5.7.3.4.4.5.gXhX1 = Z >.^  .}.d.X._ _ ..` ` ` ` _ _ _ / ",
"_ _ _ _ _ _ _ _ / ( X.&.y.cX|.h.fXhXjXkXuXpXkXxXkXuXuXlXzXgXdX< ; a.}.s.u.` ..W / / ` _ Q Q Q _ _ _ ",
") ) _ _ _ _ _ _ _ ] _ ..9.p.>XcXfXfXLXKXJXzXiXiXiXjXxXKXJXhXdX< B vXs.0.! O.F / / _ _ ` ` ! ...._ _ ",
"] _ _ _ _ _ X._ _ / / X.Q | r.y.0.h.cXnXfXsXsXfXsXsXdXmXmXvX:.B B :Xy.&.` _ _ ' _ _ ] X.X.X....._ _ ",
"] _ _ / ` _ ...._ _ ` ` X.$.s.s.k `.`. .< h.nXUXPXh.+  .|.<X`.:.~ r.9...O._ O.O._ _ _ ] X......._ _ ",
"( ( _ / / _ _ _ _ ` ` ` $.s.:.V g [.[.;. .cXDXIXnXcXq.a.`.'.^ $.&.O......._ _ .._ _ _ ` ` / / _ _ _ ",
"` ] ( _ _ _ G _ _ Q ! =.2.^ -.;.W.J.W.^.h 0.g.p.9.t.g. .^ j =.X.` _ @._ _ ` D _ ` _ ` _ _ / _ ' _ _ ",
"Q ` ` _ _ _ ....| | | ~ P g !.;X#X$X;X^.^ a.s.X.Q ..+.+.$.{ ] ] _ _ ` ` ` Q Q ! ....X.O.' ' _ _ _ _ ",
"O.X.X._ _ _ ....| | +.! P g -.!./.!.1.-.'.u.&._ / _ X.+.X.X.] ] ] X.X.X.X.X.X.X.X._ _ ' ] ] ' _ _ ` ",
"' ' ' _ / ` _ ] ] / W ] =.^ : > > > $.s.0.X..._ o.' ] ] X.O.O.O.O.X.X.%.%.] ] ] ( _ _ _ o.o..._ ` ` ",
") ) _ _ / _ _ ( ( ( ] _ W X.+.0.y.r.r.t.@.X.#.#.o.] ] ] o.#.....X.X.X.$.$.] ( ( _ _ _ _ _ ....` ....",
"_ _ _ _ _ _ ] ( ] _ ) / D ..D Q ] ] <.` ! W ] F _ _ ] ] o.#.X.X.....X.X.` ( ( _ _ _ ' _ _ _ ..X..._ ",
"o._ _ _ _ _ ] ] ' _ _ _ _ ' _ _ _ ] F _ ( ] W / W / _ ' o.o.O.X...` ` ` ` ` _ _ _ ' o.o._ ` X.X.] _ ",
"X.] _ _ _ / _ _ _ _ _ ..] _ ( _ _ ..o.o...Q W ! ` ` _ ' _ _ ] $._ _ _ ` X.` ....G ..o..._ _ ( ` _ _ ",
"` ] ` ` _ _ _ _ _ _ _ _ O._ ] ( .._ .._ ` X.O.X.X.X..._ / Q ! X.] _ _ ....` ....G G _ _ / _ / / _ _ ",
"] X.X.X._ _ _ .._ _ ...._ ] ] ] X..._ _ _ ..X.X.X.X.` / / ` ` ` ` ......X...` _ ......` _ _ _ _ _ _ ",
"/ / ` / _ Q Q Q D Q _ _ / / _ _ _ Q W D Q Q ! ` ` _ Q D D D Q Q D D Q Q Q Q Q Q Q Q Q Q Q / / / / / "
};
