/* XPM */
static char *_ayt__1_1705540898[] = {
/* columns rows colors chars-per-pixel */
"50 50 231 2 ",
"   c #2E1E00",
".  c #3B2D03",
"X  c #3A310A",
"o  c #4A3909",
"O  c #533D0C",
"+  c #493A14",
"@  c #543D14",
"#  c #513E1C",
"$  c #462F0D",
"%  c #594414",
"&  c #5F4B1D",
"*  c #56451B",
"=  c #544A0C",
"-  c #635904",
";  c #614C19",
":  c #64531A",
">  c #625612",
",  c #686216",
"<  c #766A19",
"1  c #7D731E",
"2  c #5D4B2A",
"3  c #594823",
"4  c #5F522A",
"5  c #634D24",
"6  c #644E2C",
"7  c #6A552D",
"8  c #6E5B2E",
"9  c #675527",
"0  c #715D2D",
"q  c #6A5633",
"w  c #6D5B35",
"e  c #6C5B39",
"r  c #655733",
"t  c #725C34",
"y  c #725D3C",
"u  c #664E32",
"i  c #6D6125",
"p  c #74612C",
"a  c #776826",
"s  c #7A7129",
"d  c #736232",
"f  c #796633",
"g  c #7D6A35",
"h  c #75633B",
"j  c #79643B",
"k  c #7C6A3C",
"l  c #7F7039",
"z  c #715D43",
"x  c #746241",
"c  c #7B6443",
"v  c #7D6D44",
"b  c #7A6C46",
"n  c #7D7347",
"m  c #807815",
"M  c #816E3C",
"N  c #806F37",
"B  c #84723D",
"V  c #887839",
"C  c #907F3A",
"Z  c #82762E",
"A  c #826D44",
"S  c #826D4C",
"D  c #847444",
"F  c #897543",
"G  c #8C7944",
"H  c #86744C",
"J  c #8C764B",
"K  c #8D794D",
"L  c #917D45",
"P  c #917C4C",
"I  c #857353",
"U  c #8A7553",
"Y  c #8C7B54",
"T  c #867A55",
"R  c #937D53",
"E  c #917D59",
"W  c #816D52",
"Q  c #947C60",
"!  c #8B841D",
"~  c #8B8226",
"^  c #948A2B",
"/  c #9A932E",
"(  c #9D9729",
")  c #8D8434",
"_  c #94833D",
"`  c #948A35",
"'  c #9A9230",
"]  c #A2963E",
"[  c #928544",
"{  c #94824C",
"}  c #9C8C4B",
"|  c #978949",
" . c #9C9344",
".. c #9D9149",
"X. c #958354",
"o. c #9A8554",
"O. c #9C8A54",
"+. c #95825A",
"@. c #9A855B",
"#. c #9D8A5C",
"$. c #958C56",
"%. c #9E9256",
"&. c #8E814F",
"*. c #A18F4F",
"=. c #A59948",
"-. c #A08D54",
";. c #A18C5B",
":. c #AA9C54",
">. c #A3925B",
",. c #AA9A5C",
"<. c #A5955A",
"1. c #ACA148",
"2. c #AAA455",
"3. c #B2A453",
"4. c #9C8563",
"5. c #9D8A63",
"6. c #9E8C6A",
"7. c #978C65",
"8. c #9F8B72",
"9. c #9F916A",
"0. c #A28D63",
"q. c #A38D6B",
"w. c #A49264",
"e. c #AA9564",
"r. c #AB9A65",
"t. c #A5936B",
"y. c #AA956B",
"u. c #AD9A6B",
"i. c #A69B6B",
"p. c #B19C6C",
"a. c #B09B64",
"s. c #A59471",
"d. c #AB9573",
"f. c #AD9A72",
"g. c #AE9B79",
"h. c #A9967A",
"j. c #B29D73",
"k. c #B0977A",
"l. c #B39C7C",
"z. c #A58D71",
"x. c #ADA06B",
"c. c #ACA465",
"v. c #B4A465",
"b. c #B4A26B",
"n. c #BAA66E",
"m. c #BBAA6C",
"M. c #B7AA67",
"N. c #AEA077",
"B. c #B5A374",
"V. c #BAA574",
"C. c #BCAB74",
"Z. c #B5A37B",
"A. c #BAA57B",
"S. c #BDAB7C",
"D. c #BDB272",
"F. c #BDB169",
"G. c #C6B96C",
"H. c #C2AD7D",
"J. c #C2AF77",
"K. c #C9B975",
"L. c #C4B27C",
"P. c #C6BA7B",
"I. c #CBBA7E",
"U. c #C5B478",
"Y. c #CBC276",
"T. c #D0C170",
"R. c #B39E84",
"E. c #AE9986",
"W. c #B7A483",
"Q. c #BBA583",
"!. c #BDAB82",
"~. c #BEAC8A",
"^. c #B7A885",
"/. c #BFB38B",
"(. c #C2AD84",
"). c #C2AD8A",
"_. c #C5B284",
"`. c #C9B485",
"'. c #CCBA84",
"]. c #C5B28B",
"[. c #CAB58C",
"{. c #CDBA8C",
"}. c #C7B88C",
"|. c #D0BD83",
" X c #D1BD8C",
".X c #C3AD93",
"XX c #C6B392",
"oX c #CBB693",
"OX c #CDBA93",
"+X c #CCB59B",
"@X c #CEBB9A",
"#X c #C5B398",
"$X c #D2BC94",
"%X c #D3BD9C",
"&X c #D9BF9E",
"*X c #CCB7A2",
"=X c #D5BEA3",
"-X c #CDC288",
";X c #D4C28D",
":X c #D9C58E",
">X c #DACA8E",
",X c #D6C585",
"<X c #D5C294",
"1X c #D9C595",
"2X c #DCCA94",
"3X c #D5C39B",
"4X c #D9C49B",
"5X c #DCCA9D",
"6X c #DED396",
"7X c #CEC290",
"8X c #E2D48D",
"9X c #E1CC9C",
"0X c #E1CE94",
"qX c #E4D39C",
"wX c #E4D496",
"eX c #D5C3A2",
"rX c #DBC5A3",
"tX c #DDCAA4",
"yX c #DBC5AB",
"uX c #DECBA9",
"iX c #D6C1AA",
"pX c #DECAB3",
"aX c #E1CCA4",
"sX c #E2CDAB",
"dX c #E4D2A3",
"fX c #E4D1AB",
"gX c #E9D7A8",
"hX c #E2CDB5",
"jX c #E9D4B4",
"kX c #ECD8B7",
"lX c #F4DDBB",
/* pixels */
"5 F y.).aX&XQ `.eXrXXXyX7.g.^.8.W.E.=XXXH.J J $X].$X%X&Xy.y.9X1Xl.S tXfXOXOX{.5X$.&.S.{.7XOX3XOX/.N.",
"O R V.j.(.oXe.&XtXOXXXtX9.oXeXuXkXiXyX[.&Xp.R (.[.&XoX).y.p.dX Xj.E sX3X_.3X<X5Xd d &.H k 7 k 3 r X ",
"@ R H.A.$X&XR k.sX%X7X3X7.tXOXuX+X&XaX[.$X0.;.&X[.oXoX&Xl.j.4X`.R A [.$X<X7XS.e.X.>.C.B.#.J y.J ^.T ",
"J y.j.A.1X$XR $X5XtXOX_.+.tX5X7X+X+X].(.1Xe.o.`.$X).(.+Xl.y.9XdXy.; 9 0 k G { O.G #.C.{.S.0.4X(.3X7.",
"Q A.`.$X&XH.R &X1XdX_.S.R V.&X$X{.OX X$X0X;.;.9X(.[.&XsXk.J y.0.;.M R J.`.J.p.o.G ;.p.1X X0.[.[.7X7.",
";.`.&X X X XR e.B._.S._.a.R J. X$X9XdX Xe.@ t j.oX&X.XQ 5 5 0.;.;.y.`.$X0X X0Xp.O.e.p. X XP 0.(.n 4 ",
"J Q R 0 t e.L B p f L f B M ;.a.j.e.;.-.o.N y.[.k.).Q.d.y y l.H.p. X1X X$X XdXj.w.S. X[.&XR E $X/.9.",
"R p.j.P J  X|. X1XU.J.9 L a.I.a. X'.L.e.C N L.9X&X%X&XjXl.F j.`.$X&X X&XqX$X9Xp.;.[.4X[.&Xq.q.sXeX^.",
"(.aXaXA.o.gX>XU.P.,X0XC.T.I.gXqXgX9X9X|.p.B p.aX&XaXoXlXQ ; j.0XXX~.).j.].[.y.h (.$X$XrXXX4.W.tX#X#X",
"H.9X1Xj.F -X-X>XI.|.I.-.P R R L B R R M N M ;.(.).).d.).N o ; O 4 r c S y.t.@.w [.$XOXsXsX^.Z.#XOXoX",
"!.<X`.p.$.;X:XwXI.I.L.-.R R Q J M p.;.F 0 N M M J E ;.j.L L *.V b +.7.R.tX3X3X0.[.3X<X7X3XZ.d.fX7X].",
"(.5X Xj.#.C.m.v.v.J.n.O.a.J.|.A.7 (.[.H.a.V.(.(.).$X&X`.-.n.G.K.i./.i.i.OX{.1X$.'.{.<X<XgX}.#.OXeX^.",
"k /.'.r.G %.,.,.,.p.a.P a.A.$XoXR oX&X$X(.$X$XaX&X&X&XI.*.G.G.8X7X3XN.N.7X7X6Xi.D.7X6X-X-Xc.&.6X5XW.",
"% %.i.$.%.C.-XI.U.I.n.-.p.H.[.$XS S k.A.A.[.p.A.e.;.-.;.C *.] =.c.i.i.D.dX7X7X2.D.P.D.M.2.| ..6X7X9.",
"h x.i.%.L.;X>XI.I.|.J.R A.(.oXoXU u k.Q.A.(.R Q 0 A L -.C C ^ ] &.$.%.$.c.c...s , , , ` 2.` s s n + ",
"H S.C.S.1X-X:X:X:X:XJ.R `.$X&X&Xz.q =X&X%XaX(. X0.&XqXwX3.^ 1.G.P.7XD.i i $.[ > = s  .Y.Y. .2.J.#.4 ",
"t  X$X[.[.`.<X X$X X-.l.$X4X$X`.R y aX=X#X*X@XtXg.eXeX:X] ^ 3.,X|.H.R f p.0XJ.|.<.L n.>X>XI.P.|.7X7.",
"@ y R 4.;.R R @.j.R M H.9X1X4X<Xp.A sXsX#XiX$XtX~.eX+X5X1.! 2.Y.&X(.p.0 j.1X|. XV.V o.U.1X0X XL.P.n ",
"7 6 5 @ t J R $X[.y.R  X$X X1X1Xa.i [.sX+X+X}.3X~.*X.X5X) - Z <.$X$X$Xt (. X1X'.1Xa.J.:X$X(.p.e.N.n ",
"z.$X(.4.(.(.y.aX$X$Xe.(. X|.1X0XP.0 H.gXrXXX}.5X^.*X#XtX) - <.{.oX&XrXJ $X$X$X[.aX0.;.j.(.A.;.S n = ",
"d.rX%X).).i.j.3X[.&X;.V.5X6X<XqXD.a D.5X7X#X-X<X6.*X*XOX< - $.}.+X%X=XQ =X&XoX[.fX0.A A A S y 7 x + ",
"d.l.oXkX].6.oXOX9X9XP u.;X/.e.c.V Z '.5XfXkXdX7Xn #XpXtX..) O.A.oX=X+XQ %XaX[.$X$Xd.l.H.l.(.+XaX/.$.",
"# # 6 v I +.Z.3X(.u.9 d l l G G : : %.0.s.9.X.B # W 8.9. .1.| x.(.%X&XQ .XaXoX$XsXH.).&XsXjX=XoXtXf.",
"I ~.).g.tX_.q v h 9 . .   p _._.b.X.#.D x 3 O 4 x c e : 1 ] V B.k.$XaXQ  XaX$X[.[.j.[.aX&X&X$X%X3X7.",
"z =XeX#XrXf.. d.OXS.Z.K 8 B.<X5XOX{.%XXXpXW l `.+.E t.B ^ '  .,.l. X&X;.V.qX9X`.`.e.<X4X[.<X[.{.eX9.",
"r ~.@XoXrXZ.* S.$X[.}._.r.<X5X7X3XeX=X~.*XT $._.i.6.B.%.' / =.F. X XL.J  X9X|.`. Xe. X1X XOX_.$X}.+.",
"2 d.oX$X3X).e ].4X$X[.9XZ.].4X$XeX@XE.8.E.W B.>Xf.@.$.| ! ( 1.Y.|.9X'.G 9X:X:X0XU.o.n. X X X{.aX^.n ",
"2 q.oX4X@XoXH OX[.OXoXsXf.i.OXtX/.R.8.h.E.z $.C._.w.X.,.^ ( =.D.a.J.a.a J.I.I.U.n.-.p.J.`.[._.<XN.b ",
"5 0.[.&XoX%X+.$X&X&X$X=XH 3 e h I e 3 u z 2 #.6X7XS.Z.P.( ! ~ | M M 0 : 0 L -.L | G P G H J M j T 3 ",
"; R (.$X[.4X4.[.&X$X$XaXd.q.k.k.f.!.).^.W.6.O.b.}._.].D.~ 1 =.v.C.n.a.L.L M ,.|.|. X X_._.{.(.Z./.&.",
"@ R l.`.[.aX@.[.jX$XoX%Xl.+XrXrX<X5XdXOX%X].%.K.}.{.7XS.) ' 8XdX<X X|.1X;.0 ;.gX X1X$X X7X3XeXeXgXN.",
"@ R j.H.(.9XR _.aXoX&XOXp.&XtXdX3X'.;X!.@X!.V -X_.}.{.n. .=.8X'.1X<Xj.p.e.0 R [.9X9X XOX7X/.}.7XtXc.",
"% Q H.V.$X&XP T.9X&X&X;.:.K.1X$X&X(.$X[.9Xy.a.|.V. XJ.p.C =.,XI.0XA.j.j.Y o w.}.<XdXtXdX3X].3X}./.n ",
"U Q p. X&XI.L 8X0X9X&XJ._ G.:X$X).oXaX$X(.J Q 0X:X|.I.a.*.Z G.a.;.U A +.b o w g &.d 9 &.t.5.t.Y T X ",
"R V.(.$X&XH.C L J.V.j.*.` G.L.(.&XyXyX&XQ.A A k.j.V.U.,.*.; C N H t.0.Z.Z.e.B.Z.<XY h B.eX3XeX7X/.r ",
";.&X X`.`.|.P m N N N $ < ~ o.+.W S S A A $ $ q 7 P J B M J '. X(.fXOXf.%X{.}.}.].H H _.5XOX@XeXtXn ",
"R ;.M M R R F C | #.e.l < ~ U.!.l.k.R.Q z.u q.&X(.$X(.y.;.J (.$X%X@Xs.# t.d.7.A &.d 7.7XOX/.oX#XtXT ",
";.B % 7 F B m 3.J.e.j.b.-  .qX/.=X+X=Xk..Xy R.sXsX&XjXoX&XA l.oXeX3X^.3 ~.OXOX!.6.e 4.OXoX@XeXeXeXn ",
"H.V.0.y.A.k.C m.-XB.t.u.< 2.qX~.+X+X%X.XsXR ).&XsXoX&X).%Xu d.&X.X@X@Xe !.@X].7X3XI 9.#XoXeXtXtXeXn ",
"V.V.V.[.&XH.N K.`.5X~.X.....OXeXoX&X%X&XsX0.).aX[.$X$X$XoXy 0..X@X%XeXb ].uX].OXfXY N.fXuXiX3X#XeXe ",
"k.[.oX=X%Xl.L n.<XeXyX~.i ,.fXyX%X).oX&X9Xl.H. X$X`.$X9X(.0 E XX3X*X@X4.OXeXXXOXfX5.e 5.6.U z r r X ",
"(.sXrX&X=X).-.:XOX=X+XOXV >.jXiX&X[.$X&X9Xp.V. X'.L.[. Xy.7 E (.oX@XeX5.OXeXOXOXtXE 9 e e b W T b 4 ",
"A k.k.k..XR.-.qX%XuX*XiX&.D uX*X&X$X X X0XJ.e.J. X0XdX9Xu.0 J t.!.+XeX7.].eXOX{.fXg.XXOXOXeXrX+X}.N.",
"A Q.).).=XQ.F `.3XhXiX=XB l pXhXrX$X).[.qXj.L C <.p.L.H.o.M 0.j.W.XXeX+.].tX7X].7Xw.aXuX3XuXuXOX3X^.",
"A [.oX[.%Xy.; L y.z.h.T = i XXpXiX&XoX[.9Xa.V L : 0 N 0 O ; @.f.!.@XeX&.OXfX5X}.<X6.5XtXOXOXOX/.3X^.",
"u V. X&XrX(.N :.`.Z.E.E a V OXpX=XaX&X X$XR F p.-.;.-.P 9 A l.!.].OXOXH _.aX7X}.{.$.].5X3XOXOX@XOXs.",
"; a.`. X$XH.[ 3.5X$XXXB.| V ].eX=XhXaX+X&XR P  X;.;.;.<.j @.).(.tXtX3X@.OXgXfXaX_.w.w.}.}.3XtXuX/.7.",
"O e.`.&X X(.} J.'.<X3X5XF.s 3XjXhX=X%X%XsXe.R $Xa.a.Q 0.t @.oX[.t.5.7.3 Y w.9.u.u.$.&.Z.!.OX}.!.i.x ",
"; Q H.&X&X&XR I.1X$X.XjX:.C l.l.].).).N.T 3 7.@X[.0.E (.y A U Y d 9 f.s.9.9.+.7.9 l &.0.i.B.l.j.I 3 ",
"; ;.H.&X$X&X;.I.&X&X+XrX_ : 0 5 t y y q * X 7.3X%Xg.z.&XQ q.XX4X9.4.tXrXeXeX7X3XH #.B.D.{.3X%X%XeX9."
};
